<?xml version="1.0" encoding="utf-8"?>
<!-- Generator: Adobe Illustrator 26.0.1, SVG Export Plug-In . SVG Version: 6.00 Build 0)  -->
<svg version="1.1" id="Eyes" xmlns="http://www.w3.org/2000/svg" xmlns:xlink="http://www.w3.org/1999/xlink" x="0px" y="0px"
	 viewBox="0 0 720 720" style="enable-background:new 0 0 720 720;" xml:space="preserve">
<style type="text/css">
	.st0{fill:#FFFFFF;}
	.st1{fill:#F1E5AC;}
	.st2{fill:none;stroke:#000000;stroke-width:17.2938;stroke-miterlimit:10;}
	.st3{fill:#71C7EC;stroke:#000000;stroke-width:10;stroke-miterlimit:10;}
	.st4{fill:none;stroke:#000000;stroke-width:24;stroke-miterlimit:10;}
</style>
<g id="Circle">
	<path class="st0" d="M360,675c-84.1,0-163.2-32.8-222.7-92.3C77.8,523.2,45,444.1,45,360s32.8-163.2,92.3-222.7S275.9,45,360,45
		s163.2,32.8,222.7,92.3C642.2,196.8,675,275.9,675,360s-32.8,163.2-92.3,222.7C523.2,642.2,444.1,675,360,675z"/>
	<path d="M360,54c41.3,0,81.4,8.1,119.1,24c36.4,15.4,69.2,37.5,97.3,65.6c28.1,28.1,50.2,60.8,65.6,97.3c16,37.7,24,77.8,24,119.1
		s-8.1,81.4-24,119.1c-15.4,36.4-37.5,69.2-65.6,97.3c-28.1,28.1-60.8,50.2-97.3,65.6c-37.7,16-77.8,24-119.1,24s-81.4-8.1-119.1-24
		c-36.4-15.4-69.2-37.5-97.3-65.6c-28.1-28.1-50.2-60.8-65.6-97.3c-16-37.7-24-77.8-24-119.1s8.1-81.4,24-119.1
		c15.4-36.4,37.5-69.2,65.6-97.3c28.1-28.1,60.8-50.2,97.3-65.6C278.6,62.1,318.7,54,360,54 M360,36C181.1,36,36,181.1,36,360
		s145.1,324,324,324s324-145.1,324-324S538.9,36,360,36L360,36z"/>
</g>
<g>
	<path class="st1" d="M389.6,621.1c-9.2,0-16.6-7.4-16.6-16.6V467.7c0-9.2,7.4-16.6,16.6-16.6h46.8c9.2,0,16.6,7.4,16.6,16.6v136.8
		c0,9.2-7.4,16.6-16.6,16.6H389.6z"/>
	<path d="M436.4,456.1c6.4,0,11.6,5.2,11.6,11.6v136.8c0,6.4-5.2,11.6-11.6,11.6h-46.8c-6.4,0-11.6-5.2-11.6-11.6V467.7
		c0-6.4,5.2-11.6,11.6-11.6H436.4 M436.4,446.1h-46.8c-11.9,0-21.6,9.7-21.6,21.6v136.8c0,11.9,9.7,21.6,21.6,21.6h46.8
		c11.9,0,21.6-9.7,21.6-21.6V467.7C458,455.8,448.3,446.1,436.4,446.1L436.4,446.1z"/>
</g>
<g>
	<path class="st1" d="M283.6,549.1c-9.2,0-16.6-7.4-16.6-16.6v-64.8c0-9.2,7.4-16.6,16.6-16.6h46.8c9.2,0,16.6,7.4,16.6,16.6v64.8
		c0,9.2-7.4,16.6-16.6,16.6H283.6z"/>
	<g>
		<path d="M330.4,456.1c6.4,0,11.6,5.2,11.6,11.6v64.8c0,6.4-5.2,11.6-11.6,11.6h-46.8c-6.4,0-11.6-5.2-11.6-11.6v-64.8
			c0-6.4,5.2-11.6,11.6-11.6H330.4 M330.4,446.1h-46.8c-11.9,0-21.6,9.7-21.6,21.6v64.8c0,11.9,9.7,21.6,21.6,21.6h46.8
			c11.9,0,21.6-9.7,21.6-21.6v-64.8C352,455.8,342.3,446.1,330.4,446.1L330.4,446.1z"/>
	</g>
</g>
<g>
	
		<rect x="362.6" y="401.7" transform="matrix(0.9931 -0.1175 0.1175 0.9931 -48.8583 51.7706)" class="st0" width="104.5" height="77.4"/>
</g>
<g>
	<rect x="300" y="405.5" class="st0" width="120" height="77.4"/>
</g>
<g>
	
		<rect x="265.3" y="391.8" transform="matrix(0.1168 -0.9932 0.9932 0.1168 -169.2628 691.2956)" class="st0" width="77.4" height="98.1"/>
</g>
<g id="Mouth">
	<g>
		<path class="st2" d="M144,428.4c52.4,26.7,124.2,52.8,210.1,54c91.5,1.2,167.6-26.3,221.9-54"/>
		<g>
			<rect x="124.3" y="425.4" transform="matrix(0.4537 -0.8911 0.8911 0.4537 -303.1192 362.3517)" width="39.3" height="6.1"/>
		</g>
		<g>
			<rect x="573" y="408.7" transform="matrix(0.8912 -0.4537 0.4537 0.8912 -131.6802 307.9659)" width="6.1" height="39.3"/>
		</g>
	</g>
</g>
<path class="st3" d="M315.2,317.8H146.1c-7.9,0-14.4-6.5-14.4-14.4v-64.8c0-7.9,6.5-14.4,14.4-14.4h169.2c7.9,0,14.4,6.5,14.4,14.4
	v64.8C329.6,311.3,323.1,317.8,315.2,317.8z"/>
<path class="st3" d="M577.6,317.8h-174c-6.6,0-12-5.4-12-12v-69.6c0-6.6,5.4-12,12-12h174c6.6,0,12,5.4,12,12v69.6
	C589.6,312.4,584.2,317.8,577.6,317.8z"/>
<line class="st4" x1="333" y1="271" x2="387" y2="271"/>
</svg>
