<svg xmlns="http://www.w3.org/2000/svg" viewBox="0 0 1000 1000"><defs><style>.a{fill:#fff;}.b{fill:#333;}</style></defs><rect class="a" width="1000" height="1000"/><path class="b" d="M867.65,885.32Q745.31,990,522.17,990q-76.65,0-137.68-10.49T242.84,942.25L240,935.43q9.09-24.66,14.19-61.91,6-41.53,8.87-78.67h47.13q1.51,36.58,4.75,61.35Q353,892.92,400.39,911T521.6,929.14q133.44,0,213.48-77.92t80-217.49q0-84.48-27-147.43T716.34,382.15q-44.83-41.2-90.27-60.08-61.87-25.18-149.89-25.19-57.9,0-109.57,12.07T254.19,350.4L240,338.33l26.12-53q71-34.63,127.46-47.49T534.66,225Q655,225,747.57,260.15q72.67,28.34,123.2,75t77.78,101.26Q990,518.82,990,615.37,990,780.66,867.65,885.32Z"/><path class="b" d="M633.39,691.05q-51.67,12.08-109.57,12.07-88,0-149.89-25.19Q328.5,659,283.66,617.85T211.84,513.7q-27-63-27-147.43,0-139.57,80.05-217.49T478.4,70.86q73.79,0,121.21,18.11t85.45,54.83q3.24,24.76,4.75,61.35h47.13q2.89-37.14,8.87-78.67,5.1-37.24,14.19-61.91l-2.84-6.82Q676.54,31,615.51,20.49T477.83,10Q254.71,10,132.35,114.68T10,384.63q0,96.54,41.45,178.92,27.24,54.57,77.78,101.26t123.2,75Q345,775,465.34,775q84.59,0,141.08-12.85t127.46-47.49l26.12-53L745.81,649.6Q685,679,633.39,691.05Z"/><path d="M500,325A175,175,0,1,0,675,500,175,175,0,0,0,500,325Zm0,317.59A142.59,142.59,0,1,1,642.59,500,142.59,142.59,0,0,1,500,642.59Z"/><path d="M500,375.41A124.59,124.59,0,1,0,624.59,500,124.59,124.59,0,0,0,500,375.41ZM438.08,498.25c0,.56,0,1.12,0,1.67-1,.11-2.18.2-3.51.29-8.14.52-16.28,1.13-24.38,2-12.44,1.37-11-2.23-10.28-8.71.31-2.83.93-6.57,1.44-9.36,4.32-23.77,2.16-19.45,19.44-14.41,8.8,2.57,14.7,4.6,21.81,6.92A60.93,60.93,0,0,0,438.08,498.25Zm8-28.83a55.74,55.74,0,0,1-6.57-2.42c-9.6-4-19.4-7.6-29.56-11.53,10.23-28.78,44.65-53.41,74.9-55.57,0,11.78-.66,26.1-.39,38.07,0,.84,0,1.62,0,2.33A61.88,61.88,0,0,0,446.11,469.42Zm53.1,70.6a40,40,0,1,1,40.52-38.8A39.93,39.93,0,0,1,499.21,540Zm48.29,20A12.5,12.5,0,1,1,560,547.5,12.5,12.5,0,0,1,547.5,560Z"/></svg>