<?xml version="1.0" standalone="no"?>
<!DOCTYPE svg PUBLIC "-//W3C//DTD SVG 20010904//EN"
 "http://www.w3.org/TR/2001/REC-SVG-20010904/DTD/svg10.dtd">
<svg version="1.0" xmlns="http://www.w3.org/2000/svg"
 width="700.000000pt" height="700.000000pt" viewBox="0 0 700.000000 700.000000"
 preserveAspectRatio="xMidYMid meet">
<metadata>
Created by potrace 1.14, written by Peter Selinger 2001-2017
</metadata>
<g transform="translate(0.000000,700.000000) scale(0.100000,-0.100000)"
fill="#000000" stroke="none">
<path d="M3279 6645 c-3 -2 -35 -6 -73 -10 -97 -8 -224 -26 -342 -49 -120 -24
-396 -103 -469 -135 -11 -5 -45 -19 -75 -31 -144 -57 -386 -177 -418 -207 -7
-7 -20 -13 -28 -13 -8 0 -14 -4 -14 -8 0 -5 -15 -15 -32 -24 -47 -22 -249
-168 -348 -252 -83 -70 -281 -262 -350 -341 -222 -253 -436 -600 -552 -900
-20 -49 -39 -99 -43 -110 -5 -11 -9 -22 -10 -25 -1 -3 -15 -50 -32 -105 -27
-86 -36 -118 -49 -170 -40 -169 -39 -163 -48 -226 -4 -25 -9 -59 -12 -75 -19
-104 -28 -249 -29 -459 0 -277 18 -458 71 -693 108 -483 334 -941 653 -1327
126 -151 338 -357 476 -461 28 -21 52 -41 55 -44 10 -12 197 -137 280 -187
107 -64 298 -160 415 -208 185 -76 500 -166 660 -189 22 -4 51 -8 65 -11 14
-3 43 -7 65 -10 22 -2 74 -7 115 -12 89 -10 510 -9 595 1 421 48 758 146 1106
321 311 156 560 335 809 585 135 135 171 176 261 291 251 322 429 670 544
1062 19 67 37 131 39 142 3 11 11 54 20 95 24 116 41 230 54 355 9 96 9 482
-1 580 -13 121 -29 228 -47 315 -5 25 -12 56 -14 70 -22 131 -115 413 -198
600 -158 355 -372 664 -653 945 -418 419 -924 703 -1495 839 -123 30 -256 53
-343 62 -34 3 -73 8 -87 11 -30 6 -516 14 -521 8z"/>
</g>
</svg>
