<svg xmlns="http://www.w3.org/2000/svg" data-name="2" version="1.1" viewBox="0 0 1200 1200"><path d="M0 0h1200v1200H0z" fill="#fff"/><g stroke-width="0"><path d="M617.5 1090.5c-51.6 0-98.7-3.6-139.8-10.6-40.6-7-88.3-19.5-141.7-37.1-.1 0-.2-.1-.3-.3l-1.2-3v-.4c5.9-16.7 10.7-37.7 14-62.3 3.8-26.4 6.7-52 8.7-75.9 0-.3.2-.5.5-.5h38.5c.3 0 .5.2.5.5 1 22.8 2.6 42.4 4.7 58.2l.2 1.6 1.2 1.1c26.2 25.3 56.1 44.5 88.8 57 32.6 12.5 74.8 18.8 125.4 18.8 91.6 0 166-27.2 221.1-80.8 27.6-26.9 48.6-59.5 62.4-97 13.7-37.3 20.7-80.5 20.7-128.3s-9.4-109.1-27.9-152.3c-18.5-43.3-43.6-79.6-74.4-107.9-30.8-28.3-62.2-49.2-93.5-62.2-42.5-17.3-94.6-26.1-154.8-26.1s-77.6 4.2-112.9 12.4c-34.5 8-72.4 21.9-112.7 41.2h-.2c-.1 0-.2 0-.3-.1l-8.9-7.6c-.2-.1-.2-.4-.1-.6l24.1-49s.1-.2.2-.2c47.2-22.9 90.1-38.8 127.5-47.4 37.9-8.6 86.1-13 143-13 81 0 153.5 12 215.7 35.6 48.7 19 90.5 44.4 124.3 75.7 33.8 31.2 60.2 65.6 78.4 102.1 27.8 55.1 41.8 115.9 41.8 180.6s-10.4 106.2-30.8 151.4c-20.4 45.1-51.6 85.7-92.5 120.7s-91.1 61.7-149 79.2c-58.1 17.6-125.6 26.5-200.7 26.5Z" fill="#333"/><path d="M630.3 319.3c80.9 0 153.4 12 215.5 35.6 48.6 18.9 90.4 44.4 124.1 75.6 33.8 31.2 60.1 65.5 78.3 101.9 27.7 55.1 41.8 115.8 41.8 180.4s-10.4 106.1-30.8 151.1-51.5 85.6-92.3 120.6c-40.9 35-91 61.6-148.8 79.1-58 17.6-125.5 26.5-200.6 26.5s-98.6-3.6-139.7-10.6c-40.6-7-88.2-19.5-141.7-37.1l-1.2-3c6-16.7 10.7-37.7 14.1-62.4 3.8-26.5 6.7-52 8.7-75.9h38.5c1 22.8 2.6 42.4 4.7 58.2l.2 1.8 1.3 1.2c26.3 25.4 56.2 44.6 89 57.1 32.7 12.5 74.9 18.8 125.6 18.8 91.8 0 166.3-27.2 221.5-81 27.7-26.9 48.7-59.6 62.5-97.2 13.8-37.4 20.7-80.6 20.7-128.5s-9.4-109.2-27.9-152.5-43.6-79.7-74.6-108.1c-30.8-28.3-62.3-49.3-93.6-62.3-42.6-17.3-94.7-26.1-155-26.1s-77.7 4.2-113 12.5c-34.5 8.1-72.5 21.9-112.8 41.2l-8.9-7.6 24.1-49c47.1-22.9 90-38.8 127.4-47.3 37.9-8.6 86-13 142.9-13m0-1c-57 0-105.1 4.4-143.1 13-37.5 8.5-80.5 24.5-127.7 47.4-.2 0-.4.3-.5.5l-24.1 49c-.2.4 0 .9.2 1.2l8.9 7.6c.2.2.4.2.6.2h.4c40.3-19.3 78.2-33.1 112.6-41.2 35.3-8.2 73.2-12.4 112.8-12.4 60.1 0 112.2 8.8 154.6 26 31.2 13 62.6 33.9 93.3 62.1 30.8 28.3 55.8 64.5 74.3 107.7s27.9 94.3 27.9 152.1-7 90.9-20.7 128.2c-13.8 37.4-34.7 70-62.3 96.8-55 53.6-129.3 80.7-220.8 80.7s-92.6-6.3-125.2-18.7c-32.6-12.5-62.4-31.6-88.6-56.9l-1-1-.2-1.4c-2.1-15.7-3.6-35.3-4.7-58.1 0-.5-.5-1-1-1h-38.5c-.5 0-1 .4-1 .9-2 23.9-4.9 49.4-8.7 75.8-3.4 24.6-8.1 45.5-14 62.2v.7l1.2 3c.1.3.3.5.6.6 53.5 17.7 101.2 30.2 141.8 37.1 41.1 7.1 88.2 10.7 139.9 10.7 75.2 0 142.7-8.9 200.9-26.5 58-17.6 108.1-44.3 149.1-79.3 41-35.1 72.1-75.7 92.6-120.9s30.9-96.2 30.9-151.6-14.1-125.6-41.9-180.8c-18.2-36.5-44.7-70.9-78.5-102.2C936.6 398.5 894.7 373 846 354c-62.2-23.6-134.9-35.6-215.9-35.6Z" fill="#fff"/><path d="M569.7 881.2c-81 0-153.5-12-215.7-35.6-48.7-19-90.5-44.4-124.3-75.7-33.8-31.2-60.2-65.6-78.4-102-27.8-55.1-41.8-115.9-41.8-180.6s10.4-106.2 30.8-151.4c20.4-45.1 51.6-85.7 92.5-120.7s91.1-61.7 149-79.2c58.1-17.6 125.6-26.5 200.7-26.5s98.7 3.6 139.8 10.6c40.6 7 88.3 19.5 141.7 37.1.1 0 .2.1.3.3l1.2 3v.4c-5.9 16.7-10.7 37.7-14 62.3-3.8 26.5-6.7 52-8.7 75.9 0 .3-.2.5-.5.5h-38.5c-.3 0-.5-.2-.5-.5-1-22.8-2.6-42.4-4.7-58.2l-.2-1.6-1.2-1.1c-26.2-25.3-56.1-44.5-88.8-57-32.6-12.5-74.8-18.8-125.4-18.8-91.6 0-166 27.2-221.1 80.8-27.6 26.9-48.6 59.5-62.4 97-13.7 37.3-20.7 80.5-20.7 128.3s9.4 109.1 27.9 152.3c18.5 43.3 43.6 79.6 74.4 107.9 30.8 28.3 62.2 49.2 93.5 62.2 42.5 17.3 94.6 26.1 154.8 26.1s77.6-4.2 112.9-12.4c34.5-8 72.4-21.9 112.7-41.2h.2c.1 0 .2 0 .3.1l8.9 7.6c.2.1.2.4.1.6l-24.1 49s-.1.2-.2.2c-47.2 22.9-90.1 38.8-127.6 47.4-38 8.6-86.1 13-143 13Z" fill="#333"/><path d="M582.5 110c51.6 0 98.6 3.6 139.7 10.6 40.6 7 88.2 19.5 141.7 37.1l1.2 3c-6 16.7-10.7 37.7-14.1 62.4-3.8 26.5-6.7 52-8.7 75.9h-38.5c-1-22.8-2.6-42.4-4.7-58.2l-.2-1.8-1.3-1.2c-26.3-25.4-56.2-44.6-88.9-57.1s-74.9-18.8-125.6-18.8c-91.8 0-166.3 27.2-221.5 81-27.7 26.9-48.7 59.6-62.5 97.2-13.8 37.4-20.7 80.6-20.7 128.5s9.4 109.2 27.9 152.5 43.6 79.7 74.6 108.1c30.8 28.3 62.3 49.3 93.6 62.3 42.6 17.3 94.7 26.1 155 26.1s77.7-4.2 113-12.5c34.5-8.1 72.5-21.9 112.8-41.2l8.9 7.6-24.1 49c-47.1 22.9-90 38.8-127.4 47.3-37.9 8.6-86 13-142.9 13-80.9 0-153.4-12-215.5-35.6-48.6-18.9-90.4-44.4-124.1-75.6-33.8-31.2-60.1-65.5-78.3-101.9-27.7-55.1-41.8-115.8-41.8-180.4s10.4-106.1 30.8-151.1 51.5-85.6 92.3-120.6c40.9-35 91-61.6 148.8-79.1 58-17.6 125.5-26.5 200.6-26.5m-.1-1c-75.2 0-142.7 8.9-200.9 26.5-58 17.6-108.1 44.3-149.1 79.3-41 35.1-72.1 75.7-92.6 120.9S109 431.9 109 487.3s14.1 125.6 41.9 180.8c18.2 36.5 44.7 70.9 78.5 102.2 33.8 31.3 75.7 56.8 124.4 75.8 62.2 23.6 134.9 35.6 215.9 35.6s105.1-4.4 143.1-13c37.5-8.5 80.5-24.5 127.7-47.4.2 0 .4-.3.5-.5l24.1-49c.2-.4 0-.9-.2-1.2L856 763c-.2-.2-.4-.2-.6-.2h-.4c-40.3 19.3-78.2 33.1-112.6 41.2-35.3 8.2-73.2 12.4-112.8 12.4-60.2 0-112.2-8.8-154.6-26-31.2-13-62.6-33.9-93.3-62.1-30.8-28.3-55.8-64.5-74.3-107.7s-27.9-94.3-27.9-152.1 7-90.9 20.7-128.2c13.8-37.4 34.7-70 62.3-96.8 55-53.6 129.3-80.7 220.8-80.7s92.6 6.3 125.2 18.7c32.6 12.5 62.4 31.6 88.6 56.9l1 1 .2 1.4c2.1 15.7 3.6 35.3 4.7 58.1 0 .5.5 1 1 1h38.5c.5 0 1-.4 1-.9 2-23.9 4.9-49.4 8.7-75.8 3.4-24.6 8.1-45.5 14-62.2v-.7l-1.2-3c-.1-.3-.3-.5-.6-.6-53.5-17.7-101.2-30.2-141.8-37.1-41.1-7.1-88.2-10.7-139.9-10.7Z" fill="#fff"/></g><g stroke-width="0"><path d="M625.6 798.3c-87.3 0-192.7-78-222.9-102-2.4-1.9-4.9-3.7-7.7-5.7-7.9-5.8-16.1-11.7-20.4-18.4-6.8-10.5-8.3-19.5-4.5-26.8 5.4-10.3 20.2-14.6 28.9-15h4.4c19.3 0 25.8 5.9 39.9 18.7 1.6 1.4 3.2 2.9 5 4.5C459 663.2 475 676 490.1 676s17.2-5 23.7-14.8c37.3-56.7 26.4-85.3 11.3-124.8-7.8-20.5-16.7-43.7-20.4-75.1-1.2-10.2-.5-23.6 9.5-29.1 2.3-1.2 4.8-1.9 7.4-1.9 8 0 15.6 5.6 19.6 11.2 4.2 5.9 6 11.5 8.3 18.7.5 1.5 1 3 1.5 4.7 4.1 12.7 8.8 27 13.4 41.1 3.8 11.8 7.6 23.4 11 33.7 1.2 3.3 2.1 6.3 2.9 8.9 2.2 7.2 3.9 12.5 8.8 18.2 2.4 2.5 6.1 4 9.7 4s7-1.7 8.7-4.7c2.1-3.5 2.7-7.3 3.4-11.4v-.8c3.1-19.7 6.5-42.7 9.8-65 2.3-15.6 4.6-31 6.7-45.2.5-3 .9-5.7 1.2-8.2.9-7 1.7-12.6 5.6-19.1 3.7-5.5 10.7-9 18.2-9s8.8 1.2 12.3 3.5c14.3 8.9 12.7 20.4 10.7 33.8-1.2 11.3-3.2 26.8-5.3 43.2-3.5 27.4-7.4 58.5-9.3 80.9 0 6.1 3.4 10.4 8.2 10.4s7.5-2.8 10.2-7.6c9.2-17.3 20.8-40.5 32-62.9 7.3-14.7 14.3-28.5 20.1-39.8l.6-1.2c1.5-2.9 3-5.9 5-8.5 2.6-3.9 6.9-6 11.9-6s7.2 1.1 10.5 3c12.4 7.2 14.8 16.7 8 30.8-5.9 13.5-14.3 32.6-22.9 52.1-6.9 15.7-13.9 31.7-19.9 45.2-.4 1-.8 1.9-1.2 2.8-1.8 4.1-3.5 7.9-4.3 12.2-.9 3.8 0 7.5 2.2 10.3 2.2 2.8 5.7 4.3 9.4 4.3s5.5-.8 8.2-2.4c4.8-2.4 10.1-6.4 16.3-10.9 1.6-1.2 3.3-2.5 5.1-3.7 5.4-4 11.1-8.2 16.8-12.4 5.2-3.8 10.3-7.6 15.1-11.1 2.7-1.9 5.3-3.8 7.8-5.7 7.9-5.9 15.3-11.5 23.4-13 .9-.2 1.9-.2 2.9-.2 5.4 0 11.1 2.5 15.2 6.7 3.5 3.5 5.3 7.7 5.3 11.8-.3 6.2-5.2 10.5-9.5 14.4l-1 .9c-15.2 13.5-50.6 45-69.3 69.1-9.2 11.6-17.6 26-25.5 43.9-12.6 29.5-28.4 62.6-57.7 82.7-15.9 9.5-34.9 14.3-56.3 14.3Z" fill="#000"/><path d="M650.7 408.1c4.2 0 8.5 1.1 12 3.4 13.9 8.6 12.5 19.7 10.5 33.3-3.2 29.9-11.5 88.1-14.6 124.1 0 6.9 4 11 8.6 11s7.6-2.4 10.7-7.9c15.3-28.8 37.5-74.3 52.1-102.7 1.7-3.3 3.4-6.7 5.6-9.7 2.8-4.1 7-5.8 11.5-5.8s7.1 1.1 10.3 2.9c13.3 7.7 13.8 17.7 7.8 30.1-10.7 24.4-29.5 67.1-42.8 97.2-2.2 5.2-4.5 9.8-5.5 15.1-1.9 8.5 4.1 15.2 12.1 15.2s5.6-.7 8.5-2.4c6-3.1 12.8-8.4 21.4-14.7 10.4-7.6 21.9-16.1 31.9-23.5 11.3-7.9 20.5-16.7 31-18.7.9-.2 1.9-.2 2.8-.2 9.8 0 20.1 8.6 20 18-.3 6.4-5.7 10.8-10.2 14.9-17.5 15.6-51.1 45.6-69.4 69.2-10.9 13.7-19.1 29.5-25.6 44-12.9 30.3-28.8 62.8-57.6 82.5-16.7 10-35.8 14.3-56.1 14.3-76.1 0-169.7-60-222.6-101.8-9.1-7.2-22.3-15.1-28-24-20-31 12-40.5 24-41h4.4c21.2 0 26.7 7.1 44.6 23.1 12.9 11.5 28 22.5 42.1 22.5s17-4.2 24.1-15c56.8-86.5 1.8-108.5-9-200.2-1.2-10.3-.4-23.3 9.3-28.6 2.3-1.3 4.8-1.8 7.2-1.8 7.5 0 15 5.2 19.2 11 5 7 6.6 13.7 9.8 23.2 7.5 23.2 17 52.1 24.3 74.8 4.4 12.2 5 19.3 11.9 27.4 2.6 2.6 6.4 4.2 10.1 4.2s7.1-1.5 9.1-4.9c2.2-3.8 2.9-8 3.6-12.3 5-33.3 11.2-75.4 16.4-110.2 2.1-11.5 1.5-18.4 6.8-27.1 3.8-5.7 10.8-8.7 17.8-8.7m-.1-1.2c-7.7 0-14.9 3.5-18.6 9.2-4 6.6-4.8 12.2-5.7 19.3-.3 2.5-.7 5.2-1.2 8.2-2.1 14.2-4.4 29.6-6.7 45.2-3.3 22.3-6.7 45.4-9.7 65.1v.7c-.8 4-1.5 7.8-3.5 11.2-2.2 3.9-6.2 4.5-8.3 4.5-3.4 0-7-1.5-9.4-3.9-4.9-5.7-6.5-10.9-8.7-18-.8-2.6-1.8-5.6-3-9-3.3-10.3-7.1-21.9-11-33.6-4.6-14.1-9.3-28.4-13.4-41.1-.6-1.6-1.1-3.2-1.5-4.7-2.3-7.2-4.2-12.9-8.4-18.8-4.1-5.7-11.9-11.4-20-11.4s-5.3.6-7.7 1.9c-5.7 3.1-12 10.8-9.8 29.6 3.7 31.5 12.6 54.7 20.4 75.2 15 39.4 25.9 67.9-11.2 124.4-6.3 9.6-14.2 14.5-23.2 14.5-14.9 0-30.8-12.7-41.4-22.2-1.8-1.6-3.4-3.1-5-4.5-14.2-12.9-20.7-18.8-40.2-18.8H399c-8.8.4-23.8 4.7-29.3 15.2-3.9 7.5-2.4 16.7 4.5 27.3 4.3 6.7 12.6 12.7 20.5 18.5 2.7 2 5.3 3.9 7.7 5.7 18.9 14.9 57.4 43.5 102.8 66.7 45.8 23.4 86.4 35.3 120.5 35.3s40.6-4.8 56.6-14.4c29.4-20.2 45.3-53.4 57.9-83 7.9-17.8 16.2-32.2 25.4-43.8 18.7-24.1 54.1-55.6 69.3-69.1.3-.3.6-.6 1-.9 4.4-3.9 9.3-8.4 9.6-14.6 0-4.4-1.9-8.7-5.4-12.3-4.2-4.3-10-6.8-15.5-6.8-1 0-2 0-3 .3-8.2 1.5-15.7 7.1-23.6 13.1-2.5 1.9-5.1 3.8-7.7 5.7-4.7 3.5-9.8 7.2-14.9 11-5.7 4.2-11.5 8.5-17 12.5-1.8 1.3-3.5 2.5-5.1 3.7-6.2 4.6-11.5 8.5-16.2 10.9-2.6 1.5-5.3 2.3-8 2.3s-6.9-1.5-9-4.2c-2.1-2.7-2.9-6.2-2.1-9.9.8-4.2 2.5-8.1 4.3-12.1.4-.9.8-1.9 1.2-2.8 5.9-13.5 12.9-29.4 19.8-45.1 8.7-19.8 17-38.6 22.9-52.1 3.3-6.8 4.5-12.5 3.4-17.4-1.1-5.5-4.9-10.1-11.6-14-3.4-2-7.2-3.1-10.8-3.1-5.2 0-9.5 2.2-12.3 6.3-1.9 2.6-3.5 5.6-5 8.6l-.6 1.2c-5.8 11.3-12.7 25.2-20.1 39.8-11.2 22.4-22.8 45.5-32 62.9-2.6 4.7-6.2 7.3-9.8 7.3s-7.6-4.1-7.6-9.9c1.9-22.4 5.8-53.5 9.3-80.8 2.1-16.4 4-31.9 5.3-43.2 1.9-13 3.6-25.2-11-34.3-3.6-2.3-7.9-3.6-12.6-3.6Z" fill="#fff"/><path d="M694 728.6c2.9.8 5.9-.7 6.9-3.5l4.8-12.7c1-2.8-.2-5.9-2.9-7.2l-16.3-7.6c-1-.5-1.7-1.5-1.7-2.6l-.5-15.4c0-1.1.6-2.2 1.6-2.8l15.8-8.7c2.6-1.4 3.7-4.6 2.4-7.3l-5.6-12.3c-1.2-2.7-4.3-4-7.1-3l-19 6.2c-1.1.4-.2.1-1.1-.6L660 640.6c-.8-.8-1.2-2-.9-3.1l5-17.3c.8-2.9-.7-5.9-3.5-6.9l-12.7-4.8c-2.8-1-5.9.2-7.2 2.9l-7.6 16.3c-.5 1-1.5 1.7-2.6 1.7l-15.4.5c-1.1 0-2.2-.6-2.8-1.6l-8.7-15.8c-1.4-2.6-4.6-3.7-7.3-2.4l-12.3 5.6c-2.7 1.2-4 4.3-3 7.1l6.2 16.9c.4 1.1.1 2.3-.6 3.1l-10.5 11.3c-.8.8-2 1.2-3.1.8l-17.3-5c-2.9-.8-5.9.7-6.9 3.5l-4.8 12.7c-1 2.8.2 5.9 2.9 7.2l16.3 7.6c1 .5 1.7 1.5 1.7 2.6l.5 15.4c0 1.1-.6 2.2-1.6 2.8l-15.8 8.7c-2.6 1.4-3.7 4.6-2.4 7.3l5.6 12.3c1.2 2.7 4.3 4 7.1 3l16.9-6.2c1.1-.4 2.3-.1 3.1.6l11.3 10.5c.8.8 1.2 2 .8 3.1l-5 17.3c-.8 2.9.7 5.9 3.5 6.9l12.7 4.8c2.8 1 5.9-.2 7.2-2.9l7.6-16.3c.5-1 1.5-1.7 2.7-1.8l15.4-.5c1.1 0 2.2.6 2.8 1.6l8.7 15.8c1.4 2.6 4.6 3.7 7.3 2.4l12.3-5.6c2.7-1.2 4-4.3 3-7.1l-6.2-16.9c-.4-1.1-.1-2.3.6-3.1l10.5-11.3c.8-.8 2-1.2 3.1-.9l17.3 5Z" fill="#fff"/><circle fill="#000" cx="624.7" cy="689.4" r="17.7" transform="rotate(-83.9 624.687 689.41)"/></g></svg>