<?xml version="1.0" standalone="no"?>
<!DOCTYPE svg PUBLIC "-//W3C//DTD SVG 20010904//EN"
 "http://www.w3.org/TR/2001/REC-SVG-20010904/DTD/svg10.dtd">
<svg version="1.0" xmlns="http://www.w3.org/2000/svg"
 width="700.000000pt" height="700.000000pt" viewBox="0 0 700.000000 700.000000"
 preserveAspectRatio="xMidYMid meet">
<metadata>
Created by potrace 1.14, written by Peter Selinger 2001-2017
</metadata>
<g transform="translate(0.000000,700.000000) scale(0.100000,-0.100000)"
fill="#000000" stroke="none">
<path d="M3210 6353 c-616 -20 -1183 -169 -1579 -416 -186 -116 -407 -309
-542 -473 -196 -239 -366 -603 -413 -884 -38 -223 -40 -578 -5 -800 45 -284
158 -594 301 -825 159 -255 424 -517 690 -683 89 -56 282 -151 393 -195 450
-178 1040 -246 1690 -196 356 28 630 100 1005 265 l145 64 72 144 72 144 -24
22 -24 23 -80 -36 c-324 -149 -655 -242 -952 -268 -164 -14 -526 -6 -689 16
-438 60 -748 208 -1071 512 -222 210 -405 522 -488 833 -146 549 -107 1160
101 1574 308 615 941 928 1773 877 245 -15 336 -27 410 -56 33 -12 89 -33 125
-45 152 -53 357 -176 479 -287 l65 -59 15 -172 15 -172 107 0 108 0 5 33 c3
17 10 82 16 142 22 222 62 452 102 592 7 23 9 45 5 49 -11 11 -280 92 -464
139 -311 81 -551 117 -903 135 -184 9 -256 10 -460 3z"/>
<path d="M3405 5129 c-459 -22 -761 -96 -1196 -295 l-106 -48 -71 -142 -71
-142 24 -22 24 -22 113 50 c314 139 633 227 918 253 159 15 523 6 690 -16 426
-57 750 -210 1060 -502 200 -188 383 -477 469 -738 91 -278 136 -656 112 -952
-39 -494 -182 -835 -471 -1123 -361 -362 -856 -521 -1493 -481 -239 15 -329
28 -402 56 -33 12 -89 33 -125 45 -155 54 -353 172 -478 287 -63 58 -64 58
-72 128 -4 39 -11 116 -15 173 l-7 102 -109 0 -108 0 -5 -32 c-3 -18 -10 -82
-16 -143 -22 -222 -62 -452 -102 -592 -7 -23 -9 -45 -6 -49 26 -25 559 -169
772 -209 650 -120 1445 -90 2014 76 312 91 630 254 855 437 113 93 306 297
384 407 186 263 305 553 349 853 20 130 22 524 5 657 -39 301 -133 587 -277
841 -147 257 -433 556 -689 719 -405 257 -873 392 -1480 425 -199 11 -255 11
-490 -1z"/>
<path d="M3740 4602 c-19 -9 -42 -31 -52 -48 -12 -20 -37 -158 -78 -435 -37
-243 -67 -413 -76 -426 -10 -17 -24 -23 -50 -23 -67 0 -78 23 -198 391 -105
321 -111 336 -151 377 -57 57 -112 61 -159 10 -29 -31 -29 -31 -23 -132 7
-117 39 -243 116 -450 70 -189 88 -285 73 -387 -13 -94 -54 -196 -123 -307
-61 -100 -84 -117 -159 -116 -73 1 -133 33 -253 137 -51 43 -109 88 -131 99
-115 59 -300 12 -321 -82 -8 -37 9 -94 41 -137 26 -35 173 -150 348 -273 497
-348 973 -509 1279 -431 203 52 297 152 467 496 64 129 131 249 162 290 59 77
197 219 361 371 98 91 107 102 107 135 0 50 -54 99 -108 99 -48 0 -83 -21
-288 -172 -94 -70 -186 -136 -205 -147 -73 -45 -146 -13 -136 59 2 20 70 186
151 369 150 342 163 383 131 425 -25 33 -68 56 -107 56 -29 0 -42 -7 -63 -32
-15 -17 -97 -171 -182 -342 -85 -171 -164 -321 -176 -333 -25 -28 -58 -29 -82
-3 -21 23 -22 11 36 477 21 177 39 340 39 363 0 56 -20 91 -68 118 -48 27 -76
28 -122 4z m93 -1171 c38 -15 43 -35 25 -102 l-15 -57 37 -37 37 -37 64 20
c35 11 69 17 76 15 13 -5 53 -86 53 -108 0 -7 -26 -27 -57 -46 -50 -30 -58
-38 -61 -68 -6 -59 4 -76 58 -101 72 -34 76 -40 54 -101 -11 -28 -25 -54 -32
-56 -7 -3 -40 2 -74 12 l-62 17 -38 -41 -38 -40 20 -53 c28 -74 26 -85 -20
-108 -64 -33 -82 -28 -115 35 l-30 55 -58 0 -57 0 -28 -57 c-15 -33 -35 -59
-45 -61 -23 -5 -104 27 -110 42 -3 7 3 40 11 74 l17 62 -38 37 -37 38 -65 -24
c-76 -27 -84 -24 -110 44 -20 55 -15 65 57 101 47 24 48 25 48 72 0 59 -4 64
-67 95 -28 15 -55 32 -58 38 -9 13 21 93 41 110 12 10 27 8 76 -6 l60 -19 39
41 38 41 -21 59 c-12 33 -19 66 -16 75 8 19 91 53 112 45 8 -3 27 -28 43 -56
l28 -51 58 0 58 0 20 47 c34 79 44 84 122 54z"/>
<path d="M3574 3046 c-38 -38 -43 -70 -19 -116 19 -37 43 -50 92 -50 94 0 134
114 61 175 -44 37 -91 34 -134 -9z"/>
</g>
</svg>
