<?xml version="1.0" standalone="no"?>
<!DOCTYPE svg PUBLIC "-//W3C//DTD SVG 20010904//EN"
 "http://www.w3.org/TR/2001/REC-SVG-20010904/DTD/svg10.dtd">
<svg version="1.0" xmlns="http://www.w3.org/2000/svg"
 width="1200.000000pt" height="1200.000000pt" viewBox="0 0 1200.000000 1200.000000"
 preserveAspectRatio="xMidYMid meet">
<metadata>
Created by potrace 1.14, written by Peter Selinger 2001-2017
</metadata>
<g transform="translate(0.000000,1200.000000) scale(0.100000,-0.100000)"
fill="#000000" stroke="none">
<path d="M5315 10889 c-1299 -69 -2334 -440 -3060 -1096 -665 -602 -1027
-1301 -1132 -2189 -24 -209 -24 -699 1 -909 90 -770 366 -1437 817 -1975 311
-371 657 -655 1080 -886 579 -315 1234 -493 2084 -566 230 -20 968 -16 1225 5
580 49 949 135 1471 342 152 61 523 225 534 237 4 4 265 527 265 531 0 2 -32
29 -70 61 l-71 58 -202 -90 c-609 -270 -1075 -390 -1692 -433 -210 -15 -662
-6 -865 16 -704 77 -1172 262 -1670 662 -358 287 -616 607 -824 1023 -245 491
-356 1004 -356 1651 0 1145 397 1973 1200 2498 351 230 783 379 1260 436 186
22 595 30 805 16 457 -32 763 -106 1080 -261 181 -89 324 -179 470 -298 186
-151 184 -148 194 -233 5 -41 14 -146 21 -234 6 -88 13 -193 16 -232 l6 -73
233 0 233 0 7 73 c52 564 122 1013 197 1245 29 92 29 93 11 125 -21 36 -40 43
-383 147 -736 222 -1257 315 -1965 350 -241 11 -686 11 -920 -1z"/>
<path d="M5950 8744 c-460 -22 -893 -83 -1200 -169 -259 -72 -608 -204 -914
-346 -92 -43 -169 -79 -171 -81 -18 -20 -264 -532 -258 -538 4 -3 35 -30 69
-58 33 -29 63 -52 66 -52 3 0 84 35 180 79 738 334 1366 465 2158 448 394 -9
659 -40 970 -117 420 -104 752 -272 1120 -566 154 -124 364 -329 464 -454 183
-229 395 -601 494 -867 149 -402 222 -846 222 -1354 0 -922 -256 -1634 -773
-2152 -441 -441 -998 -699 -1697 -784 -183 -22 -738 -25 -930 -5 -176 19 -396
57 -527 92 -359 96 -737 306 -1013 564 -60 55 -61 56 -69 128 -5 40 -14 145
-21 233 -6 88 -13 193 -16 233 l-6 72 -233 0 -233 0 -7 -72 c-51 -563 -122
-1014 -196 -1244 -25 -78 -27 -94 -17 -122 14 -35 14 -36 188 -91 974 -309
1668 -421 2615 -421 1657 0 2868 420 3715 1286 547 559 852 1207 947 2011 24
208 24 698 -1 908 -56 477 -176 892 -376 1300 -288 586 -773 1112 -1350 1461
-626 380 -1320 586 -2240 664 -124 11 -816 21 -960 14z"/>
<path d="M5755 7734 c-450 -64 -872 -311 -1150 -674 -214 -279 -339 -631 -352
-990 -18 -491 150 -934 485 -1283 446 -462 1085 -641 1712 -478 553 143 1017
572 1204 1113 167 486 112 1039 -148 1471 -284 473 -767 787 -1306 847 -120
14 -328 11 -445 -6z m398 -319 c302 -25 621 -179 852 -410 558 -558 558 -1452
0 -2010 -557 -558 -1455 -558 -2010 0 -239 240 -386 553 -413 884 -55 659 350
1269 980 1475 187 62 367 80 591 61z"/>
<path d="M5890 7243 c-333 -44 -558 -151 -770 -363 -242 -242 -363 -535 -363
-880 0 -346 121 -638 363 -880 240 -241 534 -362 875 -363 162 -1 250 12 391
58 193 63 349 159 494 305 242 242 363 535 363 880 0 345 -121 638 -363 880
-180 180 -397 296 -646 345 -74 15 -287 26 -344 18z m-43 -442 l-2 -199 -70
-27 c-115 -45 -223 -131 -300 -239 l-20 -27 -172 67 c-106 41 -173 73 -173 81
0 8 10 33 21 56 113 222 369 416 624 472 104 23 95 42 92 -184z m222 -411
c112 -21 233 -110 281 -208 123 -245 -22 -528 -293 -575 -271 -46 -509 210
-447 481 26 113 104 213 203 262 94 46 166 57 256 40z m-820 -102 c91 -28 167
-52 169 -53 1 -1 -7 -37 -18 -80 -11 -43 -20 -95 -20 -117 0 -37 -1 -38 -37
-39 -21 0 -47 -2 -58 -4 -11 -3 -78 -6 -149 -7 -121 -3 -129 -2 -136 17 -8 21
32 275 49 313 6 12 16 22 22 22 6 0 86 -23 178 -52z m1298 -663 c27 -18 53
-71 53 -107 0 -37 -38 -88 -77 -104 -105 -44 -206 62 -157 163 34 68 116 90
181 48z"/>
</g>
</svg>
