<svg xmlns="http://www.w3.org/2000/svg" viewBox="0 0 5000 1000"><defs><style>.a{fill:#fff;}.b{fill:#bfbfbf;}</style></defs><path class="a" d="M1324.43,465.43c-32,0-57.43-6.42-75.68-19.08-18.71-13-28.2-31.85-28.2-56.1,0-16.35,4.28-30,12.71-40.65,8.2-10.34,17.19-18.09,26.69-23s23.45-9.45,42.91-14c44.27-10.46,93.33-18.84,145.88-24.93-.2-19.9-6.64-34.73-19.64-45.26C1415,231.2,1393,225.5,1363.6,225.5a187.64,187.64,0,0,0-34.56,3.09,79.8,79.8,0,0,0-15.23,5L1295,263.73l-35.53-5.23,3-43.1,2.18-1c21.22-9.55,41.73-18,61-25.07,19.6-7.22,33-11.49,41.07-13.09,10.82-2.14,26.15-3.23,45.55-3.23,31.52,0,57.9,3.1,78.41,9.21,20.67,6.15,36.22,13.61,46.23,22.17s17.12,18,20.94,28c3.74,9.8,5.64,22.26,5.64,37,0,6.22-.7,22-2.16,48.15-.85,17.05-1.28,31.18-1.28,42,0,41.6,2.19,55.87,4,60.52l.08.21a6.32,6.32,0,0,0,4.36,4.35c2.89,1,12.59,2.41,42.4,3.82l3.81.18v29.45l-4.12-.11c-32.87-1-62.37-1.44-87.7-1.44-23.9,0-47.45.48-70,1.43l-1.52.07-6.72-5.48,3.38-32.83c-14,6.53-42.41,20.75-84.75,42.4l-.58.3-.66.1A258.67,258.67,0,0,1,1324.43,465.43ZM1448.71,320c-22.41,3.28-43.25,7.23-62,11.75-19.47,4.7-33,10.46-40.19,17.13-7,6.44-10.34,14.35-10.34,24.19,0,11,4,19.21,12.32,25.16,8.58,6.17,20.18,9.29,34.47,9.29a105.29,105.29,0,0,0,37.54-7.2c11.78-4.49,21.26-10.16,28.2-16.86Z"/><path d="M1412.25,177q46.9,0,77.27,9t44.77,21.38q14.42,12.34,19.8,26.41t5.38,35.58q0,9.19-2.15,47.93-1.29,25.83-1.29,42.19,0,51.07,4.3,62a10.35,10.35,0,0,0,6.89,6.88q6.88,2.31,43.48,4V454q-49.52-1.44-87.82-1.44-36.17,0-70.17,1.44l-3.87-3.16,3.87-37.6q-15.49,6.62-91.26,45.35a253.43,253.43,0,0,1-37,2.87q-46.93,0-73.4-18.37t-26.47-52.8q0-23.25,11.83-38.17t25.4-22q13.56-7,42-13.63,68-16.06,149-25.26.86-34.14-21.09-51.94-22.39-17.79-68-17.79a191.17,191.17,0,0,0-35.3,3.15,86.11,86.11,0,0,0-17.22,5.74l-18.08,29-29.27-4.31,2.58-37q31.86-14.34,60.7-25t40.47-12.91q15.91-3.15,44.77-3.16M1383,411.49a108.69,108.69,0,0,0,39-7.46q19.59-7.45,30.78-18.94V315.35q-36.59,5.16-66.94,12.48t-42,18.09q-11.62,10.75-11.62,27.12,0,18.36,14,28.41t36.8,10M1412.25,169c-19.94,0-35.09,1.08-46.33,3.31-8.24,1.63-21.88,6-41.67,13.26-19.32,7.11-39.92,15.58-61.22,25.18l-4.37,2-.33,4.77-2.58,37-.52,7.39,7.34,1.08,29.27,4.3,5.18.76,2.77-4.44,16.74-26.84a73.06,73.06,0,0,1,13.28-4.26,183.73,183.73,0,0,1,33.79-3c28.4,0,49.6,5.39,63,16,11.21,9.09,17.14,21.76,18,38.59-51.32,6.06-99.29,14.33-142.71,24.58-19.75,4.6-34.09,9.28-43.81,14.32-10,5.19-19.43,13.3-28,24.08-9,11.35-13.57,25.86-13.57,43.15,0,25.63,10.06,45.61,29.91,59.37,18.94,13.14,45.17,19.8,78,19.8a262.7,262.7,0,0,0,38.19-3l1.3-.19,1.17-.6c36.65-18.74,62.84-31.9,78.22-39.3L1440.88,450l-.44,4.29,3.34,2.73,3.88,3.16,2.35,1.92,3-.13c22.48-.95,46-1.43,69.83-1.43,25.3,0,54.76.48,87.59,1.43l8.23.24V424.81l-7.62-.36c-32-1.51-39.57-3-41.32-3.61a2.43,2.43,0,0,1-1.83-1.82l-.07-.22-.09-.2c-1.4-3.54-3.74-15.92-3.74-59.05,0-10.72.43-24.78,1.28-41.79,1.45-26.21,2.16-42,2.16-48.33,0-15.25-2-28.19-5.91-38.44-4.06-10.6-11.48-20.56-22.07-29.62s-26.18-16.57-47.69-23c-20.88-6.21-47.64-9.37-79.55-9.37ZM1383,403.49c-13.44,0-24.25-2.87-32.13-8.54-7.28-5.22-10.66-12.18-10.66-21.91,0-8.66,3-15.61,9-21.25,6.7-6.21,19.62-11.65,38.42-16.18,17.35-4.18,36.51-7.88,57.06-11v57.08c-6.43,5.84-15,10.83-25.63,14.86a101.19,101.19,0,0,1-36.11,6.94Z"/><path class="a" d="M1948.68,458c-32.29-.95-68.75-1.43-108.36-1.43-44.17,0-90.78.48-138.54,1.44l-4.08.08V427.87h4c22,0,37.3-1,45.55-3,3.14-.75,5.46-1.94,6.91-3.55,1.58-2.07,3.49-6.9,3.81-18.22v-.16l1.72-25.54c.28-5.29.42-14,.42-25.85V313.92c0-16.85-.86-37.61-2.57-61.71-1-14.43-2.3-17.76-2.66-18.43-.74-.7-2.28-1.65-5.41-2.34-3.63-.89-14.8-2.08-47.86-2.78l-3.92-.08V199l3.55-.4c51.86-5.89,86.4-10.32,102.65-13.17a469.45,469.45,0,0,0,55-13.66l1.16-.35,15.68,4.65-.79,53.23c15.41-10.74,27.62-19.88,36.36-27.21l.08-.06c15.33-12.19,26.61-19.78,34.47-23.21,10.77-4.79,25.08-7.22,42.5-7.22a116.26,116.26,0,0,1,29.87,3.58l3.17.84-2.79,44c-1.3,33.44-2,37.33-2.21,38.61l-.47,2.67L1993.29,266l-1.5-1.31c-6.77-6-13.31-10.16-19.43-12.47a94.48,94.48,0,0,0-33.46-5.76c-16.15,0-30.18,3.34-41.71,9.94-11.19,6.41-17.88,12.81-19.88,19-.59,2.29-1.56,11.51-1.56,47.38v28.7l.86,38.94c.35,18.62,1.46,24.14,2.1,25.77.87,2.28,3.1,4.18,6.63,5.64,2.85,1.19,10.08,2.8,28.36,3.72l39.1,2.54v30Z"/><path d="M1988.41,175.59a111.81,111.81,0,0,1,28.84,3.44l-2.58,40.75q-1.29,33.3-2.16,38.17l-18.08,3.73q-10.76-9.47-20.66-13.2a97.73,97.73,0,0,0-34.87-6q-25.41,0-43.69,10.47t-21.74,21.38q-1.73,6.31-1.72,48.5v28.7l.86,39q.42,22.11,2.36,27.12t8.83,7.89q6.89,2.88,29.7,4l35.3,2.3V454q-48.65-1.44-108.48-1.44-66.73,0-138.62,1.44v-22.1q33.58,0,46.5-3.16,6-1.43,9-4.88,4.29-5.44,4.73-20.66l1.72-25.54q.43-8,.43-26.12V313.92q0-25.55-2.58-62-1.29-18.37-3.66-20.81t-7.53-3.59q-8.19-2-48.65-2.87v-22.1q78.35-8.88,102.89-13.2a472,472,0,0,0,55.53-13.77l11.63,3.44-.87,58q28-19.22,43-31.85,22.38-17.79,33.58-22.68,15.49-6.89,40.9-6.88m-128.32-8.36-2.3.71a467.84,467.84,0,0,1-54.58,13.54c-16.17,2.84-50.62,7.26-102.41,13.13l-7.1.81v37.07l7.83.17c34.43.73,44.17,2,46.92,2.64l.08,0,.08,0a12.32,12.32,0,0,1,2.93,1c.43,1.55,1.29,5.78,2,16.18,1.7,24,2.56,44.67,2.56,61.43v37.59c0,11.73-.14,20.35-.41,25.64L1754,402.63v.31c-.32,11-2.17,14.73-2.9,15.78a10,10,0,0,1-4.73,2.21h-.06c-7.93,1.94-22.93,2.93-44.59,2.93h-8v38.26l8.16-.16c47.72-1,94.31-1.44,138.46-1.44,39.58,0,76,.48,108.25,1.43l8.23.25V424.37l-7.48-.48-35.3-2.3h-.12c-19.33-1-25.34-2.71-27-3.41s-3.86-1.87-4.44-3.39c-.24-.63-1.46-4.79-1.83-24.39l-.86-39V322.81c0-37,1-44.7,1.4-46.27,1.22-3.62,5.36-9.41,18-16.67,10.92-6.25,24.28-9.41,39.72-9.41a90.39,90.39,0,0,1,32,5.5c5.67,2.14,11.8,6.09,18.21,11.73l3,2.63,3.91-.8,18.08-3.73,5.32-1.1.94-5.35c.41-2.33,1.09-8.93,2.27-39.15l2.57-40.65.42-6.55-6.34-1.69a120.62,120.62,0,0,0-30.9-3.71c-18,0-32.81,2.54-44.12,7.56-8.18,3.57-19.74,11.34-35.34,23.73l-.08.07-.07.06c-7.42,6.22-17.37,13.75-29.68,22.5l.62-42.36.1-6.07-5.82-1.72-11.62-3.44-2.31-.69Z"/><path class="a" d="M2274.42,465.72c-48.3,0-88.93-12-120.77-35.66-32.2-23.94-48.53-57.12-48.53-98.64,0-22.94,4.78-43.74,14.22-61.83,7.12-13.82,15.59-24.69,25.18-32.28,6.89-5.59,26.1-15.71,58.69-30.91,32.06-15,55.47-24.36,69.58-28s32.69-5.43,55-5.43a246.13,246.13,0,0,1,34.81,2c8.48,1.26,22.76,4.46,42.47,9.51.63-9.56.94-19.71.94-30.23,0-14.36-.72-32-2.14-52.53-.72-12.45-2.88-15.43-3.52-16a11.94,11.94,0,0,0-6.44-2.66c-2.43-.37-13.5-1-52.42-1.67l-3.92-.08V52.45l3.73-.24c60.61-4,117.6-12.35,169.37-24.87l1.21-.29L2527,32.86l-.2,2.94c-3.48,51.85-5.31,81.37-5.59,90.26-.85,49.63-1.29,120.19-1.29,209.67v26.69c0,12.87.72,26.94,2.14,41.81,1.13,14.14,3,17,3.38,17.46,1.44,1.72,4.07,3.07,7.81,4,3,.75,13.33,2,45.73,3.62l3.79.19V458l-94.44-.89-78.52.87-7-4.16,2.38-25.08.6-16.29c-18.18,10.24-37.88,21.57-58.68,33.75a237.33,237.33,0,0,1-27.54,14.86l-.31.13-.32.09C2307.73,464.22,2292.76,465.72,2274.42,465.72Zm33.15-247.39c-19.07,0-34.75,3.09-46.61,9.17-11.57,5.95-20.37,15.76-26.13,29.16-5.92,13.77-8.93,29.95-8.93,48.07,0,33.43,10.82,59.54,32.16,77.59,15.81,13.27,37.54,20,64.58,20,20.5,0,38.65-3.91,53.94-11.63,18.64-9.4,24.7-16.7,26.51-21.17,1.92-4.78,4.22-20.22,4.23-66.71l-2.49-50.9c-14.75-11.67-26.95-19.39-36.27-22.95C2350.16,221.91,2329.64,218.33,2307.57,218.33Z"/><path d="M2511.62,31.23l11.19,4.31q-5.16,76.91-5.6,90.4-1.29,74.9-1.29,209.79v26.69q0,19.51,2.16,42.18,1.29,16.08,4.3,19.66c2,2.4,5.31,4.16,9.9,5.31s20.09,2.4,46.49,3.73V454l-90.4-.86-77.49.86-3.87-2.3,2.15-22.67.86-23.53q-29.7,16.63-65,37.3a231,231,0,0,1-27.12,14.64q-16.37,4.3-43.48,4.31-71.46,0-118.38-34.87t-46.92-95.43q0-33.57,13.77-60,10.34-20.08,24.11-31,9.9-8,57.9-30.42t68.88-27.7q20.86-5.31,54-5.31a240.23,240.23,0,0,1,34.22,2q13.56,2,46.71,10.62Q2410,173,2410,154.35q0-21.81-2.15-52.81-.87-14.91-4.73-18.65a15.63,15.63,0,0,0-8.61-3.73q-5.61-.87-53-1.72V56.2q91.7-6,170-25m-189,375.1q31.84,0,55.74-12.06T2406.8,371q4.51-11.19,4.52-68.31l-2.59-52.8Q2385.06,231,2370,225.24q-28.41-10.91-62.42-10.91-29.7,0-48.43,9.61t-28,31.14q-9.27,21.53-9.26,49.65,0,52.25,33.58,80.65,25,20.94,67.16,20.95M2512.16,22.87l-2.42.58c-51.55,12.47-108.31,20.8-168.69,24.77l-7.47.49V85.29l7.85.14c40.73.75,50,1.34,51.88,1.64a8.93,8.93,0,0,1,4.18,1.5c.3.49,1.81,3.4,2.4,13.44v.09c1.42,20.41,2.13,38,2.13,52.25,0,8.68-.21,17.11-.64,25.16-17.59-4.44-30.13-7.2-38.18-8.39a249.86,249.86,0,0,0-35.4-2.1c-22.65,0-41.49,1.87-56,5.56s-37.54,12.92-70.28,28.2-52.3,25.58-59.52,31.42c-10,7.94-18.85,19.24-26.22,33.58-9.72,18.63-14.66,40.05-14.66,63.64,0,42.85,16.87,77.12,50.15,101.85,32.54,24.18,74,36.45,123.15,36.45,18.94,0,33.83-1.5,45.52-4.57l.64-.17.61-.28a237.65,237.65,0,0,0,28-15.08c18.42-10.79,36-20.9,52.35-30.17l-.33,9-2.13,22.44-.48,5.06,4.36,2.58,3.88,2.3,1.92,1.14,2.24,0,77.41-.86,90.32.86,8.07.07V425.7l-7.59-.39c-33.77-1.71-42.66-2.92-45-3.5-3.63-.9-5.07-2-5.59-2.55-.32-.64-1.66-3.9-2.58-15.3v-.11c-1.4-14.74-2.12-28.68-2.12-41.43V335.73c0-89.43.44-160,1.29-209.6.29-8.91,2.11-38.37,5.58-90.06l.4-5.88-5.51-2.12-11.19-4.31-2.33-.89ZM2322.64,398.33c-26.07,0-46.94-6.42-62-19.08a82.07,82.07,0,0,1-22.94-31.31c-5.16-12.4-7.78-26.94-7.78-43.21,0-17.58,2.9-33.22,8.61-46.48,5.46-12.71,13.4-21.6,24.28-27.19,11.29-5.79,26.35-8.73,44.78-8.73,21.58,0,41.61,3.49,59.55,10.37,8.66,3.31,20,10.44,33.8,21.24l2.4,49c0,48.18-2.47,61.47-3.94,65.11-1.27,3.14-6.15,9.79-24.6,19.1-14.73,7.43-32.27,11.2-52.14,11.2Z"/><path class="a" d="M2670.51,428.92l3.81-.19c41.38-2,51.48-3.81,53.82-4.74a9.62,9.62,0,0,0,6.19-7.37l0-.15c2.76-10.15,4.16-37.12,4.16-80.17,0-73.74-2-95.61-3.69-101-.81-2.69-2-4.36-3.4-5-2.91-1.26-14.22-3.43-57-3.68l-4,0V197.11l3.72-.26c43-3,75.89-6.3,97.82-9.72a677.77,677.77,0,0,0,71.89-15.69l1.22-.33,14.49,5.23-.36,3.15a735.14,735.14,0,0,0-5.14,83.63V360.7c0,40.68,1.74,53.84,3.19,57.71l0,.15a6.34,6.34,0,0,0,4.36,4.35c7.31,2.35,25.91,3.92,55.23,4.67l3.9.1V458l-4.08-.07c-40.7-.76-85.43-1.15-132.94-1.15-41,0-77.73.38-109.25,1.15l-4.1.09Zm122-298.41c-18.8,0-35.19-4.57-48.71-13.58-14-9.36-21.16-21-21.16-34.62,0-13.41,7-25,20.92-34.31,13.38-9,29.85-13.59,48.95-13.59S2828,39,2841.41,48c13.88,9.37,20.92,20.91,20.92,34.31,0,13.6-7,25.24-20.92,34.6C2828,125.94,2811.56,130.51,2792.47,130.51Z"/><path d="M2792.47,38.41q27.54,0,46.7,12.91t19.16,31q0,18.36-19.16,31.28t-46.7,12.91q-27.12,0-46.5-12.91T2726.6,82.32q0-18.09,19.16-31t46.71-12.91M2845,175.3l10.33,3.73a734.48,734.48,0,0,0-5.17,84.09V360.7q0,49.94,3.45,59.12a10.33,10.33,0,0,0,6.88,6.88q11.63,3.74,56.4,4.88V454q-61.14-1.16-133-1.15-62,0-109.35,1.15V432.73q48.21-2.3,55.11-5a13.6,13.6,0,0,0,8.61-10.19q4.29-15.78,4.3-81.22,0-89.82-3.87-102.17-1.72-5.73-5.6-7.46-8.62-3.72-58.55-4V200.84q65-4.59,98.15-9.76A675.73,675.73,0,0,0,2845,175.3M2792.47,30.41c-19.91,0-37.13,4.8-51.18,14.28-15.06,10.14-22.69,22.8-22.69,37.63,0,15,7.72,27.79,22.94,37.93,14.19,9.46,31.32,14.26,50.93,14.26,19.9,0,37.12-4.8,51.18-14.28,15-10.15,22.68-22.91,22.68-37.91,0-14.82-7.63-27.48-22.68-37.63-14.06-9.48-31.28-14.28-51.18-14.28Zm52.86,136.51-2.44.66a672.22,672.22,0,0,1-71.46,15.6c-21.81,3.4-54.61,6.66-97.48,9.68l-7.44.53v37.22l8,0c44.22.26,53.5,2.58,55.34,3.33a5.88,5.88,0,0,1,1.18,2.46l0,0v.05c1.31,4.17,3.51,22.68,3.51,99.77,0,53.18-2.19,72.38-4,79.12l0,.15,0,.15a5.63,5.63,0,0,1-3.76,4.55c-1.4.53-9.35,2.41-52.54,4.47l-7.62.36v37.06l8.2-.2c31.47-.76,68.2-1.14,109.15-1.14,47.49,0,92.2.38,132.87,1.15l8.15.15V423.78l-7.8-.2c-35.93-.91-49.26-2.94-54.1-4.48a2.4,2.4,0,0,1-1.79-1.81l-.05-.14-.06-.15c-.88-2.35-2.93-12.53-2.93-56.3V263.12a731.64,731.64,0,0,1,5.11-83.17l.73-6.29-6-2.15-10.33-3.73-2.37-.86Z"/><path class="a" d="M3250.07,458c-35.68-1.52-73.43-2.29-112.18-2.29s-83,.77-131.61,2.29l-4.12.13V427.38l3.92-.08c27-.57,43.41-1.33,48.93-2.25,4.61-.81,7-1.91,8.12-2.68a7.55,7.55,0,0,0,2.89-4.5l0-.12,0-.11c1.29-3.67,3-15.86,4.09-53,.85-30.22,1.29-57.41,1.29-80.82v-94.7c0-29.74-1-57.34-3-82.05-1.45-16.81-3-20.85-3.52-21.72a7.86,7.86,0,0,0-3-1.84l-.19-.08c-3-1.35-8.14-2.4-15.14-3.12-4.18-.37-17.13-.85-38.44-1.42l-3.9-.1V49.89l3.72-.26c35.32-2.47,63.91-5.21,85-8.15s49.76-8.19,85.41-15.6l1.14-.24,12.88,4.91-3.62,60.9c-1.42,32.25-2.29,72.46-2.57,119.46v73.45c0,27.66.29,48.56.85,62.11,1.14,34,2,54.89,2.58,62,.73,9.16,2,11.23,2.22,11.55l.09.12.08.13a6.5,6.5,0,0,0,2.66,2l.12.06c1.48.77,4.76,1.87,12,2.74h.12c1.65.25,10.53.79,43.46,2l3.85.14v31Z"/><path d="M3179.21,29.8l9,3.44-3.44,58q-2.16,48.8-2.58,119.68v73.47q0,41.61.86,62.27,1.71,51.38,2.58,62.14t3,13.63a10.09,10.09,0,0,0,4.31,3.44q3.87,2,13.34,3.16,3.89.57,43.91,2v23q-53.8-2.3-112.35-2.3T3006.16,454V431.29q40.89-.85,49.5-2.29c4.31-.76,7.54-1.87,9.69-3.3a11.45,11.45,0,0,0,4.52-6.75q3-8.61,4.31-54.24t1.29-80.93v-94.7q0-45.06-3-82.37-1.72-20.08-4.3-23.82a11.52,11.52,0,0,0-4.74-3.16q-5.16-2.3-16.35-3.44-6.46-.57-38.75-1.44V53.62q53.37-3.73,85.24-8.18t85.66-15.64m.67-8.31-2.3.47c-35.56,7.4-64.21,12.63-85.14,15.55s-49.45,5.67-84.69,8.13l-7.44.52V82.64l7.79.21c26.28.7,35.28,1.15,38.19,1.4,8.17.84,12.06,2,13.88,2.79l.19.09.2.07a5.5,5.5,0,0,1,1.06.53c.52,1.51,1.71,6.22,2.86,19.66,2,24.56,3,52.06,3,81.69v94.7c0,23.35-.44,50.5-1.29,80.71-1.13,40-3.08,49.58-3.86,51.83l-.08.23-.07.24a4.15,4.15,0,0,1-1.26,2.25c-.55.37-2.3,1.31-6.6,2.07-3.7.61-15.09,1.49-48.32,2.19l-7.83.16v38.76l8.25-.26c48.52-1.52,92.76-2.29,131.48-2.29s76.38.77,112,2.29l8.34.36v-39l-7.71-.28c-34.28-1.22-41.66-1.73-43-1.92l-.11,0h-.11c-7.44-.9-10-2-10.61-2.32l-.13-.06-.13-.06a4.34,4.34,0,0,1-1.07-.65l-.1-.15,0,0c-.2-.47-1-2.77-1.58-9.66s-1.43-27.81-2.57-61.76v-.07c-.57-13.49-.85-34.33-.85-61.94V210.89c.28-46.85,1.14-87,2.57-119.26l3.44-57.92.35-5.86-5.49-2.09-9-3.44-2.18-.83Z"/><path class="a" d="M3587.75,458c-35.69-1.52-73.43-2.29-112.19-2.29s-83,.77-131.6,2.29l-4.13.13V427.38l3.92-.08c27-.57,43.42-1.33,48.93-2.25,4.61-.81,7-1.91,8.12-2.68a7.55,7.55,0,0,0,2.89-4.5l0-.12,0-.11c1.28-3.68,3-15.86,4.08-53,.86-30.24,1.29-57.43,1.29-80.82v-94.7c0-29.73-1-57.33-3-82.05-1.44-16.8-3-20.84-3.52-21.72a7.9,7.9,0,0,0-3-1.84l-.2-.08c-3-1.35-8.13-2.4-15.14-3.12-4.18-.37-17.13-.85-38.44-1.42l-3.9-.1V49.89l3.73-.26c35.32-2.47,63.9-5.21,85-8.15s49.75-8.19,85.4-15.6l1.15-.24,12.87,4.91-3.61,60.9c-1.43,32.27-2.3,72.49-2.58,119.46v73.45c0,27.67.29,48.56.86,62.1,1.13,34.05,2,54.9,2.57,62,.73,9.16,2,11.23,2.22,11.55l.09.12.08.13a6.5,6.5,0,0,0,2.66,2l.13.06c1.47.77,4.75,1.87,12,2.74h.11c1.65.25,10.54.79,43.46,2l3.86.14v31Z"/><path d="M3516.89,29.8l9,3.44-3.45,58q-2.16,48.8-2.58,119.68v73.47q0,41.61.86,62.27,1.71,51.38,2.58,62.14t3,13.63a10,10,0,0,0,4.3,3.44q3.87,2,13.35,3.16,3.87.57,43.91,2v23q-53.82-2.3-112.36-2.3T3343.83,454V431.29q40.89-.85,49.51-2.29c4.3-.76,7.53-1.87,9.68-3.3a11.41,11.41,0,0,0,4.52-6.75q3-8.61,4.31-54.24t1.29-80.93v-94.7q0-45.06-3-82.37-1.73-20.08-4.31-23.82a11.55,11.55,0,0,0-4.73-3.16q-5.18-2.3-16.36-3.44-6.46-.57-38.75-1.44V53.62q53.39-3.73,85.24-8.18t85.67-15.64m.66-8.31-2.29.47c-35.57,7.4-64.21,12.63-85.15,15.55s-49.45,5.67-84.68,8.13l-7.45.52V82.64l7.79.21c26.28.7,35.29,1.15,38.2,1.4,8.16.84,12.05,2,13.87,2.79l.19.09.2.07a5.22,5.22,0,0,1,1.06.53c.52,1.51,1.71,6.22,2.87,19.66,2,24.57,3,52.06,3,81.69v94.7c0,23.35-.43,50.51-1.29,80.71-1.13,40-3.08,49.58-3.86,51.83l-.08.23-.07.24a4.2,4.2,0,0,1-1.25,2.25c-.56.37-2.31,1.31-6.61,2.07-3.7.62-15.09,1.49-48.32,2.19l-7.83.16v38.76l8.25-.26c48.52-1.52,92.76-2.29,131.48-2.29s76.38.77,112,2.29l8.34.36v-39l-7.72-.28c-34.27-1.22-41.66-1.73-43-1.92l-.11,0h-.1c-7.45-.9-10-2-10.62-2.32l-.13-.06-.13-.06A4.59,4.59,0,0,1,3533,418l-.09-.15,0,0c-.2-.47-1-2.77-1.58-9.66s-1.43-27.8-2.56-61.76v-.07c-.56-13.48-.85-34.32-.85-61.94V210.89c.28-46.85,1.14-87,2.57-119.26l3.44-57.92.35-5.86-5.49-2.09-9-3.44-2.18-.83Z"/><path class="a" d="M3897.61,468c-65.4,0-116.65-12.65-152.32-37.6-36.12-25.26-54.44-62.91-54.44-111.9,0-33.29,8.68-61.3,25.81-83.25s42.91-38.55,76.83-49.56c33.54-10.89,73.06-16.41,117.46-16.41,66.78,0,118.44,11.91,153.54,35.4,35.6,23.84,53.65,59.23,53.65,105.21,0,26.36-5.23,49.59-15.53,69a130.42,130.42,0,0,1-41.74,47.2,208.61,208.61,0,0,1-54.43,26.77C3974.32,462.93,3937.71,468,3897.61,468Zm2.58-261.16c-16.55,0-31.19,2.92-43.51,8.67-12,5.61-21.53,15.23-28.25,28.59-6.86,13.62-10.34,34-10.34,60.62,0,49.53,10.89,85.16,32.36,105.89C3864.52,424.16,3885,431,3911.38,431c22.5,0,40.5-5.22,53.48-15.5,17.28-13.68,26-41,26-81.24,0-28.68-3.62-53.59-10.76-74-7-19.93-17.22-33.93-30.51-41.63C3936.1,210.82,3919.47,206.85,3900.19,206.85Z"/><path d="M3911,173.29q99.45,0,151.32,34.73t51.87,101.88q0,38.75-15.07,67.15a125.93,125.93,0,0,1-40.46,45.78,203.6,203.6,0,0,1-53.38,26.26Q3957.44,464,3897.61,464q-97.29,0-150-36.88t-52.73-108.62q0-48.79,25-80.79t74.9-48.21q49.94-16.22,116.23-16.22m.43,261.74q35.29,0,56-16.36,27.54-21.81,27.55-84.38,0-43.91-11-75.33t-32.29-43.77q-21.3-12.33-51.44-12.34-25.83,0-45.2,9t-30.14,30.42q-10.76,21.39-10.76,62.42,0,76.35,33.58,108.77Q3870.05,435,3911.38,435M3911,165.29c-44.82,0-84.76,5.59-118.7,16.61-34.69,11.26-61.18,28.39-78.74,50.9-17.69,22.67-26.66,51.51-26.66,85.71,0,50.38,18.89,89.13,56.15,115.18,18.3,12.8,40.69,22.52,66.54,28.87,25.51,6.27,55.14,9.45,88.07,9.45,40.5,0,77.51-5.14,110-15.29a212,212,0,0,0,55.51-27.29,134.25,134.25,0,0,0,43-48.63c10.62-20,16-43.88,16-70.9,0-47.39-18.65-83.91-55.42-108.53-18-12.07-40.38-21.21-66.43-27.19-25.69-5.9-55.75-8.89-89.34-8.89Zm.43,261.74c-25.29,0-44.86-6.49-58.16-19.29-20.65-19.95-31.13-54.6-31.13-103,0-26,3.34-45.76,9.91-58.82,6.4-12.72,15-21.47,26.37-26.77,11.79-5.5,25.86-8.29,41.82-8.29,18.56,0,34.52,3.79,47.43,11.26,12.44,7.21,22.11,20.49,28.75,39.49,7,20,10.53,44.46,10.53,72.69,0,38.95-8.25,65.23-24.52,78.1-12.26,9.71-29.42,14.64-51,14.64Z"/><path class="a" d="M4211.21,208.19l1.55-3.1c.78-1.58,2.9-5.2,12.15-18.32,8.75-12.42,10.31-15.09,10.58-15.66l.07-.17.08-.14c8-14.65,15.27-29,21.63-42.68a292.35,292.35,0,0,0,14-34.8,182.91,182.91,0,0,0,6.53-29.63l.41-3,3-.43c4-.57,14.88-2,32.33-4.31,22.5-3,36.8-5.05,42.48-6,11-1.88,24.86-4.67,41.11-8.28l1.6-.36L4415.9,52,4414,55.34c-3.58,6.15-9.46,14.29-18,24.89-31.22,38.38-51.67,63.13-60.8,73.59a623.71,623.71,0,0,1-45.45,48.77l-.74.7-60.88,16.54Z"/><path d="M4398,45.58l12.49,7.75q-5.17,8.89-17.65,24.39-46.93,57.69-60.7,73.47a617.42,617.42,0,0,1-45.2,48.5l-58.12,15.79-12.48-8.61q1.71-3.45,11.84-17.79t11-16.36q12-22.09,21.74-42.91t14.21-35.3a186.56,186.56,0,0,0,6.67-30.28q6-.86,32.29-4.3,34-4.59,42.62-6Q4373.47,51,4398,45.58m1.45-8.52-3.18.71c-16.18,3.6-30,6.37-40.94,8.25-5.61.93-19.86,2.95-42.34,6-17.43,2.29-28.33,3.74-32.35,4.32l-6,.85-.81,6a179.14,179.14,0,0,1-6.39,29,287.31,287.31,0,0,1-13.82,34.31c-6.32,13.58-13.56,27.86-21.51,42.45l-.18.32-.08.19c-.35.65-2.07,3.49-10.23,15.07-9.3,13.19-11.55,17-12.46,18.83l-3.1,6.21,5.72,3.94,12.48,8.61,3.06,2.11,3.58-1L4289,207.41l2-.53,1.47-1.4a626.78,626.78,0,0,0,45.75-49.08c9.32-10.68,29.22-34.76,60.83-73.63,8.69-10.79,14.69-19.1,18.37-25.42l3.89-6.72-6.59-4.1-12.49-7.75-2.77-1.72Z"/><path class="a" d="M4604.81,468a473.87,473.87,0,0,1-59.05-3.62c-19-2.4-42.47-6.82-69.71-13.13l-1-.23-7.1-6.46.34-2.12c2.25-14.49,3.69-24.91,4.26-31l2.78-51.92h42l.25,3.74c1.31,19.6,2.61,32.52,3.89,38.48a128.33,128.33,0,0,0,40.28,21.84c15,4.91,32.56,7.41,52.14,7.41,26.11,0,46.27-4.16,59.93-12.35,13.18-7.91,19.58-17,19.58-27.85,0-7.08-2-12.73-6.08-17.27s-13.19-9.15-26.7-13.31c-11.07-2.64-32.56-6.27-63.88-10.81-31.82-4.6-56.32-9.78-72.82-15.38-17-5.76-30.48-14.52-40.1-26.05a62.55,62.55,0,0,1-14.7-41.16c0-27.8,15.73-51.12,46.75-69.32,30.32-17.78,74.31-26.8,130.73-26.8a480.11,480.11,0,0,1,64.69,4.05A291.56,291.56,0,0,1,4764.94,187l1.65.56,2.58,5.73-.35,1.36a161.29,161.29,0,0,0-3.78,19.88c-.84,6.77-2.14,23.1-3.85,48.56l-.25,3.76-40.38-.35-.47-3.42c-.29-2.13-.73-5.73-1.3-10.71a118.19,118.19,0,0,0-4.66-23.11c-8.28-6.89-18.57-12.17-30.59-15.69-12.64-3.7-27.69-5.58-44.72-5.58-23.61,0-42,3.5-54.7,10.42-12.07,6.57-17.93,14-17.93,22.6,0,9.16,2.48,15.66,7.59,19.87,5.49,4.55,13.89,8,25,10.37,11.62,2.46,33.45,5.67,64.88,9.56,31.71,3.92,53.38,7.28,64.39,10,16.16,4.12,29.31,9.41,39.1,15.74a68.22,68.22,0,0,1,23.07,24.24,65.27,65.27,0,0,1,8,31.92c0,29.9-17.39,55.29-51.69,75.49C4712.91,458,4665.23,468,4604.81,468Z"/><path d="M4646.56,174.73a475,475,0,0,1,64.15,4,286.79,286.79,0,0,1,52.95,12.06l1.29,2.87a163.32,163.32,0,0,0-3.88,20.37q-1.29,10.34-3.87,48.79l-33.15-.29q-.44-3.15-1.29-10.61a120,120,0,0,0-5.17-25q-13.34-11.47-32.93-17.22T4638.82,204q-36.6,0-56.61,10.9t-20,26.12q0,15.49,9,23t26.69,11.19q17.64,3.74,65.22,9.62t63.92,9.9q23.67,6,37.89,15.21a63.92,63.92,0,0,1,21.74,22.81,61.12,61.12,0,0,1,7.53,30q0,42.76-49.72,72T4604.81,464a467.42,467.42,0,0,1-58.55-3.59q-28.41-3.59-69.31-13.05l-4.73-4.31q3.44-22.1,4.3-31.28l2.59-48.21h34.43q2.16,32.15,4.31,40.46a131.91,131.91,0,0,0,42.62,23.39q23.23,7.6,53.38,7.61,40.45,0,62-12.92t21.52-31.28q0-12.06-7.1-19.95t-28.63-14.49q-16.79-4-64.36-10.91t-72.1-15.21q-24.54-8.31-38.32-24.82a58.41,58.41,0,0,1-13.77-38.6q0-39.6,44.77-65.86t128.71-26.26m0-8c-28.38,0-53.87,2.26-75.75,6.72-22.21,4.53-41.39,11.48-57,20.63-32.33,19-48.72,43.45-48.72,72.77a66.44,66.44,0,0,0,15.63,43.73c10.1,12.09,24.19,21.27,41.89,27.27,16.73,5.68,41.47,10.91,73.53,15.55,31.08,4.5,52.41,8.11,63.4,10.71,15.86,4.9,22.23,9.29,24.78,12.13,3.4,3.77,5,8.55,5,14.59,0,9.31-5.77,17.3-17.64,24.42-13,7.81-32.5,11.78-57.87,11.78-19.16,0-36.28-2.43-50.89-7.21a124.38,124.38,0,0,1-37.89-20.26c-.89-4.89-2.11-15.16-3.54-36.53l-.5-7.46h-49.51l-.4,7.57-2.58,48.05c-.57,6-2,16.31-4.23,30.64l-.66,4.25,3.19,2.9,4.73,4.31,1.55,1.4,2,.47c27.37,6.34,51,10.78,70.11,13.2a477.94,477.94,0,0,0,59.55,3.65c30.4,0,57.83-2.52,81.55-7.49,24-5,45-12.73,62.2-22.89,35.61-21,53.66-47.52,53.66-78.93a69.18,69.18,0,0,0-8.53-33.85,72.1,72.1,0,0,0-24.4-25.67c-10.16-6.57-23.7-12-40.25-16.25H4729c-11.32-2.78-32.53-6.07-64.85-10.07-31.33-3.87-53-7.07-64.54-9.5-10.44-2.21-18.26-5.41-23.26-9.54-4.13-3.41-6.13-8.9-6.13-16.79,0-10.45,11.93-17,15.85-19.09,12.09-6.59,29.85-9.93,52.78-9.93,16.65,0,31.32,1.82,43.59,5.42a81.35,81.35,0,0,1,28.25,14.17,114.18,114.18,0,0,1,4.14,21.13v.12c.59,5.09,1,8.62,1.32,10.79l.94,6.85,6.91.06,33.15.29,7.55.07.5-7.53c1.7-25.37,3-41.63,3.83-48.33a154.75,154.75,0,0,1,3.69-19.38l.69-2.72-1.15-2.56-1.29-2.87-1.43-3.17-3.29-1.12a296.33,296.33,0,0,0-54.43-12.4,483.32,483.32,0,0,0-65.24-4.09Z"/><path class="b" d="M1471.54,964.16c-32.29-.95-68.75-1.44-108.37-1.44-44.18,0-90.79.49-138.54,1.44l-4.08.08V934.06h4c22,0,37.3-1,45.55-3,3.14-.75,5.46-1.94,6.91-3.55,1.58-2.06,3.49-6.89,3.82-18.22v-.16l1.72-25.54c.28-5.29.43-14,.43-25.85V820.11c0-16.85-.87-37.61-2.58-61.71-1-14.43-2.31-17.76-2.66-18.42-.74-.71-2.28-1.65-5.41-2.35-3.63-.89-14.79-2.07-47.86-2.78l-3.92-.08V705.19l3.55-.41c51.87-5.89,86.41-10.32,102.65-13.16a469.67,469.67,0,0,0,55-13.67l1.16-.35,15.68,4.65-.79,53.23c15.41-10.74,27.62-19.88,36.36-27.21l.08-.06c15.33-12.19,26.61-19.78,34.47-23.21,10.78-4.79,25.08-7.22,42.5-7.22a116.26,116.26,0,0,1,29.87,3.58l3.17.84-2.79,44c-1.3,33.45-2,37.33-2.21,38.61l-.47,2.67-22.69,4.69-1.5-1.32c-6.77-6-13.31-10.16-19.43-12.46a94.26,94.26,0,0,0-33.46-5.77c-16.15,0-30.18,3.35-41.71,9.94-11.19,6.41-17.88,12.82-19.88,19-.59,2.28-1.56,11.51-1.56,47.37v28.7l.86,38.95c.35,18.61,1.47,24.13,2.1,25.77.88,2.27,3.11,4.17,6.63,5.63,2.85,1.2,10.08,2.8,28.36,3.72l39.1,2.54v30Z"/><path d="M1511.26,681.78a112.25,112.25,0,0,1,28.84,3.44L1537.52,726q-1.29,33.28-2.15,38.17l-18.09,3.73q-10.76-9.48-20.66-13.21a98,98,0,0,0-34.87-6q-25.39,0-43.69,10.47t-21.74,21.38q-1.72,6.32-1.72,48.51V857.7l.86,39q.42,22.11,2.37,27.13c1.29,3.34,4.23,6,8.82,7.89s14.49,3.25,29.7,4l35.3,2.29v22.1q-48.64-1.44-108.48-1.44-66.74,0-138.61,1.44v-22.1q33.57,0,46.49-3.16,6-1.42,9-4.87,4.29-5.46,4.73-20.67l1.72-25.54q.43-8,.44-26.12V820.11q0-25.54-2.59-62-1.29-18.36-3.66-20.81t-7.53-3.59q-8.17-2-48.64-2.87V708.76q78.35-8.89,102.88-13.21A472,472,0,0,0,1383,681.78l11.63,3.44-.86,58q28-19.23,43-31.86,22.38-17.79,33.58-22.67,15.5-6.88,40.9-6.89m-128.32-8.35-2.3.7a466,466,0,0,1-54.58,13.55c-16.17,2.83-50.62,7.25-102.41,13.13l-7.09.8v37.08l7.82.16c34.43.74,44.17,2,46.92,2.64l.08,0h.08a12.32,12.32,0,0,1,2.93,1c.43,1.56,1.29,5.78,2,16.18,1.7,24,2.57,44.67,2.57,61.43V857.7c0,11.73-.14,20.35-.42,25.64l-1.72,25.48v.31c-.32,11-2.17,14.73-2.9,15.78a9.93,9.93,0,0,1-4.73,2.21h0c-7.94,2-22.94,2.93-44.59,2.93h-8v38.26l8.15-.16c47.7-.95,94.28-1.44,138.46-1.44,39.59,0,76,.49,108.25,1.44l8.23.24V930.56l-7.48-.48-35.3-2.3h-.12c-19.33-1-25.33-2.71-27-3.42s-3.86-1.87-4.44-3.38c-.24-.64-1.46-4.8-1.83-24.4l-.86-39V829c0-37,1-44.7,1.4-46.27,1.22-3.63,5.36-9.42,18-16.67,10.92-6.25,24.28-9.42,39.72-9.42a90.17,90.17,0,0,1,32,5.51c5.67,2.14,11.8,6.08,18.21,11.72l3,2.64,3.9-.81L1537,772l5.32-1.1.94-5.35c.41-2.33,1.09-8.92,2.27-39.15l2.57-40.65.42-6.55-6.34-1.69a120.62,120.62,0,0,0-30.9-3.71c-18,0-32.81,2.54-44.12,7.56-8.19,3.58-19.74,11.34-35.33,23.74l-.09.06-.07.07c-7.42,6.21-17.36,13.75-29.68,22.49l.63-42.36.09-6.06-5.82-1.73-11.62-3.44-2.31-.68Z"/><path class="b" d="M1829.13,974.2c-28.54,0-54.08-2.24-75.92-6.68s-40.93-10.64-56.52-18.42a168.76,168.76,0,0,1-41.44-28.81,102.29,102.29,0,0,1-26.19-40,145.86,145.86,0,0,1-8-49c0-25.59,5.21-48.8,15.5-69,7.16-14.32,15.73-24.88,25.45-31.36,6-4,20.84-11.14,45.39-21.86,24.16-10.54,42-17.55,53-20.83,20.38-6,44.66-9.07,72.17-9.07,38.82,0,71.22,5.52,96.3,16.41,25.34,11,43.55,25.34,54.12,42.62s15.87,38.29,15.87,62.64a139.89,139.89,0,0,1-.88,16l-.33,2.86-2.81.6c-7.25,1.55-18.36,3.3-33,5.22-19.82,2.53-32.89,3.85-40,4-21.54,1.15-50.27,1.82-85.37,2s-54.68.38-58.37.57-8,.29-12.68.29h-24c3.17,26.81,16.62,48.43,40,64.29,25,17,56.43,25.57,93.32,25.57a262.11,262.11,0,0,0,44.52-3.52c13.5-2.35,31.56-7.27,53.66-14.64l2-.67,15,11.64-21.71,32.23-1.13.46a375.88,375.88,0,0,1-73.54,21.47C1874.72,972.54,1853.05,974.2,1829.13,974.2Zm-91.24-180.7c17,1.48,44.24,2.23,80.91,2.23,23.28,0,43.23-.75,59.38-2.22.51-27.2-5.3-46.5-17.3-57.4-12.91-11.29-30-17-50.69-17-21.3,0-39.1,6-52.92,18C1744,748.46,1737.46,767.45,1737.89,793.5Z"/><path d="M1832.57,683.21q57.69,0,94.71,16.08t52.3,41q15.29,25,15.28,60.55a133.92,133.92,0,0,1-.86,15.5q-10.76,2.29-32.71,5.16-29.28,3.74-39.61,4-32.28,1.73-85.23,2t-58.55.57c-3.73.2-7.9.29-12.48.29H1737q3.45,45.35,42.19,71.61t95.57,26.25a265,265,0,0,0,45.2-3.58q20.67-3.59,54.24-14.78l10.33,8-18.94,28.13a371,371,0,0,1-72.75,21.24q-28,4.88-63.71,4.87-42.62,0-75.12-6.6t-55.53-18.08A163.86,163.86,0,0,1,1658,917.4a98,98,0,0,1-25.18-38.46,141.27,141.27,0,0,1-7.75-47.64q0-37.59,15.07-67.15,10.32-20.67,24.1-29.85,8.61-5.74,44.77-21.53t52.52-20.66q30.14-8.9,71-8.9M1818.8,799.73q37.88,0,63.28-2.58,1.71-45.63-18.51-64-20.67-18.07-53.38-18.08-33.59,0-55.54,18.94-22.38,19.23-20.66,63.14,25.4,2.58,84.81,2.58m13.77-124.52c-27.9,0-52.56,3.11-73.29,9.23-11.34,3.38-28.81,10.25-53.46,21s-39.82,18.08-46,22.2c-10.3,6.87-19.32,17.94-26.8,32.89-10.57,20.74-15.93,44.55-15.93,70.77a149.91,149.91,0,0,0,8.21,50.32,106.12,106.12,0,0,0,27.2,41.56,172.24,172.24,0,0,0,42.42,29.5c15.9,7.93,35.25,14.25,57.51,18.76,22.09,4.49,47.9,6.76,76.71,6.76,24.15,0,46-1.68,65.08-5h.08a380.56,380.56,0,0,0,74.31-21.69l2.26-.92,1.37-2,18.94-28.13,4.17-6.19-5.9-4.59-10.33-8-3.38-2.63-4.06,1.36c-21.91,7.3-39.77,12.17-53.08,14.49a258,258,0,0,1-43.83,3.46c-36.08,0-66.72-8.37-91.08-24.88-21.4-14.5-33.79-33.2-37.68-57h19.42c4.72,0,9.06-.1,12.89-.3,2.49-.12,14.61-.32,58.18-.56,35.15-.19,63.92-.87,85.52-2,7.22-.21,20.4-1.55,40.29-4.08,14.8-1.93,26-3.71,33.38-5.28l5.61-1.2.66-5.71a143.36,143.36,0,0,0,.91-16.41c0-25.1-5.53-46.88-16.45-64.73s-29.84-32.87-56-44.2c-25.58-11.11-58.52-16.74-97.89-16.74Zm-90.7,114.6c.22-22.94,6.25-39.64,18-49.73,13.27-11.45,29.72-17,50.32-17,20,0,35.68,5.25,48,16,10.56,9.63,15.92,26.67,16,50.72-15.36,1.25-34,1.89-55.41,1.89-34,0-59.87-.64-76.93-1.92Z"/><path class="b" d="M2204.25,971.62c-32,0-57.42-6.42-75.67-19.08-18.71-13-28.2-31.85-28.2-56.09,0-16.36,4.27-30,12.7-40.66,8.21-10.34,17.19-18.09,26.7-23s23.45-9.45,42.9-14C2227,808.33,2276,800,2328.57,793.87c-.2-19.9-6.65-34.74-19.65-45.27-14.1-11.21-36.14-16.9-65.49-16.9a187.64,187.64,0,0,0-34.56,3.09,79.58,79.58,0,0,0-15.23,5l-18.81,30.14-35.52-5.23,3-43.1,2.18-1c21.22-9.56,41.73-18,61-25.08,19.6-7.21,33-11.49,41.07-13.08,10.83-2.15,26.15-3.24,45.55-3.24,31.52,0,57.91,3.1,78.41,9.21,20.67,6.16,36.22,13.62,46.23,22.17s17.12,18,20.94,28c3.75,9.8,5.65,22.25,5.65,37,0,6.22-.71,22-2.16,48.15-.85,17.05-1.29,31.18-1.29,42,0,41.6,2.19,55.87,4,60.52l0,.1,0,.11a6.29,6.29,0,0,0,4.35,4.35c2.9,1,12.6,2.42,42.4,3.82l3.81.18v29.46l-4.11-.12c-32.86-.95-62.37-1.44-87.7-1.44-23.92,0-47.47.49-70,1.44l-1.52.06-6.73-5.48,3.39-32.83c-14,6.53-42.41,20.75-84.76,42.4l-.58.3-.65.1A258.8,258.8,0,0,1,2204.25,971.62Zm124.29-145.46c-22.42,3.28-43.26,7.24-62,11.76-19.46,4.69-33,10.45-40.19,17.12-7,6.45-10.34,14.36-10.34,24.19,0,11,4,19.21,12.32,25.16,8.59,6.17,20.18,9.29,34.48,9.29a105.44,105.44,0,0,0,37.53-7.19c11.79-4.49,21.27-10.16,28.21-16.87Z"/><path d="M2292.07,683.21q46.92,0,77.27,9t44.77,21.39q14.43,12.33,19.81,26.4t5.38,35.58q0,9.2-2.16,47.93-1.29,25.83-1.29,42.19,0,51.09,4.31,62a10.34,10.34,0,0,0,6.89,6.89q6.87,2.29,43.47,4v21.52q-49.5-1.44-87.81-1.44-36.16,0-70.17,1.44l-3.88-3.16,3.88-37.59q-15.49,6.6-91.27,45.34a253.22,253.22,0,0,1-37,2.87q-46.92,0-73.4-18.37t-26.47-52.8q0-23.25,11.84-38.17t25.4-22q13.56-7,42-13.63,68-16.07,148.95-25.25.86-34.16-21.1-52-22.38-17.79-68-17.79a191.09,191.09,0,0,0-35.3,3.15,85.9,85.9,0,0,0-17.22,5.74l-18.08,29-29.28-4.3,2.59-37q31.84-14.34,60.7-25t40.46-12.92q15.91-3.15,44.77-3.16M2262.8,917.68a108.77,108.77,0,0,0,39-7.46q19.57-7.46,30.78-18.94V821.54q-36.6,5.18-66.94,12.49t-42,18.08Q2212,862.87,2212,879.23q0,18.36,14,28.41t36.81,10m29.27-242.47c-19.94,0-35.09,1.09-46.32,3.31-8.25,1.64-21.88,6-41.68,13.26-19.31,7.11-39.91,15.58-61.22,25.18l-4.36,2-.33,4.78-2.59,37-.51,7.39,7.33,1.08,29.27,4.31,5.18.76,2.77-4.45L2196.36,743a73.06,73.06,0,0,1,13.28-4.26,183.73,183.73,0,0,1,33.79-3c28.4,0,49.59,5.39,63,16,11.21,9.1,17.14,21.76,18,38.59-51.32,6.07-99.29,14.33-142.7,24.59-19.76,4.59-34.1,9.27-43.82,14.31-10,5.2-19.42,13.3-28,24.09-9,11.34-13.57,25.86-13.57,43.14,0,25.63,10.06,45.61,29.91,59.38,18.94,13.13,45.17,19.79,78,19.79a262.43,262.43,0,0,0,38.19-3l1.31-.2,1.17-.6c36.65-18.74,62.83-31.89,78.22-39.3l-2.44,23.61-.44,4.3,3.35,2.72,3.87,3.16,2.36,1.92,3-.13c22.48-.95,46-1.43,69.84-1.43,25.31,0,54.78.49,87.58,1.44l8.23.23V931l-7.62-.36c-32.05-1.5-39.57-3-41.32-3.61a2.43,2.43,0,0,1-1.83-1.82l-.07-.21-.08-.21c-1.4-3.54-3.75-15.92-3.75-59,0-10.72.43-24.78,1.28-41.79,1.46-26.21,2.17-42,2.17-48.33,0-15.25-2-28.19-5.91-38.44-4.06-10.6-11.49-20.56-22.07-29.62s-26.19-16.57-47.69-23c-20.88-6.22-47.65-9.38-79.56-9.38ZM2262.8,909.68c-13.44,0-24.25-2.87-32.14-8.54-7.27-5.22-10.66-12.18-10.66-21.91,0-8.66,3-15.61,9.06-21.25,6.7-6.2,19.62-11.64,38.41-16.18,17.35-4.18,36.51-7.87,57.07-11v57.09c-6.43,5.83-15,10.82-25.63,14.86a101.39,101.39,0,0,1-36.11,6.93Z"/><path class="b" d="M2736.93,970.19c-33.86,0-61-5.94-80.61-17.64-20.29-12.1-30.58-27.6-30.58-46.06l1.73-94.78V744.9h-7.62c-15.65,0-30.8.29-45,.86l-4.16.16V726.19l41.19-17.39c5.39-2.29,10.64-4.75,15.63-7.34v-36c0-13.55-1.15-30.58-3.41-50.63l-.41-3.58,3.52-.78c27.73-6.1,45.94-10.24,54.12-12.31,1.3-.35,19.64-6,54.46-16.88l1.56-.48,15.19,7.79-4.7,32.57-3,32.9-3.54,45.86h9.89c37.86,0,66.84-1,86.14-2.85l5.31-.52-8.86,46.89-2.94.33a91.58,91.58,0,0,1-9.91.6l-42.24-.58h-37.71v91.86c0,29.11.42,46.47,1.24,51.59l0,.13c1,7.78,5.08,13.72,12.51,18.17,7.79,4.67,19.49,7,34.75,7,2.84.05,5.47.08,7.91.08,6,0,11.16-.17,15.23-.5,5.75-.47,13.27-1.37,22.35-2.7l2.66-.39,10.16,17.35-18.64,12.43c-11.3,7.7-22.45,15.33-33.1,22.64l-.53.36-.62.18a195.32,195.32,0,0,1-30.55,6.59A230.43,230.43,0,0,1,2736.93,970.19Z"/><path d="M2736.93,585.06l11.2,5.74-4.31,29.85-3,33-3.88,50.23h14.21q57.24,0,86.53-2.87l-7.32,38.74a84.68,84.68,0,0,1-9.47.58l-42.19-.58h-41.76v95.86q0,44.19,1.3,52.23,1.71,13.49,14.42,21.09t36.8,7.61q4.18.08,7.91.08,9.26,0,15.55-.51,8.82-.72,22.6-2.73l6.89,11.77-15.49,10.33q-19,12.91-33.15,22.67a191.48,191.48,0,0,1-29.92,6.46,225.83,225.83,0,0,1-26.91,1.58q-49.93,0-78.56-17.08t-28.63-42.62l1.73-94.7V740.9h-11.63q-23.67,0-45.2.86V728.85l38.74-16.36q9.47-4,18.09-8.61V665.42q0-20.65-3.45-51.08,41.74-9.18,54.24-12.34,2.16-.59,54.67-16.94m.75-8.61-3.12,1c-34.24,10.66-52.52,16.32-54.34,16.83-8.18,2.07-26.32,6.19-53.92,12.26l-7,1.55.81,7.17c2.25,19.9,3.4,36.79,3.4,50.18V699c-4.25,2.14-8.68,4.19-13.21,6.11l-38.73,16.36-4.89,2.06v26.55l8.32-.34c14.18-.56,29.28-.85,44.88-.85h3.63v62.81l-1.73,94.64v.14c0,20,11,36.62,32.53,49.49,20.26,12.08,48.07,18.21,82.66,18.21a234,234,0,0,0,27.86-1.64,198.94,198.94,0,0,0,31.2-6.72l1.24-.36,1.06-.72c10.6-7.28,21.73-14.9,33.09-22.64l15.46-10.31,6.28-4.18-3.81-6.51-6.89-11.77-2.72-4.65-5.34.77c-9,1.32-16.44,2.22-22.09,2.67-4,.33-9,.49-14.91.49-2.42,0-5,0-7.75-.08h-.16c-14.53,0-25.53-2.18-32.69-6.47-6.4-3.83-9.76-8.67-10.6-15.24v-.13l0-.13c-.54-3.38-1.19-15-1.19-51V747.75h33.71l42.13.57h.11a92.56,92.56,0,0,0,10.36-.63l5.87-.66,1.1-5.8,7.32-38.75,2-10.49-10.62,1c-19.16,1.87-48,2.83-85.75,2.83h-5.57l3.21-41.56,3-32.73L2756,592l.82-5.66-5.08-2.6-11.2-5.74-2.9-1.5Z"/><path class="b" d="M2918.21,935.11l3.81-.18c41.38-2,51.48-3.82,53.82-4.75a9.59,9.59,0,0,0,6.19-7.37l0-.15c2.76-10.15,4.16-37.12,4.16-80.17,0-73.73-2-95.6-3.69-101-.81-2.69-1.95-4.35-3.4-5-2.91-1.26-14.22-3.43-56.95-3.67l-4,0V703.31l3.72-.27c43-3,75.89-6.3,97.82-9.72a673.89,673.89,0,0,0,71.89-15.69l1.22-.33,14.5,5.24-.37,3.14a735.28,735.28,0,0,0-5.14,83.63v97.58c0,40.69,1.74,53.84,3.19,57.71l.05.15a6.32,6.32,0,0,0,4.36,4.35c7.31,2.35,25.91,3.93,55.23,4.68l3.9.1v30.35l-4.08-.07c-40.71-.76-85.44-1.15-132.94-1.15-41,0-77.73.39-109.25,1.15l-4.1.1Zm122-298.41c-18.8,0-35.19-4.57-48.71-13.58-14-9.36-21.16-21-21.16-34.61,0-13.41,7-25,20.92-34.31,13.38-9,29.85-13.6,49-13.6s35.55,4.57,48.94,13.6c13.88,9.36,20.92,20.9,20.92,34.31,0,13.59-7,25.23-20.92,34.6C3075.72,632.13,3059.26,636.7,3040.17,636.7Z"/><path d="M3040.17,544.6q27.54,0,46.71,12.91t19.15,31q0,18.36-19.15,31.28t-46.71,12.91q-27.12,0-46.49-12.91t-19.38-31.28q0-18.09,19.16-31t46.71-12.91m52.52,136.89,10.33,3.73a734.48,734.48,0,0,0-5.17,84.09v97.58q0,49.93,3.45,59.12a10.35,10.35,0,0,0,6.88,6.89q11.63,3.72,56.4,4.87v22.39q-61.14-1.14-133-1.15-62,0-109.35,1.15V938.92q48.21-2.29,55.11-5a13.6,13.6,0,0,0,8.61-10.19q4.29-15.78,4.3-81.22,0-89.82-3.87-102.16-1.72-5.75-5.6-7.47-8.61-3.72-58.55-4V707q65-4.57,98.16-9.75a678.76,678.76,0,0,0,72.32-15.79M3040.17,536.6c-19.91,0-37.13,4.8-51.18,14.28-15,10.15-22.69,22.81-22.69,37.63,0,15,7.72,27.79,22.94,37.94,14.19,9.46,31.32,14.25,50.93,14.25,19.9,0,37.12-4.8,51.18-14.28,15.05-10.15,22.68-22.9,22.68-37.91,0-14.82-7.63-27.48-22.68-37.63-14.06-9.48-31.28-14.28-51.18-14.28ZM3093,673.11l-2.44.66a669.75,669.75,0,0,1-71.46,15.6c-21.81,3.4-54.61,6.66-97.48,9.68l-7.44.53V736.8l8,.05c44.22.25,53.5,2.57,55.35,3.33a5.93,5.93,0,0,1,1.18,2.45v.09c1.31,4.17,3.51,22.68,3.51,99.77,0,53.18-2.19,72.38-4,79.12l0,.15,0,.15a5.62,5.62,0,0,1-3.76,4.55c-1.4.53-9.34,2.42-52.54,4.47l-7.62.36v37.06l8.2-.19c31.47-.76,68.19-1.15,109.15-1.15,47.5,0,92.2.39,132.87,1.15l8.15.15V930l-7.8-.2c-35.93-.92-49.26-2.94-54.1-4.49a2.4,2.4,0,0,1-1.79-1.8l0-.15-.06-.15c-.88-2.34-2.93-12.53-2.93-56.3V769.31a729.59,729.59,0,0,1,5.12-83.17l.72-6.29-6-2.15L3095.4,674l-2.37-.86Z"/><path class="b" d="M3470,974.2c-65.4,0-116.64-12.65-152.31-37.6-36.13-25.26-54.44-62.9-54.44-111.9,0-33.29,8.68-61.3,25.81-83.25s42.91-38.54,76.82-49.56c33.54-10.89,73.07-16.41,117.47-16.41,66.78,0,118.44,11.91,153.54,35.4,35.6,23.84,53.65,59.23,53.65,105.21,0,26.37-5.23,49.59-15.54,69a130.25,130.25,0,0,1-41.74,47.2,208.08,208.08,0,0,1-54.42,26.77C3546.67,969.12,3510.06,974.2,3470,974.2ZM3472.55,713c-16.55,0-31.19,2.92-43.51,8.67-12,5.61-21.53,15.23-28.26,28.59-6.85,13.62-10.33,34-10.33,60.62,0,49.54,10.89,85.16,32.36,105.9,14.07,13.53,34.57,20.4,60.93,20.4,22.5,0,40.49-5.22,53.48-15.5,17.27-13.67,26-41,26-81.24,0-28.68-3.62-53.58-10.75-74-7-19.92-17.23-33.93-30.52-41.63C3508.46,717,3491.82,713,3472.55,713Z"/><path d="M3483.31,679.48q99.43,0,151.31,34.73t51.88,101.88q0,38.74-15.07,67.16A125.75,125.75,0,0,1,3631,929a203.29,203.29,0,0,1-53.38,26.26Q3529.81,970.21,3470,970.2q-97.29,0-150-36.87T3267.21,824.7q0-48.78,25-80.79t74.91-48.21q49.93-16.22,116.23-16.22m.43,261.74q35.3,0,56-16.36,27.54-21.81,27.55-84.38,0-43.9-11-75.33T3524,721.38q-21.31-12.33-51.44-12.34-25.83,0-45.2,9t-30.14,30.42q-10.77,21.39-10.76,62.42,0,76.35,33.58,108.77,22.38,21.52,63.71,21.53m-.43-269.74c-44.82,0-84.76,5.59-118.7,16.61-34.69,11.26-61.18,28.39-78.74,50.9-17.69,22.67-26.66,51.51-26.66,85.71,0,50.38,18.89,89.13,56.15,115.18,18.3,12.81,40.69,22.52,66.54,28.87,25.51,6.27,55.14,9.45,88.06,9.45,40.51,0,77.52-5.14,110-15.28a212.91,212.91,0,0,0,55.51-27.29,134.41,134.41,0,0,0,43-48.63c10.61-20,16-43.88,16-70.91,0-47.39-18.65-83.91-55.43-108.53-18-12.06-40.37-21.21-66.42-27.19-25.69-5.9-55.75-8.89-89.34-8.89Zm.43,261.74c-25.29,0-44.86-6.49-58.17-19.29-20.65-19.94-31.12-54.6-31.12-103,0-26,3.33-45.76,9.91-58.82,6.4-12.72,15-21.47,26.37-26.77,11.79-5.5,25.85-8.29,41.82-8.29,18.56,0,34.52,3.79,47.43,11.27,12.44,7.2,22.11,20.48,28.74,39.48,7,20,10.53,44.46,10.53,72.69,0,38.95-8.25,65.23-24.51,78.11-12.27,9.71-29.42,14.63-51,14.63Z"/><path class="b" d="M4284.91,964.16c-38.9-1.33-71-2-95.43-2-28.15,0-53,.67-73.79,2l-1.35.09-11-7.32.35-2.49c.56-3.93,2.38-20.08,5.57-49.39l2.14-46.85V835.61c0-32.86-1.87-54.6-5.56-64.63-3.51-9.52-10.92-17.34-22-23.25-11.41-6.07-27-9.14-46.34-9.14s-35.6,3.1-48.18,9.21c-12.36,6-20.16,11.94-23.18,17.64-.6,1.13-2.52,7.67-2.12,44V857.7c0,13.86.57,31.07,1.71,51.15v.1c.33,10.69,1.85,14.38,2.72,15.62a8.55,8.55,0,0,0,3.85,3.2c2.21,1,7.25,2.44,19.23,4,3.22.36,15.32,1.13,35.85,2.27l3.78.21v30l-4.1-.1c-31.23-.76-69.87-1.15-114.84-1.15-52.12,0-93.21.39-122.15,1.15l-4.1.11V934.06h4c22,0,37.29-1,45.54-3,3.14-.75,5.46-1.94,6.91-3.55,1.58-2.06,3.49-6.9,3.82-18.22v-.16l1.72-25.54c.28-5.29.43-14,.43-25.85V820.11c0-16.85-.87-37.61-2.58-61.71-1-14.43-2.3-17.76-2.66-18.42-.74-.71-2.28-1.65-5.41-2.35-3.63-.89-14.79-2.07-47.86-2.78l-3.91-.08V705.19l3.54-.41c51.87-5.89,86.41-10.32,102.65-13.16A469.79,469.79,0,0,0,3947.24,678l1.15-.35,15.64,4.64v42.51l72.87-39,.46-.12a209.14,209.14,0,0,1,24.38-5.12,220.35,220.35,0,0,1,27.43-1.33c30.95,0,54.58,2.38,70.24,7.06s29.32,11.46,40.28,20.06,19,17.94,23.53,27.55,6.85,24.22,6.85,44.33c0,22.12-.29,35.86-.88,42l0,.11a65.85,65.85,0,0,0-.39,7.82l.43,29.51c.27,32,1.05,51.93,2.31,59.37,1.06,6.29,3.06,10.42,5.77,12,1.87,1,7.43,2.93,23.82,3.64,4.88.19,12.81.66,24.2,1.44l3.73.26v30Z"/><path d="M3948.4,681.78l11.63,3.44v46.21l78.35-41.9a201.61,201.61,0,0,1,23.89-5,213.49,213.49,0,0,1,26.9-1.3q46.07,0,69.1,6.89t38.95,19.37q15.93,12.49,22.39,26.12t6.46,42.62q0,32.71-.86,41.61a67.9,67.9,0,0,0-.43,8.32l.43,29.56q.42,48.51,2.36,60t7.75,14.78q5.82,3.31,25.62,4.17,7.31.29,24.1,1.43v22.1q-58.54-2-95.56-2-42.63,0-74,2l-7.75-5.17q.87-6,5.6-49.65l2.15-47.06V835.61q0-50.22-5.81-66t-23.89-25.4q-18.08-9.62-48.22-9.61t-49.93,9.61q-19.82,9.62-25,19.37-3,5.74-2.58,45.92V857.7q0,21,1.72,51.38.42,13.49,3.44,17.79a12.45,12.45,0,0,0,5.6,4.59q5.16,2.29,20.23,4.31,5.17.57,36.16,2.29v22.1Q3980.26,959,3912.24,959q-78.78,0-122.25,1.15v-22.1q33.57,0,46.49-3.16,6-1.42,9-4.87,4.29-5.46,4.73-20.67l1.73-25.54q.42-8,.43-26.12V820.11q0-25.54-2.59-62-1.29-18.36-3.66-20.81t-7.53-3.59q-8.18-2-48.64-2.87V708.76q78.35-8.89,102.88-13.21a472,472,0,0,0,55.53-13.77m0-8.35-2.3.7a466,466,0,0,1-54.58,13.55c-16.17,2.83-50.62,7.25-102.41,13.13l-7.09.8v37.08l7.83.16c34.42.74,44.16,2,46.91,2.64l.08,0h.08a12.15,12.15,0,0,1,2.93,1c.43,1.56,1.29,5.78,2,16.18,1.7,24,2.57,44.67,2.57,61.43V857.7c0,11.73-.14,20.35-.42,25.64l-1.72,25.48v.31c-.32,11-2.17,14.73-2.9,15.78a9.93,9.93,0,0,1-4.73,2.21h-.05c-7.94,2-22.94,2.93-44.59,2.93h-8v38.31l8.21-.21c28.88-.76,69.94-1.15,122-1.15,45,0,83.56.39,114.75,1.15l8.19.2V930.49l-7.55-.42c-20.31-1.12-32.29-1.88-35.64-2.25-12-1.6-16.41-3-17.95-3.67l-.09,0-.09,0a4.38,4.38,0,0,1-2.05-1.7l0,0,0,0c-.06-.1-1.66-2.63-2-13.46v-.2c-1.14-20-1.71-37.13-1.71-50.92V809.4c-.36-33.43,1.19-40.74,1.73-42.24,1.85-3.38,7.07-8.85,21.31-15.76,12-5.85,27.67-8.81,46.44-8.81s33.63,2.92,44.46,8.67c10.35,5.51,16.94,12.41,20.14,21.1,2.43,6.59,5.32,22.92,5.32,63.25v22.48l-2.13,46.64c-3.13,28.77-5,45.31-5.54,49.14l-.71,5,4.2,2.79,7.74,5.17,2.25,1.5,2.7-.18c20.72-1.32,45.47-2,73.54-2,24.39,0,56.45.67,95.29,2l8.27.29V930.59l-7.45-.51c-11.44-.78-19.4-1.25-24.34-1.45-16.56-.72-21-2.57-22-3.12-1.21-.69-2.85-3.45-3.81-9.16-.84-5-1.91-19.19-2.25-58.72l-.43-29.54a60.85,60.85,0,0,1,.36-7.27l0-.12v-.11c.6-6.26.9-20.12.9-42.38,0-20.72-2.37-35.78-7.23-46s-13.12-19.93-24.68-29c-11.36-8.9-25.36-15.88-41.6-20.74s-39.61-7.23-71.39-7.23a220,220,0,0,0-28,1.37,210.47,210.47,0,0,0-24.86,5.21l-.92.24-.83.44L3968,718.08V679.25l-5.73-1.7-11.62-3.44-2.31-.68Z"/><path class="b" d="M4519,974.2a473.89,473.89,0,0,1-59.05-3.61c-19-2.41-42.46-6.83-69.71-13.13l-1-.24-7.1-6.45.33-2.13c2.25-14.49,3.69-24.9,4.26-31l2.79-51.92h42l.25,3.73c1.31,19.6,2.62,32.52,3.89,38.48a128.33,128.33,0,0,0,40.28,21.84c15,4.92,32.56,7.41,52.14,7.41,26.11,0,46.27-4.16,59.93-12.35,13.18-7.9,19.58-17,19.58-27.85,0-7.07-2-12.72-6.07-17.27s-13.2-9.15-26.71-13.31c-11.06-2.63-32.55-6.27-63.88-10.8-31.82-4.61-56.32-9.79-72.82-15.39-17-5.76-30.48-14.52-40.1-26a62.59,62.59,0,0,1-14.7-41.17c0-27.8,15.73-51.12,46.75-69.31,30.33-17.79,74.31-26.81,130.74-26.81a480.07,480.07,0,0,1,64.68,4.05,292.38,292.38,0,0,1,53.69,12.23l1.65.56,2.58,5.74-.35,1.36a160.78,160.78,0,0,0-3.78,19.87c-.84,6.78-2.14,23.11-3.85,48.56l-.25,3.77-40.38-.35-.47-3.43c-.29-2.13-.73-5.73-1.3-10.7a117.71,117.71,0,0,0-4.66-23.12c-8.28-6.89-18.57-12.16-30.59-15.69-12.64-3.7-27.69-5.58-44.72-5.58-23.61,0-42,3.51-54.7,10.42-12.06,6.58-17.93,14-17.93,22.6,0,9.16,2.48,15.66,7.59,19.88,5.49,4.54,13.9,8,25,10.36,11.63,2.46,33.46,5.68,64.88,9.56,31.72,3.92,53.38,7.28,64.39,10,16.17,4.11,29.31,9.4,39.1,15.73A68.22,68.22,0,0,1,4704.35,837a65.28,65.28,0,0,1,8,31.93c0,29.89-17.39,55.28-51.69,75.48C4627.07,964.17,4579.39,974.2,4519,974.2Z"/><path d="M4560.73,680.92a473.24,473.24,0,0,1,64.14,4,286.81,286.81,0,0,1,52.95,12l1.29,2.87a165,165,0,0,0-3.88,20.38q-1.29,10.32-3.87,48.78l-33.15-.28c-.29-2.11-.72-5.64-1.29-10.62a120.74,120.74,0,0,0-5.16-25q-13.35-11.48-32.94-17.22T4553,710.19q-36.6,0-56.61,10.91t-20,26.11q0,15.49,9,23t26.69,11.19q17.66,3.74,65.22,9.62t63.93,9.9q23.67,6,37.88,15.21a64,64,0,0,1,21.74,22.82,61,61,0,0,1,7.53,30q0,42.76-49.72,72T4519,970.2a467.44,467.44,0,0,1-58.55-3.58q-28.41-3.6-69.31-13.06l-4.73-4.31q3.44-22.1,4.3-31.28l2.59-48.21h34.44q2.15,32.15,4.3,40.46a131.64,131.64,0,0,0,42.62,23.39q23.25,7.6,53.38,7.61,40.45,0,62-12.92T4611.52,897q0-12-7.1-19.94t-28.63-14.5q-16.78-4-64.35-10.9t-72.11-15.21q-24.54-8.33-38.31-24.83a58.34,58.34,0,0,1-13.78-38.6q0-39.6,44.77-65.86t128.72-26.26m0-8c-28.39,0-53.88,2.26-75.76,6.72-22.21,4.54-41.39,11.48-57,20.64-32.33,19-48.72,43.44-48.72,72.76a66.39,66.39,0,0,0,15.64,43.73C4405,828.86,4419.06,838,4436.76,844c16.73,5.68,41.47,10.91,73.53,15.55,31.09,4.51,52.41,8.11,63.4,10.72,15.86,4.89,22.23,9.29,24.78,12.12,3.4,3.77,5.05,8.55,5.05,14.59,0,9.31-5.77,17.3-17.64,24.42-13,7.82-32.5,11.78-57.87,11.78-19.15,0-36.28-2.43-50.89-7.21a124.38,124.38,0,0,1-37.89-20.26c-.89-4.89-2.11-15.16-3.54-36.53l-.5-7.46h-49.51l-.4,7.57-2.58,48c-.57,6-2,16.31-4.23,30.64l-.66,4.26,3.19,2.89,4.73,4.31,1.55,1.4,2,.47c27.37,6.34,51,10.78,70.11,13.2A476.15,476.15,0,0,0,4519,978.2c30.4,0,57.84-2.52,81.55-7.48,24-5,44.95-12.74,62.2-22.89,35.61-21,53.66-47.52,53.66-78.93a69.19,69.19,0,0,0-8.53-33.86,72.1,72.1,0,0,0-24.4-25.67c-10.15-6.56-23.7-12-40.25-16.24h-.07c-11.32-2.78-32.53-6.07-64.85-10.07-31.32-3.87-53-7.07-64.54-9.5-10.44-2.2-18.26-5.41-23.26-9.54-4.12-3.4-6.13-8.89-6.13-16.79,0-10.45,11.93-17,15.85-19.09,12.09-6.59,29.85-9.93,52.78-9.93,16.65,0,31.32,1.82,43.59,5.42a81.37,81.37,0,0,1,28.25,14.18,113.1,113.1,0,0,1,4.14,21.12V759c.58,5,1,8.63,1.32,10.8l.94,6.85,6.91.06,33.15.28,7.55.07.5-7.53c1.71-25.37,3-41.63,3.83-48.33a156.58,156.58,0,0,1,3.69-19.38l.7-2.72-1.16-2.55-1.29-2.87-1.43-3.18-3.29-1.12A296.33,296.33,0,0,0,4626,677a484.91,484.91,0,0,0-65.23-4.09Z"/><path class="b" d="M707.5,984c-50,0-95.63-3.48-135.55-10.34S485.17,954.47,432.61,937l-1.73-.57-4.09-9.82.54-1.47c5.81-15.75,10.41-35.88,13.7-59.81,3.87-26.93,6.78-52.78,8.66-76.83l.28-3.69h53.71l.16,3.84c1,23,2.45,42.63,4.45,58.36a243.12,243.12,0,0,0,81.34,51.88c30.36,11.59,69.83,17.47,117.31,17.47,42.9,0,82-6.34,116.26-18.84a252.18,252.18,0,0,0,90.07-56.35c25.59-24.91,45.05-55.17,57.85-90S990.48,675.89,990.48,631c0-54.37-8.78-102.43-26.09-142.85S923.74,413.88,895,387.5s-58.15-46-87.26-58.11C768,313.23,719.14,305,662.45,305,625.09,305,589.29,309,556,316.74S486,338.08,446.73,357.06l-2.35,1.13-18.26-15.53,27.57-55.93,1.23-.61c46.42-22.64,88.72-38.4,125.72-46.82s83.82-12.69,139.1-12.69c78.71,0,149.36,11.68,210,34.7,47.75,18.61,88.78,43.61,122,74.3s59.13,64.44,77.06,100.35c27.22,54.09,41,113.66,41,177.06,0,54.29-10.2,104.32-30.32,148.71s-50.72,84.37-90.93,118.77-89.3,60.52-146,77.69C846,975.32,780.41,984,707.5,984Z"/><path d="M719.74,230.61q117.91,0,208.56,34.44,71.19,27.75,120.68,73.5t76.2,99.2q40.6,80.69,40.6,175.27,0,161.9-119.85,264.44T707.5,980q-75.09,0-134.87-10.28T433.87,933.23l-2.78-6.68Q440,902.39,445,865.9q5.85-40.7,8.68-77.07h46.18q1.47,35.83,4.65,60.1,37.28,36,83.7,53.72t118.74,17.73q130.71,0,209.12-76.33t78.42-213q0-82.77-26.42-144.43t-70.35-102q-43.94-40.35-88.43-58.85Q748.67,301,662.45,301q-56.73,0-107.34,11.82T445,353.45l-13.9-11.82,25.58-51.91q69.52-33.92,124.86-46.52t138.21-12.59m0-8c-55.57,0-102.67,4.31-140,12.79s-79.89,24.35-126.59,47.13l-2.46,1.2-1.21,2.45L423.91,338.1l-2.76,5.59,4.75,4,13.91,11.82,4,3.38,4.69-2.27c39-18.85,75.45-32.31,108.46-40S625.4,309,662.45,309c56.16,0,104.53,8.1,143.79,24.07,28.66,11.92,57.62,31.22,86.06,57.34s51.33,59.41,68.41,99.29S986.48,577.18,986.48,631c0,44.41-6.43,84.4-19.11,118.85-12.59,34.21-31.73,64-56.89,88.46a248.07,248.07,0,0,1-88.65,55.46c-33.81,12.34-72.46,18.6-114.89,18.6-47,0-86-5.79-115.88-17.21a238.7,238.7,0,0,1-79-50.06c-1.9-15.38-3.33-34.4-4.24-56.61l-.32-7.67H446.27l-.57,7.38c-1.87,24-4.78,49.72-8.63,76.55v0c-3.24,23.65-7.78,43.49-13.48,59l-1.09,2.94,1.21,2.9,2.78,6.68,1.4,3.37,3.47,1.15c52.75,17.51,99.82,29.88,139.92,36.78s86,10.4,136.23,10.4c73.3,0,139.32-8.74,196.21-26,57.21-17.33,106.81-43.74,147.42-78.48s71.6-75.21,92-120.16,30.68-95.5,30.68-150.36c0-64-14-124.21-41.45-178.87-18.14-36.32-44.36-70.47-77.92-101.48s-75-56.29-123.21-75.07l0,0h0c-61.08-23.2-132.2-35-211.4-35Z"/><path class="a" d="M651.82,773.39c-78.71,0-149.36-11.68-210-34.7-47.75-18.61-88.78-43.61-122-74.3S260.73,600,242.8,564c-27.22-54.09-41-113.66-41-177.06,0-54.29,10.2-104.32,30.32-148.71S282.82,153.9,323,119.5,412.33,59,469,41.81C525.52,24.68,591.15,16,664.06,16c50,0,95.63,3.48,135.55,10.34S886.39,45.53,939,63l1.73.57,4.09,9.82-.54,1.47c-5.81,15.75-10.41,35.88-13.7,59.81-3.87,26.94-6.78,52.78-8.66,76.83l-.29,3.69h-53.7l-.16-3.83c-1-23-2.45-42.64-4.45-58.36a243,243,0,0,0-81.34-51.89C751.57,89.5,712.1,83.62,664.62,83.62c-42.9,0-82,6.34-116.26,18.84a252.18,252.18,0,0,0-90.07,56.35c-25.59,24.91-45.05,55.17-57.85,89.95S381.08,324.11,381.08,369c0,54.38,8.78,102.44,26.09,142.86s40.65,74.27,69.39,100.65,58.15,46,87.26,58.11C603.53,686.77,652.42,695,709.11,695c37.36,0,73.17-3.94,106.43-11.72s70.07-21.33,109.29-40.3l2.34-1.14,18.27,15.53-27.57,55.93-1.23.6c-46.42,22.66-88.72,38.41-125.72,46.83S707.09,773.39,651.82,773.39Z"/><path d="M664.06,20q75.08,0,134.87,10.28T937.69,66.77l2.78,6.68q-8.9,24.17-13.9,60.65-5.85,40.69-8.68,77.07H871.71q-1.47-35.83-4.65-60.1-37.27-36-83.7-53.72T664.62,79.62Q533.91,79.62,455.5,156T377.08,369q0,82.77,26.42,144.43t70.35,102q43.93,40.35,88.43,58.85Q622.9,699,709.11,699q56.73,0,107.34-11.82t110.12-40.6l13.9,11.82-25.58,51.91Q845.37,744.21,790,756.8T651.82,769.39q-117.92,0-208.56-34.44-71.19-27.75-120.69-73.5t-76.19-99.2q-40.6-80.69-40.6-175.27,0-161.9,119.85-264.44T664.06,20m0-8c-73.3,0-139.32,8.74-196.22,26C410.64,55.31,361,81.72,320.43,116.46s-71.61,75.21-92,120.16S197.78,332.12,197.78,387c0,64,13.95,124.21,41.45,178.87,18.14,36.32,44.36,70.47,77.92,101.48s75,56.29,123.21,75.07l0,0h0c61.08,23.2,132.2,35,211.4,35,55.57,0,102.67-4.31,140-12.79s79.89-24.35,126.59-47.13l2.46-1.2,1.21-2.45,25.58-51.92,2.76-5.59-4.75-4-13.91-11.82-4-3.38-4.69,2.27c-39,18.85-75.45,32.31-108.46,40S746.16,691,709.11,691c-56.16,0-104.54-8.1-143.79-24.07-28.67-11.93-57.62-31.22-86.06-57.34s-51.33-59.41-68.41-99.28S385.08,422.82,385.08,369c0-44.41,6.43-84.4,19.11-118.85,12.59-34.21,31.73-64,56.89-88.46a248.07,248.07,0,0,1,88.65-55.46c33.81-12.34,72.46-18.6,114.89-18.6,47,0,86,5.79,115.88,17.21a238.7,238.7,0,0,1,79,50.06c1.9,15.38,3.32,34.4,4.24,56.61l.32,7.67h61.25l.57-7.38c1.87-24,4.77-49.72,8.63-76.55v-.05c3.24-23.65,7.78-43.49,13.48-59l1.08-2.94-1.2-2.9-2.78-6.68-1.4-3.37-3.47-1.15C887.46,41.67,840.39,29.3,800.29,22.4S714.31,12,664.06,12Z"/><path class="a" d="M857.27,427.55A186.71,186.71,0,1,0,871.9,500,185.51,185.51,0,0,0,857.27,427.55Z"/><path d="M685.78,328.57A171.43,171.43,0,1,0,857.21,500,171.43,171.43,0,0,0,685.78,328.57Zm0,311.11A139.68,139.68,0,1,1,825.46,500,139.68,139.68,0,0,1,685.78,639.68Z"/><path d="M685.78,378A122.05,122.05,0,1,0,807.83,500,122.06,122.06,0,0,0,685.78,378ZM625.13,498.28c0,.55,0,1.1,0,1.65-1,.1-2.13.19-3.43.27-8,.51-15.95,1.11-23.89,2-12.19,1.34-10.78-2.19-10.07-8.54.31-2.77.91-6.43,1.41-9.17,4.23-23.28,2.12-19.05,19-14.11,8.62,2.51,14.39,4.5,21.36,6.77A59.47,59.47,0,0,0,625.13,498.28ZM633,470.05a56.23,56.23,0,0,1-6.44-2.38c-9.4-3.95-19-7.44-29-11.29,10-28.19,43.75-52.32,73.37-54.44,0,11.55-.64,25.57-.38,37.29q0,1.25,0,2.28A60.64,60.64,0,0,0,633,470.05Zm52,69.15a39.14,39.14,0,1,1,39.7-38A39.13,39.13,0,0,1,685,539.2Zm47.31,19.58a12.25,12.25,0,1,1,12.25-12.25A12.25,12.25,0,0,1,732.31,558.78Z"/></svg>