<svg xmlns="http://www.w3.org/2000/svg" viewBox="0 0 5000 1000"><defs><style>.a{fill:#fff;}.b{fill:#4f6fb6;}.c{fill:#bfbfbf;}</style></defs><path class="a" d="M1324.43,470.43c-33,0-59.42-6.72-78.53-20-20.14-14-30.35-34.22-30.35-60.21,0-17.51,4.64-32.23,13.79-43.76,8.65-10.9,18.17-19.09,28.31-24.35,9.79-5.08,24.21-9.79,44.08-14.41,43.15-10.19,90.84-18.43,141.84-24.49-1-16.07-6.84-28.21-17.62-37-13.16-10.46-34.16-15.79-62.35-15.79a183,183,0,0,0-33.64,3,71.64,71.64,0,0,0-12.75,4.07l-19.69,31.57-43.35-6.38,3.54-50.7,4.91-2.22c21.32-9.6,41.94-18.08,61.28-25.2,19.85-7.31,33.53-11.66,41.83-13.3,11.3-2.24,26.52-3.33,46.52-3.33,32,0,58.87,3.17,79.84,9.42,21.64,6.44,37.36,14,48.05,23.16s18.24,19.28,22.36,30c4,10.38,6,23.43,6,38.81,0,6.31-.71,22.15-2.16,48.43-.85,16.94-1.28,31-1.28,41.69,0,44.57,2.57,55.88,3.67,58.68l.1.23.07.24a1.48,1.48,0,0,0,1.2,1.19c1.34.44,8.24,2,41,3.56l8.58.41v39.37l-9.26-.27c-32.82-.95-62.28-1.43-87.56-1.43-23.83,0-47.31.48-69.79,1.43l-3.41.14-10.29-8.38,2.74-26.66c-15.55,7.52-41.18,20.41-76.58,38.51l-1.32.68-1.46.21A263.35,263.35,0,0,1,1324.43,470.43Zm119.28-144.66c-20.09,3.09-38.83,6.71-55.83,10.81-23.2,5.6-33.45,11.76-38,15.94-5.88,5.44-8.74,12.15-8.74,20.52,0,9.38,3.25,16.08,10.23,21.1,7.72,5.54,18.34,8.35,31.56,8.35a100.37,100.37,0,0,0,35.76-6.87c10.3-3.92,18.68-8.75,25-14.37Z"/><path class="b" d="M1412.25,177q46.9,0,77.27,9t44.77,21.38q14.42,12.34,19.8,26.41t5.38,35.58q0,9.19-2.15,47.93-1.29,25.83-1.29,42.19,0,51.07,4.3,62a10.35,10.35,0,0,0,6.89,6.88q6.88,2.31,43.48,4V454q-49.52-1.44-87.82-1.44-36.17,0-70.17,1.44l-3.87-3.16,3.87-37.6q-15.49,6.62-91.26,45.35a253.43,253.43,0,0,1-37,2.87q-46.93,0-73.4-18.37t-26.47-52.8q0-23.25,11.83-38.17t25.4-22q13.56-7,42-13.63,68-16.06,149-25.26.86-34.14-21.09-51.94-22.39-17.79-68-17.79a191.17,191.17,0,0,0-35.3,3.15,86.11,86.11,0,0,0-17.22,5.74l-18.08,29-29.27-4.31,2.58-37q31.86-14.34,60.7-25t40.47-12.91q15.91-3.15,44.77-3.16M1383,411.49a108.69,108.69,0,0,0,39-7.46q19.59-7.45,30.78-18.94V315.35q-36.59,5.16-66.94,12.48t-42,18.09q-11.62,10.75-11.62,27.12,0,18.36,14,28.41t36.8,10M1412.25,159c-20.6,0-36.39,1.15-48.27,3.5-8.77,1.74-22.89,6.21-43.19,13.68-19.53,7.19-40.35,15.76-61.87,25.45l-9.82,4.42-.74,10.74-2.59,37-1.16,16.64,16.5,2.42,29.27,4.31,11.66,1.71,6.23-10,15-24a55.07,55.07,0,0,1,8.43-2.53,173.84,173.84,0,0,1,31.9-2.83c26.06,0,45.15,4.65,56.75,13.83,6.74,5.49,11.08,12.78,13.09,22.07A1268.73,1268.73,0,0,0,1299.65,299c-20.58,4.79-35.68,9.76-46.14,15.18-11.28,5.85-21.78,14.85-31.22,26.75-10.44,13.15-15.73,29.76-15.73,49.36,0,14.25,2.86,27.2,8.52,38.48a77.71,77.71,0,0,0,25.69,29.11c20.64,14.32,48.79,21.58,83.66,21.58a271.44,271.44,0,0,0,39.65-3.07l2.93-.43,2.63-1.35c28.27-14.45,48.06-24.43,61.88-31.28l-.59,5.66-1,9.67,7.53,6.13,3.87,3.16,5.3,4.32,6.83-.29c22.34-.94,45.7-1.42,69.41-1.42,25.2,0,54.57.48,87.3,1.43l18.52.54V415.27l-17.15-.81c-20.66-1-30.54-1.93-35.16-2.54-.93-5.4-2.36-19.08-2.36-52.37,0-10.55.42-24.42,1.26-41.24,1.47-26.41,2.18-42.4,2.18-48.88,0-16.71-2.15-30.45-6.57-42-4.66-12.18-13-23.5-24.91-33.65-11.67-10-28.46-18.15-51.33-25-21.81-6.49-49.54-9.79-82.41-9.79ZM1383,393.49c-11.3,0-20.15-2.24-26.3-6.66-4.61-3.31-6.49-7.31-6.49-13.79,0-5.88,1.8-10.17,5.85-13.92,3-2.83,11.53-8.38,34-13.79,13.8-3.32,28.78-6.34,44.72-9V377a77,77,0,0,1-19.18,10.2,91.44,91.44,0,0,1-32.56,6.28Z"/><path class="a" d="M1948.54,463c-32.25-.95-68.66-1.43-108.22-1.43-44.14,0-90.71.48-138.44,1.43l-9.18.19V422.87h9c21.58,0,36.5-1,44.36-2.9a9.55,9.55,0,0,0,4.24-1.89c.61-.92,2.37-4.48,2.68-15.17v-.17l1.73-25.65c.28-5.27.41-13.88.41-25.58V313.92c0-16.74-.86-37.38-2.56-61.36-.67-9.52-1.44-13.78-1.87-15.55a13.28,13.28,0,0,0-2.3-.69l-.18,0c-2.71-.66-12.37-1.88-46.7-2.61l-8.81-.19V194.53l8-.91c51.76-5.87,86.19-10.29,102.35-13.12A465.38,465.38,0,0,0,1857.49,167l2.59-.79,20.77,6.15-.7,47.21c11.55-8.24,20.94-15.38,28-21.3l.18-.15c15.67-12.46,27.31-20.27,35.58-23.88,11.55-5.13,26.12-7.63,44.5-7.63a121.77,121.77,0,0,1,31.16,3.74l7.13,1.91-3,48c-1.17,29.93-1.83,36.71-2.28,39.27l-1.06,6-28.46,5.87-3.37-3c-6.32-5.56-12.34-9.44-17.9-11.54a89.37,89.37,0,0,0-31.69-5.44c-15.26,0-28.46,3.12-39.22,9.28-13,7.42-16.57,13.18-17.56,16.07-.36,1.61-1.37,9.43-1.37,46v28.6l.85,38.93c.37,19.25,1.55,23.45,1.78,24.1.34.9,1.76,1.92,3.87,2.8,1.65.69,7.52,2.38,26.7,3.34l43.85,2.86v39.8Z"/><path class="b" d="M1988.41,175.59a111.81,111.81,0,0,1,28.84,3.44l-2.58,40.75q-1.29,33.3-2.16,38.17l-18.08,3.73q-10.76-9.47-20.66-13.2a97.73,97.73,0,0,0-34.87-6q-25.41,0-43.69,10.47t-21.74,21.38q-1.73,6.31-1.72,48.5v28.7l.86,39q.42,22.11,2.36,27.12t8.83,7.89q6.89,2.88,29.7,4l35.3,2.3V454q-48.65-1.44-108.48-1.44-66.73,0-138.62,1.44v-22.1q33.58,0,46.5-3.16,6-1.43,9-4.88,4.29-5.44,4.73-20.66l1.72-25.54q.43-8,.43-26.12V313.92q0-25.55-2.58-62-1.29-18.37-3.66-20.81t-7.53-3.59q-8.19-2-48.65-2.87v-22.1q78.35-8.88,102.89-13.2a472,472,0,0,0,55.53-13.77l11.63,3.44-.87,58q28-19.22,43-31.85,22.38-17.79,33.58-22.68,15.49-6.89,40.9-6.88M1860,156.79l-5.18,1.58a455.68,455.68,0,0,1-53.38,13.26c-16,2.8-50.22,7.19-101.81,13.05l-16,1.81v55.79l17.62.38c25.46.54,36.67,1.35,41.49,1.88.24,2.1.51,4.91.78,8.65,1.68,23.77,2.53,44.2,2.53,60.73v37.59c0,11.5-.13,19.93-.39,25L1744,402l0,.35v.35a51.55,51.55,0,0,1-.84,8.75c-4.57,1-15.69,2.46-41.44,2.46h-18v58.46l18.36-.37c47.66-.95,94.17-1.43,138.26-1.43,39.48,0,75.8.48,108,1.43l18.53.54V415L1950,413.91l-35.3-2.3h-.27c-14.74-.74-20.74-1.89-22.82-2.41-.33-2.88-.78-8.51-1-19v-.05l-.85-38.84v-28.5c0-31.36.73-40.78,1.08-43.5.68-1.24,3.44-5.1,13.32-10.76,9.38-5.37,21.08-8.09,34.75-8.09a80.29,80.29,0,0,1,28.5,4.86c4.55,1.71,9.64,5,15.14,9.88l6.74,5.93,8.79-1.82,18.08-3.73,12-2.47,2.12-12c.56-3.16,1.23-10.24,2.4-40.37l2.57-40.53.94-14.73-14.26-3.8a130.34,130.34,0,0,0-33.48-4c-19.63,0-35.38,2.75-48.15,8.41-9.11,4-21,11.95-37.53,25.06l-.18.14-.18.15q-5.5,4.62-13,10.25l.33-22.3.21-13.65-13.09-3.88-11.62-3.44-5.2-1.54Z"/><path class="a" d="M2274.42,470.72c-49.4,0-91-12.33-123.75-36.65-33.55-24.93-50.55-59.46-50.55-102.65,0-23.75,5-45.33,14.79-64.14,7.42-14.42,16.33-25.82,26.46-33.86,4.65-3.76,16-11.14,59.72-31.55,32.81-15.3,55.85-24.54,70.47-28.26s33.5-5.59,56.24-5.59a250.23,250.23,0,0,1,35.54,2.11c7.9,1.17,20.09,3.83,37.1,8.11.39-7.66.58-15.66.58-23.89,0-14.25-.71-31.8-2.13-52.18v-.1c-.53-9.12-1.82-12.17-2.18-12.85a8.44,8.44,0,0,0-3.55-1.17c-1.5-.23-9.55-.85-51.75-1.62l-8.83-.16V47.77l8.41-.55c60.32-4,117-12.29,168.51-24.74l2.73-.66,20,7.7-.45,6.62c-3.47,51.66-5.29,81.11-5.58,90-.85,49.65-1.29,120.15-1.29,209.57v26.69c0,12.71.71,26.62,2.11,41.33l0,.13c.84,10.53,2,13.95,2.41,14.79.48.43,1.8,1.37,5,2.17,1.83.46,9.83,1.71,44.77,3.48l8.54.43v38.3l-99.39-.94-79.92.88-10.95-6.49,2.67-28.09.26-7.21c-15.93,9-32.94,18.84-50.76,29.28a241.6,241.6,0,0,1-28.07,15.13l-.69.31-.73.19C2308.42,469.21,2293.45,470.72,2274.42,470.72Zm33.15-247.39c-18.27,0-33.18,2.9-44.32,8.62-10.67,5.48-18.46,14.21-23.82,26.69-5.66,13.14-8.53,28.65-8.53,46.09,0,32.34,9.94,56.47,30.39,73.78,14.87,12.48,35.52,18.82,61.35,18.82,19.71,0,37.1-3.73,51.69-11.09,18.16-9.16,22.91-15.58,24.12-18.58s3.86-14.93,3.87-64.72l-2.38-48.5c-13.53-10.57-24.68-17.56-33.16-20.79C2348.94,226.8,2329,223.33,2307.57,223.33Z"/><path class="b" d="M2511.62,31.23l11.19,4.31q-5.16,76.91-5.6,90.4-1.29,74.9-1.29,209.79v26.69q0,19.51,2.16,42.18,1.29,16.08,4.3,19.66c2,2.4,5.31,4.16,9.9,5.31s20.09,2.4,46.49,3.73V454l-90.4-.86-77.49.86-3.87-2.3,2.15-22.67.86-23.53q-29.7,16.63-65,37.3a231,231,0,0,1-27.12,14.64q-16.37,4.3-43.48,4.31-71.46,0-118.38-34.87t-46.92-95.43q0-33.57,13.77-60,10.34-20.08,24.11-31,9.9-8,57.9-30.42t68.88-27.7q20.86-5.31,54-5.31a240.23,240.23,0,0,1,34.22,2q13.56,2,46.71,10.62Q2410,173,2410,154.35q0-21.81-2.15-52.81-.87-14.91-4.73-18.65a15.63,15.63,0,0,0-8.61-3.73q-5.61-.87-53-1.72V56.2q91.7-6,170-25m-189,375.1q31.84,0,55.74-12.06T2406.8,371q4.51-11.19,4.52-68.31l-2.59-52.8Q2385.06,231,2370,225.24q-28.41-10.91-62.42-10.91-29.7,0-48.43,9.61t-28,31.14q-9.27,21.53-9.26,49.65,0,52.25,33.58,80.65,25,20.94,67.16,20.95m190.2-393.91-5.45,1.31c-51,12.33-107.18,20.58-167,24.51l-16.82,1.1V95.11l17.67.32c31.24.57,43.39,1,48.1,1.33.21,1.42.41,3.33.55,5.83v.2c1.4,20.18,2.11,37.53,2.11,51.56q0,6.36-.15,12.52c-11.85-2.84-20.83-4.7-27.2-5.64-10-1.49-22.09-2.21-36.87-2.21-23.82,0-42.94,1.92-58.46,5.87-15.17,3.85-38.73,13.28-72.05,28.82-44.06,20.55-56.08,28.27-61.54,32.68-11.12,8.83-20.83,21.2-28.84,36.77-10.48,20.1-15.79,43.07-15.79,68.26,0,46.19,18.23,83.16,54.18,109.87,34.3,25.5,77.75,38.43,129.12,38.43,19.81,0,35.53-1.61,48.06-4.9l1.46-.39,1.37-.62a248.72,248.72,0,0,0,29-15.63c12.41-7.27,24.43-14.23,35.95-20.83l-1.2,12.62L2388,461.34l9.82,5.82,3.88,2.29L2406,472l5,0,77.31-.86,90.21.86,18.17.17V416.19l-17.09-.86c-31.5-1.6-40.26-2.71-42.6-3.14-.32-1.86-.72-4.74-1.06-9V403l0-.13c-1.37-14.43-2.07-28-2.07-40.48V335.73c0-89.33.44-159.76,1.29-209.35.28-8.77,2.15-38.92,5.56-89.64l.89-13.24-12.39-4.76-11.19-4.31-5.24-2ZM2267.1,371.63c-18.3-15.49-27.2-37.37-27.2-66.9,0-16.21,2.62-30.52,7.79-42.53,4.51-10.49,10.94-17.76,19.67-22.24,9.86-5.06,23.39-7.63,40.21-7.63,20.35,0,39.18,3.27,56,9.71,5,1.91,13.65,6.4,27.62,17l2.16,44.12c0,48.75-2.63,59.36-3.23,61.15-.2.37-3.25,5.53-19.81,13.89-13.32,6.72-29.35,10.13-47.64,10.13-23.63,0-42.32-5.62-55.54-16.7Z"/><path class="a" d="M2665.51,424.15l8.58-.41c42.75-2,50.79-3.89,52.24-4.41s2.57-1.45,3.13-3.84l0-.17,0-.17c1.82-6.68,4-25.78,4-78.85,0-77-2.17-95.35-3.46-99.47l0-.11a6.61,6.61,0,0,0-.83-1.9c-2-.76-11.73-2.92-54.75-3.17l-8.95-.05V192.45l8.37-.59c42.84-3,75.61-6.27,97.4-9.67a670.76,670.76,0,0,0,71.35-15.58l2.74-.74,19.71,7.12-.82,7.07a729.92,729.92,0,0,0-5.11,83.06V360.7c0,43.61,2,53.65,2.87,55.95l.06.16.06.17a1.44,1.44,0,0,0,1.19,1.18c4.65,1.5,17.85,3.51,53.78,4.42l8.77.23v40.33l-9.17-.17c-40.67-.77-85.37-1.15-132.85-1.15-40.94,0-77.65.38-109.13,1.14l-9.22.23Zm127-288.64c-19.81,0-37.13-4.85-51.49-14.42-15.51-10.35-23.38-23.39-23.38-38.78,0-15.17,7.78-28.11,23.13-38.45,14.22-9.59,31.62-14.45,51.74-14.45s37.51,4.86,51.73,14.45c15.35,10.35,23.13,23.29,23.13,38.45,0,15.36-7.78,28.4-23.12,38.75C2830,130.65,2812.57,135.51,2792.47,135.51Z"/><path class="b" d="M2792.47,38.41q27.54,0,46.7,12.91t19.16,31q0,18.36-19.16,31.28t-46.7,12.91q-27.12,0-46.5-12.91T2726.6,82.32q0-18.09,19.16-31t46.71-12.91M2845,175.3l10.33,3.73a734.48,734.48,0,0,0-5.17,84.09V360.7q0,49.94,3.45,59.12a10.33,10.33,0,0,0,6.88,6.88q11.63,3.74,56.4,4.88V454q-61.14-1.16-133-1.15-62,0-109.35,1.15V432.73q48.21-2.3,55.11-5a13.6,13.6,0,0,0,8.61-10.19q4.29-15.78,4.3-81.22,0-89.82-3.87-102.17-1.72-5.73-5.6-7.46-8.62-3.72-58.55-4V200.84q65-4.59,98.15-9.76A675.73,675.73,0,0,0,2845,175.3M2792.47,20.41c-21.94,0-41,5.38-56.78,16-22.39,15.09-27.09,33.3-27.09,45.92,0,12.77,4.75,31.16,27.39,46.25,15.86,10.58,34.86,15.94,56.48,15.94,21.93,0,41-5.38,56.76-16,22.4-15.1,27.1-33.46,27.1-46.2s-4.7-30.82-27.09-45.92c-15.74-10.61-34.84-16-56.77-16Zm53.29,136-5.48,1.49a662.57,662.57,0,0,1-70.39,15.37c-21.53,3.35-54,6.58-96.64,9.59l-16.74,1.18v56.48l17.9.1c28.46.17,41.65,1.18,47.59,1.95,1,7.45,2.53,29.44,2.53,93.7,0,50.11-1.92,68.31-3.3,74.92-4.64.73-16.7,2.06-47.57,3.53l-17.15.82v56.84L2675,472c31.39-.76,68-1.14,108.91-1.14,47.43,0,92.08.38,132.68,1.14l18.34.35V414l-17.54-.45c-28.49-.73-41.57-2.16-47.41-3.16-.73-5.39-1.78-18.58-1.78-49.73V263.12a721.19,721.19,0,0,1,5-82l1.63-14.15-13.4-4.84-10.33-3.73-5.34-1.93Z"/><path class="a" d="M3249.86,463c-35.61-1.52-73.29-2.29-112-2.29s-82.94.77-131.45,2.29l-9.28.29V422.48l8.81-.18c33.28-.7,44.59-1.57,48.21-2.18,4.18-.74,5.79-1.65,6.18-1.91a3.47,3.47,0,0,0,.85-1.69l.07-.27.09-.26c.77-2.2,2.68-11.62,3.81-51.53.85-30.17,1.29-57.32,1.29-80.68v-94.7c0-29.6-1-57.07-3-81.65-1.07-12.45-2.18-17.32-2.7-19l-.58-.25-.22-.09-.22-.09c-1.43-.64-5.1-1.84-13.56-2.71-2.9-.25-11.88-.7-38.13-1.4l-8.76-.23V45.22l8.37-.58c35.21-2.46,63.68-5.19,84.62-8.12s49.54-8.14,85.08-15.54l2.58-.53,17.67,6.73-3.83,64.5c-1.43,32.23-2.29,72.36-2.57,119.26v73.42c0,27.59.28,48.42.85,61.9,1.14,34,2,54.77,2.56,61.78.51,6.37,1.25,8.7,1.47,9.26a4.62,4.62,0,0,0,.74.41l.29.14c.57.3,3,1.34,10.27,2.21l.26,0c1.38.19,8.81.69,42.9,1.91l8.67.31v41Z"/><path class="b" d="M3179.21,29.8l9,3.44-3.44,58q-2.16,48.8-2.58,119.68v73.47q0,41.61.86,62.27,1.71,51.38,2.58,62.14t3,13.63a10.09,10.09,0,0,0,4.31,3.44q3.87,2,13.34,3.16,3.89.57,43.91,2v23q-53.8-2.3-112.35-2.3T3006.16,454V431.29q40.89-.85,49.5-2.29c4.31-.76,7.54-1.87,9.69-3.3a11.45,11.45,0,0,0,4.52-6.75q3-8.61,4.31-54.24t1.29-80.93v-94.7q0-45.06-3-82.37-1.72-20.08-4.3-23.82a11.52,11.52,0,0,0-4.74-3.16q-5.16-2.3-16.35-3.44-6.46-.57-38.75-1.44V53.62q53.37-3.73,85.24-8.18t85.66-15.64m1.49-18.7-5.15,1.07c-35.35,7.35-63.78,12.55-84.49,15.44s-49,5.61-84,8l-16.75,1.17V92.38l17.52.47c27.11.72,35.14,1.16,37.52,1.36,3.54.37,6,.78,7.7,1.13.42,2.64.94,6.71,1.47,12.86,1.95,24.32,2.95,51.53,2.95,80.88v94.7c0,23.26-.43,50.32-1.29,80.42-.87,31-2.21,42.71-2.93,46.94l-.63.12c-2.32.37-11.48,1.29-46.84,2l-17.62.37v58.87l18.56-.58c48.42-1.52,92.55-2.29,131.17-2.29s76.1.77,111.59,2.28l18.76.8V413.64l-17.35-.62c-33.42-1.2-40.55-1.69-42-1.85h-.1l-.25,0c-1.95-.24-3.45-.48-4.57-.69-.1-.86-.21-1.88-.31-3.11-.55-6.88-1.4-27.5-2.53-61.3v-.15c-.56-13.35-.84-34.05-.84-61.52V210.94c.28-46.71,1.14-86.69,2.56-118.8l3.43-57.83.79-13.19-12.35-4.7-9-3.44-4.92-1.88Z"/><path class="a" d="M3587.53,463c-35.61-1.52-73.28-2.29-112-2.29s-82.94.77-131.45,2.29l-9.28.29V422.48l8.81-.18c33.28-.7,44.59-1.57,48.21-2.18,4.18-.74,5.79-1.65,6.18-1.91a3.47,3.47,0,0,0,.85-1.69l.07-.27.1-.26c.76-2.2,2.67-11.63,3.8-51.53.86-30.2,1.29-57.34,1.29-80.68v-94.7c0-29.6-1-57.07-3-81.65-1.07-12.44-2.19-17.32-2.71-19a4.68,4.68,0,0,0-.58-.26l-.22-.09-.22-.09c-1.43-.64-5.1-1.84-13.55-2.71-2.9-.25-11.89-.7-38.14-1.4l-8.76-.23V45.22l8.38-.58c35.2-2.46,63.67-5.19,84.61-8.12s49.55-8.14,85.08-15.54l2.58-.53,17.67,6.73-3.83,64.5c-1.43,32.25-2.29,72.38-2.57,119.26v73.42c0,27.6.29,48.42.85,61.89,1.14,34,2,54.78,2.56,61.79.51,6.37,1.25,8.69,1.47,9.26a6.44,6.44,0,0,0,.74.41l.29.14c.57.3,3,1.34,10.27,2.21l.26,0c1.38.19,8.81.69,42.9,1.91l8.68.31v41Z"/><path class="b" d="M3516.89,29.8l9,3.44-3.45,58q-2.16,48.8-2.58,119.68v73.47q0,41.61.86,62.27,1.71,51.38,2.58,62.14t3,13.63a10,10,0,0,0,4.3,3.44q3.87,2,13.35,3.16,3.87.57,43.91,2v23q-53.82-2.3-112.36-2.3T3343.83,454V431.29q40.89-.85,49.51-2.29c4.3-.76,7.53-1.87,9.68-3.3a11.41,11.41,0,0,0,4.52-6.75q3-8.61,4.31-54.24t1.29-80.93v-94.7q0-45.06-3-82.37-1.73-20.08-4.31-23.82a11.55,11.55,0,0,0-4.73-3.16q-5.18-2.3-16.36-3.44-6.46-.57-38.75-1.44V53.62q53.39-3.73,85.24-8.18t85.67-15.64m1.49-18.7-5.16,1.07c-35.35,7.35-63.78,12.55-84.49,15.44s-49,5.61-84,8L3328,36.83V92.38l17.52.47c27.11.72,35.15,1.16,37.52,1.36,3.54.37,6,.78,7.7,1.13.42,2.64.94,6.71,1.47,12.85,2,24.33,2.95,51.54,2.95,80.89v94.7c0,23.26-.43,50.31-1.28,80.42-.88,31-2.22,42.71-2.93,46.94l-.64.12c-2.32.37-11.49,1.29-46.84,2l-17.62.37v58.87l18.57-.58c48.41-1.52,92.54-2.29,131.16-2.29s76.1.77,111.59,2.28l18.77.8V413.64l-17.36-.62c-33.41-1.2-40.54-1.69-42-1.85h-.1l-.25,0c-1.95-.24-3.45-.48-4.57-.69-.1-.86-.21-1.88-.3-3.1-.56-6.88-1.41-27.5-2.54-61.31v-.15c-.56-13.35-.84-34-.84-61.52V210.94c.28-46.71,1.14-86.68,2.56-118.8l3.43-57.83.79-13.19-12.35-4.7-9-3.44-4.91-1.88Z"/><path class="a" d="M3897.61,473c-66.45,0-118.66-12.95-155.19-38.5-37.54-26.25-56.57-65.28-56.57-116,0-34.43,9-63.47,26.87-86.33,17.69-22.67,44.34-39.91,79.22-51.23,34-11.06,74.08-16.66,119-16.66,67.79,0,120.38,12.2,156.32,36.25,37.07,24.82,55.87,61.61,55.87,109.36,0,27.19-5.42,51.2-16.12,71.37a135.31,135.31,0,0,1-43.33,49A213.74,213.74,0,0,1,4008,457.67C3975.33,467.85,3938.21,473,3897.61,473Zm2.58-261.16c-15.81,0-29.74,2.76-41.39,8.2-11.14,5.19-19.61,13.8-25.91,26.31-6.5,12.92-9.8,32.56-9.8,58.37,0,48.12,10.38,82.54,30.83,102.3,13.1,12.6,32.44,19,57.46,19,21.35,0,38.3-4.85,50.38-14.42,16-12.68,24.14-38.69,24.14-77.32,0-28.12-3.53-52.47-10.48-72.36-6.55-18.77-16.07-31.87-28.3-39C3934.37,215.6,3918.58,211.85,3900.19,211.85Z"/><path class="b" d="M3911,173.29q99.45,0,151.32,34.73t51.87,101.88q0,38.75-15.07,67.15a125.93,125.93,0,0,1-40.46,45.78,203.6,203.6,0,0,1-53.38,26.26Q3957.44,464,3897.61,464q-97.29,0-150-36.88t-52.73-108.62q0-48.79,25-80.79t74.9-48.21q49.94-16.22,116.23-16.22m.43,261.74q35.29,0,56-16.36,27.54-21.81,27.55-84.38,0-43.91-11-75.33t-32.29-43.77q-21.3-12.33-51.44-12.34-25.83,0-45.2,9t-30.14,30.42q-10.76,21.39-10.76,62.42,0,76.35,33.58,108.77Q3870.05,435,3911.38,435M3911,155.29c-45.87,0-86.85,5.75-121.79,17.1-36.62,11.89-64.72,30.14-83.54,54.26-19.09,24.47-28.77,55.38-28.77,91.86,0,53.83,20.33,95.34,60.42,123.37,19.32,13.52,42.83,23.74,69.89,30.39,26.29,6.46,56.72,9.74,90.45,9.74,41.51,0,79.53-5.29,113-15.74h0l0,0a222.7,222.7,0,0,0,58.09-28.55,144.26,144.26,0,0,0,46.2-52.2c11.4-21.49,17.17-46.92,17.17-75.59,0-25.15-5-47.76-14.93-67.22-10-19.67-25.13-36.37-44.93-49.62-19-12.75-42.51-22.38-69.75-28.63-26.42-6.06-57.23-9.14-91.58-9.14Zm.43,261.74c-22.93,0-39.69-5.4-51.23-16.5-18.61-18-28.06-50.21-28.06-95.8,0-24.4,3-42.67,8.84-54.32,5.35-10.64,12.44-17.9,21.67-22.21,10.45-4.88,23.1-7.35,37.59-7.35,16.78,0,31.06,3.34,42.42,9.92,10.31,6,18.49,17.45,24.32,34.12,6.61,18.94,10,42.29,10,69.4,0,24.57-3.6,56.7-20.73,70.26-10.45,8.28-25.52,12.48-44.79,12.48Z"/><path class="a" d="M4204.8,209.85l3.48-7c.93-1.87,3.2-5.72,12.54-19,8-11.33,9.77-14.24,10.16-14.94l.07-.18.2-.36c7.94-14.56,15.17-28.82,21.48-42.4a286.5,286.5,0,0,0,13.78-34.18A177.5,177.5,0,0,0,4272.85,63l.92-6.73,6.73-1c4.08-.59,14.68-2,32.39-4.32,22.43-3,36.68-5,42.3-6,10.93-1.87,24.69-4.64,40.86-8.24l3.58-.79,23,14.29-4.39,7.56c-3.7,6.37-9.73,14.72-18.43,25.52-31.65,38.91-51.55,63-60.87,73.69a630.25,630.25,0,0,1-45.82,49.15l-1.65,1.57-64.35,17.48Z"/><path class="b" d="M4398,45.58l12.49,7.75q-5.17,8.89-17.65,24.39-46.93,57.69-60.7,73.47a617.42,617.42,0,0,1-45.2,48.5l-58.12,15.79-12.48-8.61q1.71-3.45,11.84-17.79t11-16.36q12-22.09,21.74-42.91t14.21-35.3a186.56,186.56,0,0,0,6.67-30.28q6-.86,32.29-4.3,34-4.59,42.62-6Q4373.47,51,4398,45.58m3.26-19.16L4394.1,28c-16,3.56-29.61,6.3-40.42,8.14-5.56.93-19.68,2.93-42,5.94-17.73,2.32-28.35,3.74-32.47,4.33l-13.44,1.92-1.84,13.45a169.16,169.16,0,0,1-6,27.36,278,278,0,0,1-13.35,33.06c-6.23,13.4-13.37,27.49-21.22,41.89l-.4.73v0c-.62,1-2.74,4.29-9.48,13.86-9.6,13.62-12,17.73-13.24,20.14l-6.95,14,12.85,8.87,12.48,8.61,6.88,4.74,8.06-2.19,58.12-15.79,4.4-1.19,3.3-3.15a638,638,0,0,0,46.44-49.81c9.42-10.79,29.37-34.95,61-73.83l0,0,0,0c9-11.16,15.27-19.87,19.2-26.64l8.78-15.12L4420,38l-12.48-7.75-6.24-3.87Z"/><path class="a" d="M4604.81,473a478.22,478.22,0,0,1-59.68-3.66c-19.18-2.42-42.8-6.87-70.21-13.22l-2.28-.53-10.06-9.14.75-4.78c2.22-14.31,3.64-24.59,4.21-30.57l3-56.55H4522l.56,8.4c1.4,20.85,2.59,31.07,3.46,36a123.2,123.2,0,0,0,37.28,19.87c14.52,4.75,31.54,7.16,50.59,7.16,25.19,0,44.49-3.92,57.36-11.64,11.54-6.92,17.15-14.63,17.15-23.56,0-5.79-1.57-10.34-4.79-13.93-2-2.24-7.86-6.74-24.31-11.82-11-2.6-32.25-6.2-63.28-10.69-32.12-4.65-56.92-9.9-73.71-15.59-17.87-6.06-32.11-15.34-42.33-27.58a67.44,67.44,0,0,1-15.86-44.37c0-29.7,16.56-54.48,49.22-73.63,31.1-18.24,75.94-27.49,133.26-27.49a485.24,485.24,0,0,1,65.37,4.1,296.58,296.58,0,0,1,54.62,12.44l3.71,1.26,4.19,9.32-.79,3.06a154.82,154.82,0,0,0-3.66,19.25c-.83,6.67-2.12,22.92-3.82,48.28l-.57,8.46-49.41-.42-1.06-7.71c-.31-2.19-.74-5.73-1.32-10.82l0-.13a112.3,112.3,0,0,0-4-20.64,81,81,0,0,0-27.66-13.81c-12.18-3.56-26.76-5.37-43.31-5.37-22.76,0-40.36,3.3-52.31,9.81-3.79,2.06-15.32,8.35-15.32,18.21,0,7.58,1.89,12.81,5.77,16,4.87,4,12.54,7.16,22.82,9.33,11.48,2.43,33.17,5.62,64.46,9.48,32.36,4,53.61,7.31,65,10.1,16.73,4.26,30.37,9.77,40.62,16.39a72.93,72.93,0,0,1,24.73,26,70.15,70.15,0,0,1,8.66,34.34c0,31.79-18.22,58.64-54.15,79.79C4714.67,462.74,4666.13,473,4604.81,473Z"/><path class="b" d="M4646.56,174.73a475,475,0,0,1,64.15,4,286.79,286.79,0,0,1,52.95,12.06l1.29,2.87a163.32,163.32,0,0,0-3.88,20.37q-1.29,10.34-3.87,48.79l-33.15-.29q-.44-3.15-1.29-10.61a120,120,0,0,0-5.17-25q-13.34-11.47-32.93-17.22T4638.82,204q-36.6,0-56.61,10.9t-20,26.12q0,15.49,9,23t26.69,11.19q17.64,3.74,65.22,9.62t63.92,9.9q23.67,6,37.89,15.21a63.92,63.92,0,0,1,21.74,22.81,61.12,61.12,0,0,1,7.53,30q0,42.76-49.72,72T4604.81,464a467.42,467.42,0,0,1-58.55-3.59q-28.41-3.59-69.31-13.05l-4.73-4.31q3.44-22.1,4.3-31.28l2.59-48.21h34.43q2.16,32.15,4.31,40.46a131.91,131.91,0,0,0,42.62,23.39q23.23,7.6,53.38,7.61,40.45,0,62-12.92t21.52-31.28q0-12.06-7.1-19.95t-28.63-14.49q-16.79-4-64.36-10.91t-72.1-15.21q-24.54-8.31-38.32-24.82a58.41,58.41,0,0,1-13.77-38.6q0-39.6,44.77-65.86t128.71-26.26m0-18c-29.05,0-55.21,2.33-77.75,6.92-23.29,4.76-43.5,12.09-60.07,21.81-17.17,10.07-30.42,21.85-39.36,35a81.13,81.13,0,0,0-14.3,46.39c0,19,6,35.87,18,50.14,10.33,12.38,24.27,22,41.48,28.58H4462l-.91,17-2.56,47.84c-.57,5.83-2,15.87-4.14,29.85l-1.49,9.57,7.17,6.52,4.74,4.3,3.47,3.16,4.57,1.06c27.7,6.42,51.63,10.92,71.11,13.38a486.77,486.77,0,0,0,60.81,3.73c31.08,0,59.21-2.59,83.6-7.7,25.09-5.26,47-13.35,65.22-24.06,18.77-11.05,33.23-23.81,43-37.93a85.83,85.83,0,0,0,15.62-49.62,79.17,79.17,0,0,0-9.77-38.69,82.15,82.15,0,0,0-27.73-29.23c-8.54-5.52-18.76-10.16-31-14.06l13.35.11,17,.15,1.14-16.94c1.69-25.18,3-41.25,3.77-47.76a147.87,147.87,0,0,1,3.45-18.13L4784,192l-2.59-5.76-1.29-2.87-3.21-7.14-7.42-2.52a306.84,306.84,0,0,0-56.28-12.84,493.64,493.64,0,0,0-66.6-4.18Zm60.71,115.94c-11.12-1.75-25-3.66-41.92-5.75-31.05-3.83-52.48-7-63.71-9.36-11-2.32-16.38-5.34-19-7.46-2.07-1.71-2.5-5.88-2.5-9.08,0-1.06.77-4.93,10.63-10.31,10.61-5.78,26.76-8.71,48-8.71,15.7,0,29.42,1.69,40.78,5a73.92,73.92,0,0,1,22.34,10.52,104.47,104.47,0,0,1,2.91,16.19v.13l0,.13c.59,5.17,1,8.77,1.34,11l1.05,7.67ZM4534.32,394c-.7-5.17-1.67-14.58-2.82-31.65l-.77-11.56c16.36,4.54,37.44,8.66,64,12.5,30.5,4.41,51.42,7.94,62.2,10.47,15.84,4.92,19.61,8.73,20,9.16,1.15,1.28,2.48,3.34,2.48,7.9,0,2,0,8.17-12.78,15.85-11.45,6.86-29.19,10.35-52.73,10.35-18.1,0-34.17-2.26-47.78-6.72a113.78,113.78,0,0,1-31.75-16.3Z"/><path class="c" d="M1471.39,969.16c-32.24-.95-68.65-1.44-108.22-1.44-44.15,0-90.73.49-138.44,1.44l-9.18.18V929.06h9c21.58,0,36.5-1,44.36-2.9a9.39,9.39,0,0,0,4.24-1.89c.61-.91,2.37-4.47,2.68-15.16v-.18l1.73-25.65c.28-5.27.42-13.87.42-25.58V820.11c0-16.73-.87-37.38-2.56-61.36-.67-9.52-1.45-13.78-1.88-15.54a13.09,13.09,0,0,0-2.3-.7l-.18,0c-2.7-.67-12.36-1.89-46.7-2.62l-8.81-.18V700.72l8-.91c51.77-5.87,86.21-10.29,102.35-13.12a463.38,463.38,0,0,0,54.45-13.52l2.59-.79,20.77,6.15-.7,47.21c11.55-8.24,20.94-15.38,28-21.3l.18-.15c15.68-12.46,27.31-20.27,35.58-23.87,11.55-5.13,26.12-7.64,44.5-7.64a121.31,121.31,0,0,1,31.16,3.75l7.13,1.9-3,48c-1.17,29.94-1.83,36.71-2.28,39.27l-1.06,6-28.46,5.88-3.37-3c-6.32-5.56-12.34-9.44-17.89-11.53a89.24,89.24,0,0,0-31.7-5.45c-15.26,0-28.46,3.12-39.22,9.28-13,7.42-16.57,13.18-17.56,16.08-.36,1.6-1.37,9.41-1.37,46v28.6l.86,38.94c.36,19.24,1.54,23.44,1.77,24.09.34.9,1.76,1.93,3.88,2.81,1.64.68,7.51,2.38,26.69,3.34l43.85,2.85v39.8Z"/><path class="b" d="M1511.26,681.78a112.25,112.25,0,0,1,28.84,3.44L1537.52,726q-1.29,33.28-2.15,38.17l-18.09,3.73q-10.76-9.48-20.66-13.21a98,98,0,0,0-34.87-6q-25.39,0-43.69,10.47t-21.74,21.38q-1.72,6.32-1.72,48.51V857.7l.86,39q.42,22.11,2.37,27.13c1.29,3.34,4.23,6,8.82,7.89s14.49,3.25,29.7,4l35.3,2.29v22.1q-48.64-1.44-108.48-1.44-66.74,0-138.61,1.44v-22.1q33.57,0,46.49-3.16,6-1.42,9-4.87,4.29-5.46,4.73-20.67l1.72-25.54q.43-8,.44-26.12V820.11q0-25.54-2.59-62-1.29-18.36-3.66-20.81t-7.53-3.59q-8.17-2-48.64-2.87V708.76q78.35-8.89,102.88-13.21A472,472,0,0,0,1383,681.78l11.63,3.44-.86,58q28-19.23,43-31.86,22.38-17.79,33.58-22.67,15.5-6.88,40.9-6.89M1382.89,663l-5.18,1.59a457.69,457.69,0,0,1-53.38,13.26c-16,2.8-50.22,7.19-101.8,13l-16,1.81v55.8l17.61.37c25.46.54,36.67,1.36,41.49,1.88.24,2.1.51,4.92.78,8.65,1.68,23.78,2.54,44.2,2.54,60.73V857.7c0,11.5-.14,19.93-.4,25l-1.72,25.4,0,.35v.35a51.42,51.42,0,0,1-.84,8.75c-4.57,1-15.69,2.46-41.43,2.46h-18v58.46l18.35-.36c47.63-.95,94.15-1.44,138.26-1.44,39.49,0,75.81.48,107.95,1.43l18.53.55V921.19l-16.83-1.09-35.3-2.3h-.27c-14.74-.74-20.73-1.88-22.82-2.41-.33-2.88-.77-8.51-1-19v0l-.85-38.83V829c0-31.37.73-40.79,1.09-43.51.67-1.23,3.43-5.1,13.31-10.76,9.38-5.37,21.08-8.09,34.75-8.09a80.25,80.25,0,0,1,28.5,4.86c4.55,1.72,9.64,5,15.15,9.88l6.73,5.93,8.79-1.82,18.08-3.73,12-2.47,2.12-12c.56-3.16,1.24-10.24,2.41-40.37l2.56-40.53.94-14.73-14.26-3.8a130.34,130.34,0,0,0-33.48-4.05c-19.63,0-35.38,2.75-48.15,8.41-9.11,4-21,11.95-37.53,25.06l-.18.14-.18.15q-5.51,4.62-13,10.25l.33-22.3.21-13.65L1399.71,668l-11.62-3.44-5.2-1.54Z"/><path class="c" d="M1829.13,979.2c-28.87,0-54.75-2.28-76.91-6.78-22.34-4.53-41.78-10.87-57.76-18.84a174,174,0,0,1-42.67-29.67,107.32,107.32,0,0,1-27.44-42,150.86,150.86,0,0,1-8.27-50.65c0-26.39,5.4-50.36,16.05-71.24,7.53-15.07,16.67-26.28,27.13-33.25,6.23-4.16,21.33-11.45,46.16-22.28,24.68-10.78,42.2-17.66,53.55-21,20.85-6.16,45.61-9.28,73.6-9.28,39.51,0,72.58,5.66,98.29,16.82,26.3,11.42,45.27,26.42,56.4,44.6,11,18,16.6,40,16.6,65.25a148,148,0,0,1-.91,16.53l-.74,6.42-6.33,1.35c-7.48,1.6-18.42,3.33-33.43,5.29-19.94,2.54-33.15,3.88-40.4,4.08-21.62,1.15-50.41,1.83-85.56,2-43.54.24-55.65.44-58.13.56-3.86.2-8.21.3-12.94.3h-18.23c4,22.94,16.24,41.05,37,55.15,24.19,16.4,54.65,24.71,90.52,24.71a257.13,257.13,0,0,0,43.66-3.45c13.26-2.3,31.07-7.16,52.94-14.45l4.56-1.52L1996.69,914l-25.17,37.37-2.54,1a381.26,381.26,0,0,1-74.51,21.76C1875.29,977.52,1853.34,979.2,1829.13,979.2Zm-86.24-190.32c17,1.23,42.5,1.85,75.91,1.85,21,0,39.26-.61,54.41-1.82-.19-23.25-5.43-39.73-15.63-49-12.19-10.63-27.69-15.8-47.39-15.8-20.35,0-36.59,5.48-49.66,16.76C1749.17,750.59,1743.25,766.73,1742.89,788.88Z"/><path class="b" d="M1832.57,683.21q57.69,0,94.71,16.08t52.3,41q15.29,25,15.28,60.55a133.92,133.92,0,0,1-.86,15.5q-10.76,2.29-32.71,5.16-29.28,3.74-39.61,4-32.28,1.73-85.23,2t-58.55.57c-3.73.2-7.9.29-12.48.29H1737q3.45,45.35,42.19,71.61t95.57,26.25a265,265,0,0,0,45.2-3.58q20.67-3.59,54.24-14.78l10.33,8-18.94,28.13a371,371,0,0,1-72.75,21.24q-28,4.88-63.71,4.87-42.62,0-75.12-6.6t-55.53-18.08A163.86,163.86,0,0,1,1658,917.4a98,98,0,0,1-25.18-38.46,141.27,141.27,0,0,1-7.75-47.64q0-37.59,15.07-67.15,10.32-20.67,24.1-29.85,8.61-5.74,44.77-21.53t52.52-20.66q30.14-8.9,71-8.9M1818.8,799.73q37.88,0,63.28-2.58,1.71-45.63-18.51-64-20.67-18.07-53.38-18.08-33.59,0-55.54,18.94-22.38,19.23-20.66,63.14,25.4,2.58,84.81,2.58m13.77-134.52c-28.86,0-54.47,3.25-76.12,9.64h0c-11.71,3.49-29.56,10.5-54.58,21.42-33.73,14.72-43.29,20.2-47.55,23-11.77,7.84-21.92,20.2-30.19,36.71-11.28,22.15-17,47.47-17,75.27a159.72,159.72,0,0,0,8.79,53.67,116.3,116.3,0,0,0,29.71,45.45,182.6,182.6,0,0,0,44.87,31.21c16.68,8.32,36.86,14.92,60,19.61,22.75,4.62,49.23,7,78.7,7,24.72,0,47.2-1.73,66.8-5.14l.08,0h.09a391,391,0,0,0,76.27-22.27l5.09-2.06,3.06-4.56L1999.46,926l9.39-13.95-13.27-10.32-10.33-8-7.6-5.92-9.14,3.05c-21.44,7.15-38.81,11.9-51.63,14.12a247.25,247.25,0,0,1-42.12,3.32c-34,0-62.8-7.79-85.47-23.15-15.31-10.38-25.42-23.14-30.57-38.71h6.7c4.89,0,9.4-.1,13.41-.31,1.94-.1,12.05-.3,57.71-.55,35.24-.19,64.13-.87,85.88-2,7.58-.23,21-1.59,41.14-4.15h.06c15.25-2,26.42-3.76,34.14-5.41l12.65-2.7,1.48-12.85a154.06,154.06,0,0,0,1-17.55c0-27-6-50.5-17.92-70-12.12-19.78-32.47-36-60.49-48.15-26.85-11.66-61.13-17.57-101.88-17.57Zm-80.22,115.24c1.44-15,6.14-26,14-32.78,11.4-9.83,25.71-14.6,43.81-14.6,17.39,0,30.93,4.42,41.39,13.51,8.11,7.46,11.32,20.8,12.28,34-13.06.79-28.15,1.19-45.06,1.19-27.86,0-50.11-.43-66.45-1.28Z"/><path class="c" d="M2204.25,976.62c-33,0-59.42-6.72-78.52-20-20.14-14-30.35-34.22-30.35-60.2,0-17.51,4.64-32.24,13.79-43.77,8.64-10.89,18.17-19.09,28.3-24.35,9.8-5.07,24.22-9.79,44.08-14.41,43.15-10.19,90.84-18.42,141.85-24.48-1-16.08-6.84-28.22-17.62-37-13.16-10.45-34.16-15.78-62.35-15.78a183,183,0,0,0-33.64,3,70.46,70.46,0,0,0-12.75,4.08l-19.69,31.56L2134,769l3.53-50.71,4.91-2.21c21.33-9.61,41.95-18.09,61.29-25.21,19.85-7.31,33.53-11.66,41.82-13.3,11.3-2.24,26.52-3.33,46.52-3.33,32,0,58.87,3.17,79.84,9.42,21.64,6.44,37.36,14,48.05,23.16s18.24,19.28,22.36,30c4,10.37,6,23.43,6,38.8,0,6.31-.71,22.15-2.17,48.43-.85,16.94-1.28,31-1.28,41.69,0,44.57,2.57,55.88,3.68,58.68l.09.24.08.24a1.47,1.47,0,0,0,1.19,1.18c1.34.45,8.24,2,41.06,3.56l8.57.41v39.37l-9.26-.26c-32.81-.95-62.26-1.44-87.55-1.44-23.85,0-47.33.49-69.79,1.43l-3.42.14-10.29-8.38,2.75-26.66c-15.56,7.52-41.19,20.41-76.59,38.51l-1.32.68-1.46.21A263.14,263.14,0,0,1,2204.25,976.62ZM2323.54,832c-20.1,3.08-38.84,6.71-55.83,10.81-23.2,5.59-33.46,11.75-38,15.93-5.88,5.45-8.74,12.16-8.74,20.52,0,9.38,3.25,16.09,10.24,21.1,7.72,5.54,18.33,8.35,31.56,8.35a100.31,100.31,0,0,0,35.75-6.87c10.3-3.92,18.69-8.74,25-14.37Z"/><path class="b" d="M2292.07,683.21q46.92,0,77.27,9t44.77,21.39q14.43,12.33,19.81,26.4t5.38,35.58q0,9.2-2.16,47.93-1.29,25.83-1.29,42.19,0,51.09,4.31,62a10.34,10.34,0,0,0,6.89,6.89q6.87,2.29,43.47,4v21.52q-49.5-1.44-87.81-1.44-36.16,0-70.17,1.44l-3.88-3.16,3.88-37.59q-15.49,6.6-91.27,45.34a253.22,253.22,0,0,1-37,2.87q-46.92,0-73.4-18.37t-26.47-52.8q0-23.25,11.84-38.17t25.4-22q13.56-7,42-13.63,68-16.07,148.95-25.25.86-34.16-21.1-52-22.38-17.79-68-17.79a191.09,191.09,0,0,0-35.3,3.15,85.9,85.9,0,0,0-17.22,5.74l-18.08,29-29.28-4.3,2.59-37q31.84-14.34,60.7-25t40.46-12.92q15.91-3.15,44.77-3.16M2262.8,917.68a108.77,108.77,0,0,0,39-7.46q19.57-7.46,30.78-18.94V821.54q-36.6,5.18-66.94,12.49t-42,18.08Q2212,862.87,2212,879.23q0,18.36,14,28.41t36.81,10m29.27-252.47c-20.6,0-36.38,1.15-48.27,3.5-8.76,1.74-22.89,6.21-43.18,13.68-19.54,7.2-40.36,15.76-61.88,25.45l-9.81,4.42-.75,10.74-2.58,37-1.16,16.64,16.5,2.42,29.27,4.31,11.65,1.71,6.24-10,15-24.05a55.88,55.88,0,0,1,8.43-2.53,173.76,173.76,0,0,1,31.9-2.83c26.06,0,45.15,4.65,56.75,13.83,6.74,5.49,11.07,12.78,13.08,22.08a1271,1271,0,0,0-133.77,23.55c-20.59,4.79-35.69,9.76-46.16,15.18-11.27,5.85-21.77,14.85-31.21,26.75-10.44,13.16-15.74,29.76-15.74,49.36,0,14.25,2.87,27.2,8.53,38.49A77.68,77.68,0,0,0,2120.6,964c20.64,14.32,48.78,21.58,83.65,21.58a272.91,272.91,0,0,0,39.66-3.06l2.92-.44,2.64-1.34c28.26-14.46,48.05-24.43,61.87-31.29l-.58,5.67-1,9.66,7.53,6.14,3.88,3.15,5.3,4.32,6.82-.29c22.34-.94,45.69-1.42,69.42-1.42,25.21,0,54.58.48,87.29,1.43l18.52.54V921.46l-17.15-.8c-20.65-1-30.54-1.93-35.16-2.55-.93-5.39-2.36-19.08-2.36-52.37,0-10.55.43-24.42,1.27-41.24,1.46-26.41,2.18-42.4,2.18-48.88,0-16.71-2.15-30.45-6.57-42-4.67-12.18-13.05-23.49-24.91-33.65-11.68-10-28.47-18.14-51.34-25-21.8-6.49-49.53-9.79-82.41-9.79ZM2262.8,899.68c-11.3,0-20.15-2.24-26.3-6.66-4.62-3.31-6.5-7.3-6.5-13.79,0-5.88,1.81-10.17,5.85-13.91,3.06-2.83,11.53-8.38,34-13.79,13.8-3.33,28.78-6.35,44.72-9V883.2a77.21,77.21,0,0,1-19.19,10.2,91.35,91.35,0,0,1-32.55,6.28Z"/><path class="c" d="M2736.93,975.19c-34.77,0-62.76-6.18-83.17-18.35-21.91-13.06-33-30-33-50.35l1.72-94.78V749.9h-2.62c-15.58,0-30.67.29-44.84.85l-9.36.38V722.88l44.24-18.68c4.31-1.83,8.52-3.77,12.58-5.8v-33c0-13.36-1.13-30.21-3.38-50.07l-.91-8.06,7.92-1.74c27.59-6.07,45.71-10.19,53.88-12.26,1.27-.35,11.81-3.59,54.29-16.82l3.51-1.09L2758,585.73l-5.19,36-3,32.71-3.12,40.47h4.48c37.7,0,66.52-1,85.65-2.83l11.95-1.17L2838,748l-6.61.74a96.94,96.94,0,0,1-10.47.63l-42.25-.58h-32.7v86.86c0,37.83.74,48.06,1.18,50.8l0,.29c.8,6.24,4,10.85,10.12,14.51,7,4.2,17.83,6.33,32.18,6.33h.18c2.72.05,5.32.08,7.73.08,5.9,0,10.89-.16,14.82-.48,5.65-.46,13.06-1.36,22-2.67l6-.87,14.24,24.33-22.56,15c-11.25,7.67-22.4,15.29-33.05,22.6l-1.19.82-1.39.4a198.79,198.79,0,0,1-31.35,6.75A236.43,236.43,0,0,1,2736.93,975.19Z"/><path class="b" d="M2736.93,585.06l11.2,5.74-4.31,29.85-3,33-3.88,50.23h14.21q57.24,0,86.53-2.87l-7.32,38.74a84.68,84.68,0,0,1-9.47.58l-42.19-.58h-41.76v95.86q0,44.19,1.3,52.23,1.71,13.49,14.42,21.09t36.8,7.61q4.18.08,7.91.08,9.26,0,15.55-.51,8.82-.72,22.6-2.73l6.89,11.77-15.49,10.33q-19,12.91-33.15,22.67a191.48,191.48,0,0,1-29.92,6.46,225.83,225.83,0,0,1-26.91,1.58q-49.93,0-78.56-17.08t-28.63-42.62l1.73-94.7V740.9h-11.63q-23.67,0-45.2.86V728.85l38.74-16.36q9.47-4,18.09-8.61V665.42q0-20.65-3.45-51.08,41.74-9.18,54.24-12.34,2.16-.59,54.67-16.94m1.67-19.37-7,2.19c-41.12,12.8-52.15,16.2-54,16.73-8.16,2-26.14,6.14-53.45,12.15l-15.85,3.48,1.83,16.12c2.2,19.53,3.33,36,3.33,49.06v27.33c-2.33,1.09-4.71,2.15-7.12,3.17l-38.71,16.34-11,4.65v43.58l18.72-.74c12.1-.49,24.89-.77,38.11-.83v52.7l-1.72,94.55v.32c0,16.32,6.49,39.65,37.41,58.08,21.83,13,51.36,19.62,87.78,19.62a245.58,245.58,0,0,0,29.05-1.71,210.65,210.65,0,0,0,32.8-7l2.78-.81L2804,973c10.57-7.26,21.68-14.86,33-22.59l15.42-10.28,14.12-9.41-8.57-14.66-6.89-11.76-6.13-10.47-12,1.75c-8.8,1.28-16,2.15-21.46,2.6-3.7.3-8.45.45-14.1.45-2.35,0-4.89,0-7.55-.08h-.36c-15.81,0-23.71-2.75-27.55-5-4.32-2.58-5.45-5-5.82-7.92l0-.3,0-.29c-.25-1.55-1.07-9.7-1.07-49.37V757.75h23.64l42.06.57h.25a105.1,105.1,0,0,0,11.47-.69l13.22-1.48,2.47-13.07,7.31-38.74,4.46-23.6-23.9,2.34c-17.95,1.76-44.69,2.7-79.53,2.78l2.36-30.7,3-32.42,4.24-29.38,1.84-12.72-11.44-5.86-11.19-5.74-6.55-3.36Z"/><path class="c" d="M2913.21,930.34l8.58-.41c42.75-2,50.79-3.89,52.24-4.41a4.6,4.6,0,0,0,3.13-3.83l0-.17,0-.17c1.82-6.69,4-25.79,4-78.86,0-77-2.17-95.35-3.46-99.47l0-.1a6.58,6.58,0,0,0-.83-1.91c-2-.75-11.72-2.92-54.75-3.16l-8.95-.06V698.65l8.37-.59c42.84-3,75.61-6.28,97.4-9.68a671.1,671.1,0,0,0,71.35-15.57l2.74-.75,19.71,7.12-.82,7.07a729.92,729.92,0,0,0-5.11,83.06v97.58c0,43.61,2,53.66,2.87,56l.06.16.06.17a1.44,1.44,0,0,0,1.15,1.17c4.79,1.53,18,3.52,53.82,4.44l8.77.22v40.33l-9.17-.17c-40.68-.76-85.38-1.15-132.85-1.15-40.93,0-77.65.39-109.13,1.15l-9.22.22Zm127-288.64c-19.81,0-37.13-4.85-51.49-14.42-15.51-10.34-23.38-23.39-23.38-38.77,0-15.18,7.78-28.12,23.13-38.46,14.22-9.59,31.63-14.45,51.74-14.45s37.51,4.86,51.74,14.45c15.34,10.35,23.12,23.29,23.12,38.46,0,15.36-7.78,28.39-23.12,38.74C3077.68,636.84,3060.27,641.7,3040.17,641.7Z"/><path class="b" d="M3040.17,544.6q27.54,0,46.71,12.91t19.15,31q0,18.36-19.15,31.28t-46.71,12.91q-27.12,0-46.49-12.91t-19.38-31.28q0-18.09,19.16-31t46.71-12.91m52.52,136.89,10.33,3.73a734.48,734.48,0,0,0-5.17,84.09v97.58q0,49.93,3.45,59.12a10.35,10.35,0,0,0,6.88,6.89q11.63,3.72,56.4,4.87v22.39q-61.14-1.14-133-1.15-62,0-109.35,1.15V938.92q48.21-2.29,55.11-5a13.6,13.6,0,0,0,8.61-10.19q4.29-15.78,4.3-81.22,0-89.82-3.87-102.16-1.72-5.75-5.6-7.47-8.61-3.72-58.55-4V707q65-4.57,98.16-9.75a678.76,678.76,0,0,0,72.32-15.79M3040.17,526.6c-21.94,0-41,5.38-56.77,16-22.4,15.09-27.1,33.3-27.1,45.92s4.75,31.17,27.39,46.26c15.86,10.57,34.87,15.93,56.48,15.93,21.93,0,41-5.38,56.77-16,22.39-15.11,27.09-33.47,27.09-46.21s-4.7-30.82-27.09-45.92c-15.74-10.61-34.84-16-56.77-16Zm53.29,136-5.48,1.49a663.65,663.65,0,0,1-70.39,15.37c-21.53,3.36-54.05,6.58-96.64,9.59l-16.74,1.18v56.48l17.9.11c28.46.16,41.65,1.17,47.59,1.94,1,7.45,2.53,29.45,2.53,93.7,0,50.11-1.92,68.31-3.3,74.92-4.64.74-16.7,2.06-47.57,3.53l-17.15.82V978.6l18.44-.45c31.39-.75,68-1.14,108.91-1.14,47.43,0,92.08.39,132.68,1.15l18.34.34V920.23l-17.54-.45c-28.49-.73-41.57-2.16-47.41-3.15-.73-5.4-1.78-18.59-1.78-49.74V769.31a720.88,720.88,0,0,1,5.05-82l1.63-14.16-13.4-4.84-10.33-3.73-5.34-1.93Z"/><path class="c" d="M3470,979.2c-66.44,0-118.65-13-155.18-38.5-37.54-26.25-56.57-65.28-56.57-116,0-34.43,9-63.47,26.87-86.32,17.68-22.68,44.34-39.92,79.22-51.24,34-11,74.08-16.66,119-16.66,67.79,0,120.38,12.2,156.32,36.25,37.07,24.82,55.87,61.61,55.87,109.36,0,27.19-5.42,51.2-16.12,71.37a135.24,135.24,0,0,1-43.34,49,213.53,213.53,0,0,1-55.73,27.41C3547.68,974.05,3510.57,979.2,3470,979.2ZM3472.55,718c-15.82,0-29.74,2.76-41.4,8.2-11.13,5.2-19.61,13.8-25.9,26.31-6.5,12.92-9.8,32.56-9.8,58.37,0,48.13,10.37,82.54,30.83,102.3,13.1,12.6,32.44,19,57.46,19,21.35,0,38.29-4.85,50.38-14.42,16-12.68,24.13-38.69,24.13-77.32,0-28.12-3.52-52.47-10.47-72.36-6.55-18.76-16.08-31.87-28.3-39C3506.72,721.79,3490.93,718,3472.55,718Z"/><path class="b" d="M3483.31,679.48q99.43,0,151.31,34.73t51.88,101.88q0,38.74-15.07,67.16A125.75,125.75,0,0,1,3631,929a203.29,203.29,0,0,1-53.38,26.26Q3529.81,970.21,3470,970.2q-97.29,0-150-36.87T3267.21,824.7q0-48.78,25-80.79t74.91-48.21q49.93-16.22,116.23-16.22m.43,261.74q35.3,0,56-16.36,27.54-21.81,27.55-84.38,0-43.9-11-75.33T3524,721.38q-21.31-12.33-51.44-12.34-25.83,0-45.2,9t-30.14,30.42q-10.77,21.39-10.76,62.42,0,76.35,33.58,108.77,22.38,21.52,63.71,21.53m-.43-279.74c-45.87,0-86.85,5.75-121.79,17.1-36.62,11.89-64.73,30.15-83.54,54.26-19.09,24.47-28.77,55.38-28.77,91.86,0,53.84,20.32,95.35,60.41,123.38,19.32,13.51,42.84,23.73,69.89,30.38,26.3,6.47,56.73,9.74,90.45,9.74,41.52,0,79.53-5.29,113-15.74h.09a222.68,222.68,0,0,0,58.08-28.56,144.19,144.19,0,0,0,46.21-52.2c11.39-21.48,17.17-46.91,17.17-75.59,0-25.15-5-47.76-14.93-67.21-10-19.68-25.14-36.37-44.93-49.63-19-12.74-42.51-22.38-69.76-28.63-26.42-6.06-57.23-9.14-91.57-9.14Zm.43,261.74c-22.93,0-39.69-5.4-51.23-16.5-18.61-18-28.06-50.21-28.06-95.8,0-24.39,3-42.67,8.84-54.32,5.35-10.64,12.44-17.9,21.67-22.21,10.45-4.87,23.1-7.35,37.59-7.35,16.78,0,31,3.34,42.42,9.92,10.31,6,18.49,17.45,24.31,34.13,6.62,18.94,10,42.28,10,69.39,0,24.57-3.59,56.71-20.72,70.27-10.45,8.27-25.52,12.47-44.79,12.47Z"/><path class="c" d="M4284.74,969.15c-38.85-1.33-70.9-2-95.26-2-28,0-52.77.67-73.48,2l-3,.19-15-10,.8-5.62c.55-3.81,2.41-20.32,5.53-49.07l2.13-46.58V835.61c0-40.19-2.86-56.39-5.26-62.9-3.11-8.45-9.54-15.18-19.67-20.57-10.68-5.67-25.48-8.55-44-8.55s-34.1,2.93-46,8.7c-14.53,7.06-19.28,12.52-20.82,15.27-.44,1.35-2,8.63-1.66,41.83V857.7c0,13.77.57,30.88,1.7,50.87v.22c.33,10.31,1.79,12.85,1.85,13a3.48,3.48,0,0,0,1.65,1.4l.21.09c1.19.53,5.3,1.94,17.66,3.59,3.34.36,15.31,1.12,35.57,2.25l8.5.47v39.83l-9.22-.22c-31.2-.76-69.79-1.15-114.72-1.15-52.07,0-93.12.39-122,1.15l-9.23.24V929.06h9c21.57,0,36.49-1,44.35-2.9a9.39,9.39,0,0,0,4.24-1.89c.61-.91,2.37-4.47,2.68-15.16v-.18l1.73-25.65c.28-5.27.42-13.87.42-25.58V820.11c0-16.73-.87-37.38-2.56-61.36-.67-9.52-1.45-13.78-1.88-15.54a13.09,13.09,0,0,0-2.3-.7l-.18,0c-2.7-.67-12.36-1.89-46.7-2.62l-8.8-.18V700.72l8-.91c51.77-5.87,86.2-10.29,102.35-13.12a463.38,463.38,0,0,0,54.45-13.52l2.59-.79L3969,678.5v37.91l66-35.32,1-.27a214.85,214.85,0,0,1,25-5.24,222.2,222.2,0,0,1,28.09-1.37c31.88,0,55.33,2.38,71.67,7.27s30.48,11.93,41.94,20.91c11.68,9.16,20.08,19,25,29.35s7.33,25.6,7.33,46.47c0,22.28-.3,36.18-.9,42.47l0,.27a58.33,58.33,0,0,0-.36,7.13l.43,29.49c.34,39.52,1.41,53.68,2.24,58.62,1.21,7.18,3.23,8.4,3.31,8.45.66.37,4.78,2.27,21.57,3,4.9.2,12.87.67,24.33,1.45l8.38.57v39.82Z"/><path class="b" d="M3948.4,681.78l11.63,3.44v46.21l78.35-41.9a201.61,201.61,0,0,1,23.89-5,213.49,213.49,0,0,1,26.9-1.3q46.07,0,69.1,6.89t38.95,19.37q15.93,12.49,22.39,26.12t6.46,42.62q0,32.71-.86,41.61a67.9,67.9,0,0,0-.43,8.32l.43,29.56q.42,48.51,2.36,60t7.75,14.78q5.82,3.31,25.62,4.17,7.31.29,24.1,1.43v22.1q-58.54-2-95.56-2-42.63,0-74,2l-7.75-5.17q.87-6,5.6-49.65l2.15-47.06V835.61q0-50.22-5.81-66t-23.89-25.4q-18.08-9.62-48.22-9.61t-49.93,9.61q-19.82,9.62-25,19.37-3,5.74-2.58,45.92V857.7q0,21,1.72,51.38.42,13.49,3.44,17.79a12.45,12.45,0,0,0,5.6,4.59q5.16,2.29,20.23,4.31,5.17.57,36.16,2.29v22.1Q3980.26,959,3912.24,959q-78.78,0-122.25,1.15v-22.1q33.57,0,46.49-3.16,6-1.42,9-4.87,4.29-5.46,4.73-20.67l1.73-25.54q.42-8,.43-26.12V820.11q0-25.54-2.59-62-1.29-18.36-3.66-20.81t-7.53-3.59q-8.18-2-48.64-2.87V708.76q78.35-8.89,102.88-13.21a472,472,0,0,0,55.53-13.77m-.08-18.8-5.18,1.59a457.69,457.69,0,0,1-53.38,13.26c-16,2.8-50.22,7.19-101.8,13l-16,1.81v55.8l17.61.37c25.46.54,36.67,1.36,41.49,1.88.24,2.1.51,4.92.78,8.65,1.68,23.78,2.54,44.21,2.54,60.73V857.7c0,11.5-.14,19.92-.4,25l-1.72,25.41,0,.35v.35a51.42,51.42,0,0,1-.84,8.75c-4.57,1-15.69,2.46-41.43,2.46h-18v58.58l18.47-.49c28.8-.75,69.77-1.14,121.78-1.14,44.87,0,83.39.39,114.5,1.14l18.44.45V921l-17-.94c-24.65-1.37-32.68-2-35-2.2a125.71,125.71,0,0,1-12.9-2.23,68.14,68.14,0,0,1-.55-7.15v-.45c-1.12-19.82-1.69-36.76-1.69-50.36V809.3c-.28-26,.62-35.17,1.09-38.14,1.35-1.62,5.4-5.46,16.32-10.77,10.67-5.18,24.82-7.8,42.07-7.8,17,0,30.4,2.52,39.77,7.5,8.08,4.3,13.14,9.45,15.45,15.73,1.76,4.77,4.7,18.88,4.7,59.79v22.26L4095.32,904c-3.09,28.47-4.93,44.79-5.46,48.5l-1.59,11.22,9.43,6.29,7.75,5.17,5.06,3.37,6.07-.39c20.51-1.31,45-2,72.9-2,24.27,0,56.22.67,95,2l18.61.64V921.25l-16.77-1.15c-11.51-.78-19.55-1.26-24.59-1.46a105.46,105.46,0,0,1-15.85-1.56c-.16-.6-.34-1.39-.51-2.39-.64-3.78-1.76-16.22-2.11-57.14v-.11l-.42-29.42a49.28,49.28,0,0,1,.28-5.95l0-.26,0-.26c.41-4.2.95-13.26.95-43.34,0-22.23-2.68-38.69-8.19-50.32s-14.76-22.55-27.55-32.58c-12.35-9.68-27.46-17.23-44.91-22.45-17.19-5.15-41.48-7.65-74.25-7.65a231.15,231.15,0,0,0-29.28,1.45,218.59,218.59,0,0,0-26.08,5.46l-2,.54-1.87,1L3978,701.39V671.78L3965.14,668l-11.62-3.44-5.2-1.54Z"/><path class="c" d="M4519,979.2a479.88,479.88,0,0,1-59.67-3.65c-19.18-2.43-42.81-6.88-70.22-13.22l-2.28-.53-10.06-9.14.75-4.79c2.22-14.31,3.64-24.59,4.22-30.57l3-56.54h51.38l.57,8.4c1.39,20.84,2.58,31.06,3.45,36a123.14,123.14,0,0,0,37.29,19.87c14.52,4.75,31.53,7.16,50.58,7.16,25.19,0,44.49-3.92,57.36-11.63,11.54-6.93,17.15-14.64,17.15-23.57,0-5.78-1.57-10.34-4.79-13.92-2-2.24-7.85-6.75-24.31-11.83-11-2.6-32.24-6.19-63.28-10.69-32.12-4.65-56.92-9.89-73.7-15.59-17.88-6.06-32.12-15.34-42.33-27.58A67.38,67.38,0,0,1,4378.24,773c0-29.7,16.56-54.47,49.22-73.63,31.1-18.24,75.94-27.49,133.27-27.49a485.08,485.08,0,0,1,65.36,4.1,296.56,296.56,0,0,1,54.62,12.45l3.71,1.26,4.19,9.31-.78,3.06a153,153,0,0,0-3.66,19.25c-.84,6.68-2.13,22.92-3.83,48.28l-.57,8.47-49.41-.43L4629.3,770c-.31-2.2-.74-5.73-1.32-10.81V759a113.49,113.49,0,0,0-4-20.64,80.76,80.76,0,0,0-27.66-13.8c-12.18-3.57-26.75-5.38-43.31-5.38-22.76,0-40.36,3.3-52.31,9.81-3.79,2.07-15.32,8.35-15.32,18.21,0,7.58,1.89,12.82,5.77,16,4.87,4,12.55,7.16,22.82,9.33,11.49,2.43,33.18,5.62,64.46,9.49,32.37,4,53.62,7.3,65,10.09,16.74,4.26,30.38,9.77,40.62,16.39a73,73,0,0,1,24.73,26,70.16,70.16,0,0,1,8.66,34.35c0,31.79-18.22,58.63-54.15,79.79C4628.83,968.94,4580.3,979.2,4519,979.2Z"/><path class="b" d="M4560.73,680.92a473.24,473.24,0,0,1,64.14,4,286.81,286.81,0,0,1,52.95,12l1.29,2.87a165,165,0,0,0-3.88,20.38q-1.29,10.32-3.87,48.78l-33.15-.28c-.29-2.11-.72-5.64-1.29-10.62a120.74,120.74,0,0,0-5.16-25q-13.35-11.48-32.94-17.22T4553,710.19q-36.6,0-56.61,10.91t-20,26.11q0,15.49,9,23t26.69,11.19q17.66,3.74,65.22,9.62t63.93,9.9q23.67,6,37.88,15.21a64,64,0,0,1,21.74,22.82,61,61,0,0,1,7.53,30q0,42.76-49.72,72T4519,970.2a467.44,467.44,0,0,1-58.55-3.58q-28.41-3.6-69.31-13.06l-4.73-4.31q3.44-22.1,4.3-31.28l2.59-48.21h34.44q2.15,32.15,4.3,40.46a131.64,131.64,0,0,0,42.62,23.39q23.25,7.6,53.38,7.61,40.45,0,62-12.92T4611.52,897q0-12-7.1-19.94t-28.63-14.5q-16.78-4-64.35-10.9t-72.11-15.21q-24.54-8.33-38.31-24.83a58.34,58.34,0,0,1-13.78-38.6q0-39.6,44.77-65.86t128.72-26.26m0-18c-29.06,0-55.22,2.33-77.75,6.93-23.3,4.75-43.51,12.09-60.08,21.8-17.17,10.07-30.42,21.85-39.36,35a81.1,81.1,0,0,0-14.3,46.38c0,19,6,35.87,18,50.14,10.33,12.38,24.27,22,41.48,28.58h-52.47l-.92,17-2.56,47.84c-.57,5.84-2,15.88-4.14,29.85l-1.49,9.58,7.17,6.51,4.74,4.31,3.47,3.16,4.57,1.05c27.7,6.42,51.63,10.92,71.12,13.38a486.61,486.61,0,0,0,60.8,3.73c31.09,0,59.21-2.59,83.6-7.7,25.09-5.26,47-13.35,65.22-24.06,18.77-11.05,33.23-23.81,43-37.93a85.86,85.86,0,0,0,15.61-49.61,79.14,79.14,0,0,0-9.77-38.69A82,82,0,0,0,4688.88,801c-8.54-5.53-18.76-10.17-31-14.07l13.35.11,17,.15,1.14-16.94c1.69-25.18,3-41.25,3.78-47.76a146,146,0,0,1,3.44-18.13l1.57-6.11-2.59-5.76-1.29-2.87-3.21-7.14-7.42-2.52a306.65,306.65,0,0,0-56.28-12.84,495.13,495.13,0,0,0-66.59-4.18Zm60.71,115.94c-11.13-1.75-25-3.66-41.93-5.74-31-3.84-52.47-7-63.7-9.37-11-2.32-16.39-5.34-19-7.46-2.07-1.7-2.5-5.88-2.5-9.08,0-1.06.77-4.93,10.63-10.31,10.61-5.78,26.76-8.71,48-8.71,15.7,0,29.42,1.69,40.78,5a73.56,73.56,0,0,1,22.34,10.51,104.47,104.47,0,0,1,2.91,16.19V760l0,.13c.59,5.14,1,8.75,1.34,11l1.06,7.67Zm-173,121.34c-.7-5.16-1.67-14.58-2.81-31.64l-.78-11.57c16.36,4.54,37.44,8.66,64,12.5,30.49,4.42,51.41,7.94,62.2,10.47,15.83,4.92,19.6,8.74,20,9.16,1.15,1.28,2.48,3.34,2.48,7.9,0,2,0,8.18-12.78,15.85-11.45,6.87-29.19,10.35-52.73,10.35-18.1,0-34.17-2.26-47.78-6.71a113.81,113.81,0,0,1-31.75-16.31Z"/><path class="c" d="M707.5,989c-50.31,0-96.2-3.5-136.39-10.41S483.83,959.29,431,941.77l-3.89-1.29-5.72-13.73,1.22-3.32c5.68-15.41,10.2-35.18,13.43-58.76,3.86-26.86,6.76-52.59,8.63-76.54l.65-8.3h63.13l.36,8.63c.91,22,2.31,40.89,4.19,56.17a237.81,237.81,0,0,0,78.38,49.61c29.79,11.37,68.66,17.14,115.53,17.14,42.31,0,80.85-6.24,114.55-18.54a247,247,0,0,0,88.29-55.24c25.05-24.38,44.11-54,56.65-88.08,12.64-34.35,19.05-74.22,19.05-118.52,0-53.69-8.64-101.09-25.69-140.88s-39.95-73-68.17-98.94c-28.36-26.06-57.23-45.29-85.8-57.17-39.07-15.91-87.33-24-143.37-24-37,0-72.4,3.9-105.29,11.58s-69.37,21.14-108.25,39.95l-5.28,2.55L419.91,344l30-61,2.76-1.35c46.77-22.82,89.44-38.7,126.81-47.2s84.56-12.82,140.21-12.82c79.32,0,150.56,11.79,211.75,35,48.38,18.85,89.94,44.18,123.6,75.3s59.94,65.33,78.14,101.79c27.57,54.77,41.55,115.1,41.55,179.29,0,55-10.35,105.73-30.77,150.77s-51.46,85.63-92.23,120.51S961.35,945.6,904,963C847,980.25,780.9,989,707.5,989Z"/><path class="b" d="M719.74,230.61q117.91,0,208.56,34.44,71.19,27.75,120.68,73.5t76.2,99.2q40.6,80.69,40.6,175.27,0,161.9-119.85,264.44T707.5,980q-75.09,0-134.87-10.28T433.87,933.23l-2.78-6.68Q440,902.39,445,865.9q5.85-40.7,8.68-77.07h46.18q1.47,35.83,4.65,60.1,37.28,36,83.7,53.72t118.74,17.73q130.71,0,209.12-76.33t78.42-213q0-82.77-26.42-144.43t-70.35-102q-43.94-40.35-88.43-58.85Q748.67,301,662.45,301q-56.73,0-107.34,11.82T445,353.45l-13.9-11.82,25.58-51.91q69.52-33.92,124.86-46.52t138.21-12.59m0-18c-56.32,0-104.16,4.39-142.2,13s-81.37,24.77-128.76,47.89l-5.54,2.7-2.72,5.52-25.58,51.92-6.2,12.58,10.69,9.09,13.9,11.82,8.94,7.6,10.56-5.11c38.29-18.52,74.08-31.74,106.37-39.28S626.16,319,662.45,319c54.84,0,101.93,7.84,140,23.31C830,353.82,858,372.48,885.53,397.81c27.27,25,49.47,57.28,66,95.85s25,84.88,25,137.35c0,43.23-6.22,82-18.5,115.4-12.07,32.8-30.4,61.31-54.47,84.74a238.3,238.3,0,0,1-85.11,53.24c-32.7,11.94-70.2,18-111.46,18-45.77,0-83.56-5.57-112.32-16.55a228.54,228.54,0,0,1-73-45.54c-1.65-14.45-2.91-32-3.74-52.2l-.71-17.26H437l-1.29,16.6c-1.86,23.75-4.73,49.29-8.56,75.91v.11c-3.15,22.93-7.51,42.07-13,56.87L411.76,927l2.71,6.51,2.78,6.68,3.15,7.58,7.8,2.59C481.42,968,529,980.47,569.58,987.46S656.68,998,707.5,998c74.29,0,141.28-8.89,199.11-26.41,58.54-17.74,109.35-44.8,151-80.45s73.6-77.34,94.58-123.63,31.57-98.2,31.57-154.49c0-65.58-14.3-127.26-42.5-183.31-18.69-37.44-45.63-72.55-80.08-104.38s-77-57.81-126.37-77l-.07,0-.07,0c-62.21-23.63-134.53-35.61-215-35.61Z"/><path class="a" d="M651.82,778.39c-79.32,0-150.57-11.79-211.75-35-48.38-18.85-89.94-44.18-123.61-75.3s-59.93-65.33-78.13-101.79C210.76,511.5,196.78,451.17,196.78,387c0-55,10.35-105.73,30.76-150.77S279,150.58,319.78,115.7,410.21,54.4,467.55,37c57-17.27,123.11-26,196.51-26,50.31,0,96.2,3.5,136.39,10.41s87.28,19.3,140.08,36.82l3.89,1.29,5.72,13.73-1.22,3.31c-5.68,15.42-10.2,35.19-13.43,58.77-3.86,26.86-6.76,52.59-8.63,76.54l-.65,8.3H863.08l-.36-8.63c-.91-22-2.31-40.89-4.19-56.17a237.81,237.81,0,0,0-78.38-49.61c-29.79-11.37-68.66-17.14-115.53-17.14-42.31,0-80.85,6.24-114.55,18.54a247.17,247.17,0,0,0-88.3,55.24c-25,24.38-44.1,54-56.64,88.08C392.49,284.83,386.08,324.7,386.08,369c0,53.7,8.64,101.1,25.69,140.89s40,73,68.17,98.94c28.36,26.06,57.23,45.29,85.8,57.17,39.07,15.9,87.33,24,143.37,24,37,0,72.4-3.9,105.29-11.58s69.36-21.14,108.25-39.95l5.28-2.55,23.72,20.16-30,61-2.76,1.35c-46.78,22.82-89.44,38.7-126.81,47.2S707.46,778.39,651.82,778.39Z"/><path class="b" d="M664.06,20q75.08,0,134.87,10.28T937.69,66.77l2.78,6.68q-8.9,24.17-13.9,60.65-5.85,40.69-8.68,77.07H871.71q-1.47-35.83-4.65-60.1-37.27-36-83.7-53.72T664.62,79.62Q533.91,79.62,455.5,156T377.08,369q0,82.77,26.42,144.43t70.35,102q43.93,40.35,88.43,58.85Q622.9,699,709.11,699q56.73,0,107.34-11.82t110.12-40.6l13.9,11.82-25.58,51.91Q845.37,744.21,790,756.8T651.82,769.39q-117.92,0-208.56-34.44-71.19-27.75-120.69-73.5t-76.19-99.2q-40.6-80.69-40.6-175.27,0-161.9,119.85-264.44T664.06,20m0-18C589.77,2,522.78,10.89,465,28.41c-58.55,17.74-109.35,44.8-151,80.45s-73.6,77.34-94.58,123.63S187.78,330.69,187.78,387c0,65.58,14.3,127.26,42.5,183.31,18.69,37.44,45.63,72.55,80.08,104.38s77,57.81,126.36,77.05l.08,0,.07,0c62.21,23.63,134.53,35.61,215,35.61,56.32,0,104.16-4.39,142.2-13s81.37-24.77,128.76-47.89l5.53-2.7,2.73-5.52,25.58-51.92,6.2-12.58-10.69-9.09-13.9-11.82-8.94-7.6-10.56,5.11c-38.29,18.52-74.08,31.74-106.38,39.28S745.4,681,709.11,681c-54.84,0-101.93-7.84-140-23.31-27.58-11.48-55.54-30.14-83.11-55.47-27.27-25-49.47-57.28-66-95.85s-25-84.88-25-137.35c0-43.23,6.22-82.05,18.5-115.4,12.07-32.8,30.4-61.31,54.47-84.74a238.3,238.3,0,0,1,85.11-53.24c32.7-11.94,70.2-18,111.46-18,45.77,0,83.56,5.57,112.32,16.55a228.39,228.39,0,0,1,73,45.54c1.66,14.45,2.91,32,3.75,52.2l.71,17.26h80.09l1.3-16.6c1.86-23.75,4.73-49.29,8.56-75.91v-.11c3.15-22.93,7.51-42.07,13-56.87l2.44-6.63-2.71-6.51-2.78-6.68-3.15-7.58-7.8-2.59C890.14,32,842.57,19.53,802,12.54S714.88,2,664.06,2Z"/><path class="a" d="M857.27,427.55A186.71,186.71,0,1,0,871.9,500,185.51,185.51,0,0,0,857.27,427.55Z"/><path d="M685.78,328.57A171.43,171.43,0,1,0,857.21,500,171.43,171.43,0,0,0,685.78,328.57Zm0,311.11A139.68,139.68,0,1,1,825.46,500,139.68,139.68,0,0,1,685.78,639.68Z"/><path d="M685.78,378A122.05,122.05,0,1,0,807.83,500,122.06,122.06,0,0,0,685.78,378ZM625.13,498.28c0,.55,0,1.1,0,1.65-1,.1-2.13.19-3.43.27-8,.51-15.95,1.11-23.89,2-12.19,1.34-10.78-2.19-10.07-8.54.31-2.77.91-6.43,1.41-9.17,4.23-23.28,2.12-19.05,19-14.11,8.62,2.51,14.39,4.5,21.36,6.77A59.47,59.47,0,0,0,625.13,498.28ZM633,470.05a56.23,56.23,0,0,1-6.44-2.38c-9.4-3.95-19-7.44-29-11.29,10-28.19,43.75-52.32,73.37-54.44,0,11.55-.64,25.57-.38,37.29q0,1.25,0,2.28A60.64,60.64,0,0,0,633,470.05Zm52,69.15a39.14,39.14,0,1,1,39.7-38A39.13,39.13,0,0,1,685,539.2Zm47.31,19.58a12.25,12.25,0,1,1,12.25-12.25A12.25,12.25,0,0,1,732.31,558.78Z"/></svg>