<?xml version="1.0" encoding="UTF-8"?>
<svg xmlns="http://www.w3.org/2000/svg" version="1.1" viewBox="0 0 5000 1000">
  <defs>
    <style>
      .cls-1 {
        fill: #666;
        stroke: #333;
      }

      .cls-1, .cls-2, .cls-3 {
        stroke-miterlimit: 10;
      }

      .cls-4 {
        fill: #bfbfbf;
      }

      .cls-4, .cls-5, .cls-6, .cls-7 {
        stroke-width: 0px;
      }

      .cls-5 {
        fill: #999;
      }

      .cls-6 {
        fill: #000;
      }

      .cls-2 {
        fill: #ccc;
      }

      .cls-2, .cls-3 {
        font-family: Palatino-Bold, Palatino;
        font-size: 600px;
        font-weight: 700;
        letter-spacing: 0em;
        stroke: #000;
      }

      .cls-3, .cls-7 {
        fill: #fff;
      }

      .cls-8 {
        display: none;
      }
    </style>
  </defs>
  <g id="Layer_3" data-name="Layer 3" class="cls-8">
    <g>
      <text class="cls-3" transform="translate(1063.3 1802) scale(1.5 1)"><tspan x="0" y="0">ardillo’s</tspan></text>
      <text class="cls-2" transform="translate(1063.3 2310.9) scale(1.5 1)"><tspan x="0" y="0">reations</tspan></text>
    </g>
  </g>
  <g id="Layer_2" data-name="Layer 2" class="cls-8">
    <rect class="cls-1" width="5000" height="1000"/>
  </g>
  <g id="Layer_1" data-name="Layer 1">
    <g>
      <g>
        <g>
          <path class="cls-7" d="M1324.4,465.4c-32,0-57.4-6.4-75.7-19.1-18.7-13-28.2-31.8-28.2-56.1s4.3-30,12.7-40.7c8.2-10.3,17.2-18.1,26.7-23,9.4-4.9,23.5-9.5,42.9-14,44.3-10.5,93.3-18.8,145.9-24.9-.2-19.9-6.6-34.7-19.6-45.3-14.1-11.2-36.1-16.9-65.5-16.9s-23.7,1-34.6,3.1c-4.3.8-9.4,2.5-15.2,5l-18.8,30.1-35.5-5.2,3-43.1,2.2-1c21.2-9.6,41.7-18,61-25.1,19.6-7.2,33-11.5,41.1-13.1,10.8-2.1,26.1-3.2,45.5-3.2,31.5,0,57.9,3.1,78.4,9.2,20.7,6.2,36.2,13.6,46.2,22.2,10.1,8.6,17.1,18,20.9,28,3.7,9.8,5.6,22.3,5.6,37s-.7,22-2.2,48.1c-.9,17.1-1.3,31.2-1.3,42,0,41.6,2.2,55.9,4,60.5v.2c.8,2.3,2.2,3.6,4.4,4.4,2.9,1,12.6,2.4,42.4,3.8l3.8.2v29.5h-4.1c-32.9-1.1-62.4-1.6-87.7-1.6s-47.5.5-70,1.4h-1.5c0,0-6.7-5.4-6.7-5.4l3.4-32.8c-14,6.5-42.4,20.7-84.8,42.4l-.6.3h-.7c-13.1,2-25.7,3-37.6,3ZM1448.7,320c-22.4,3.3-43.2,7.2-62,11.8-19.5,4.7-33,10.5-40.2,17.1-7,6.4-10.3,14.4-10.3,24.2s4,19.2,12.3,25.2c8.6,6.2,20.2,9.3,34.5,9.3s25-2.4,37.5-7.2c11.8-4.5,21.3-10.2,28.2-16.9v-63.5Z"/>
          <path class="cls-6" d="M1412.2,177c31.3,0,57,3,77.3,9,20.2,6,35.2,13.2,44.8,21.4,9.6,8.2,16.2,17,19.8,26.4,3.6,9.4,5.4,21.2,5.4,35.6s-.7,22.1-2.2,47.9c-.9,17.2-1.3,31.3-1.3,42.2,0,34.1,1.4,54.7,4.3,62,1.1,3.4,3.4,5.7,6.9,6.9,4.6,1.5,19.1,2.9,43.5,4v21.5c-33-1-62.3-1.4-87.8-1.4s-47.5.5-70.2,1.4l-3.9-3.2,3.9-37.6c-10.3,4.4-40.8,19.5-91.3,45.3-12.9,1.9-25.3,2.9-37,2.9-31.3,0-55.7-6.1-73.4-18.4-17.6-12.2-26.5-29.8-26.5-52.8s3.9-28.2,11.8-38.2c7.9-9.9,16.4-17.3,25.4-22,9-4.7,23-9.2,42-13.6,45.3-10.7,95-19.1,148.9-25.3.6-22.8-6.5-40.1-21.1-51.9-14.9-11.9-37.6-17.8-68-17.8s-24.1,1.1-35.3,3.2c-4.9,1-10.6,2.9-17.2,5.7l-18.1,29-29.3-4.3,2.6-37c21.2-9.6,41.5-17.9,60.7-25,19.2-7.1,32.7-11.4,40.5-12.9,10.6-2.1,25.5-3.2,44.8-3.2M1383,411.5c12.9,0,25.9-2.5,39-7.5,13.1-5,23.3-11.3,30.8-18.9v-69.7c-24.4,3.4-46.7,7.6-66.9,12.5-20.2,4.9-34.2,10.9-42,18.1-7.7,7.2-11.6,16.2-11.6,27.1s4.7,21.7,14,28.4c9.3,6.7,21.6,10,36.8,10M1412.2,169c-19.9,0-35.1,1.1-46.3,3.3-8.2,1.6-21.9,6-41.7,13.3-19.3,7.1-39.9,15.6-61.2,25.2l-4.4,2-.3,4.8-2.6,37-.5,7.4,7.3,1.1,29.3,4.3,5.2.8,2.8-4.4,16.7-26.8c5.1-2.1,9.5-3.5,13.3-4.3,10.7-2,22-3,33.8-3,28.4,0,49.6,5.4,63,16,11.2,9.1,17.1,21.8,18,38.6-51.3,6.1-99.3,14.3-142.7,24.6-19.8,4.6-34.1,9.3-43.8,14.3-10,5.2-19.4,13.3-28,24.1-9,11.3-13.6,25.9-13.6,43.1,0,25.6,10.1,45.6,29.9,59.4,18.9,13.1,45.2,19.8,78,19.8s24.9-1,38.2-3l1.3-.2,1.2-.6c36.7-18.7,62.8-31.9,78.2-39.3l-2.4,23.6-.4,4.3,3.3,2.7,3.9,3.2,2.4,1.9h3c22.5-1.1,46-1.6,69.8-1.6s54.8.5,87.6,1.4l8.2.2v-37.4l-7.6-.4c-32-1.5-39.6-3-41.3-3.6-1.1-.4-1.5-.8-1.8-1.8v-.2c0,0-.2-.2-.2-.2-1.4-3.5-3.7-15.9-3.7-59.1s.4-24.8,1.3-41.8c1.5-26.2,2.2-42,2.2-48.3,0-15.3-2-28.2-5.9-38.4-4.1-10.6-11.5-20.6-22.1-29.6-10.6-9.1-26.2-16.6-47.7-23-20.9-6.2-47.6-9.4-79.6-9.4h0ZM1383,403.5c-13.4,0-24.3-2.9-32.1-8.5-7.3-5.2-10.7-12.2-10.7-21.9s3-15.6,9.1-21.3c6.7-6.2,19.6-11.6,38.4-16.2,17.4-4.2,36.5-7.9,57.1-11v57.1c-6.4,5.8-15,10.8-25.6,14.9-12.1,4.6-24.2,6.9-36.1,6.9h0Z"/>
        </g>
        <g>
          <path class="cls-7" d="M1948.7,458c-32.3-1-68.8-1.4-108.4-1.4s-90.8.5-138.5,1.4h-4.1c0,0,0-30.1,0-30.1h4c22,0,37.3-1,45.5-3,3.1-.7,5.5-1.9,6.9-3.6,1.6-2.1,3.5-6.9,3.8-18.2v-.2s1.7-25.5,1.7-25.5c.3-5.3.4-14,.4-25.8v-37.6c0-16.8-.9-37.6-2.6-61.7-1-14.4-2.3-17.8-2.7-18.4-.7-.7-2.3-1.7-5.4-2.3-3.6-.9-14.8-2.1-47.9-2.8h-3.9v-29.7l3.5-.4c51.9-5.9,86.4-10.3,102.6-13.2,16.1-2.8,34.6-7.4,55.1-13.7l1.2-.4,15.7,4.6-.8,53.2c15.4-10.7,27.6-19.9,36.4-27.2h0c15.3-12.3,26.6-19.8,34.5-23.3,10.8-4.8,25.1-7.2,42.5-7.2s21,1.2,29.9,3.6l3.2.8-2.8,44c-1.3,33.4-2,37.3-2.2,38.6l-.5,2.7-22.7,4.7-1.5-1.3c-6.8-6-13.3-10.2-19.4-12.5-10.1-3.8-21.4-5.8-33.5-5.8s-30.2,3.3-41.7,9.9c-11.2,6.4-17.9,12.8-19.9,19-.6,2.3-1.6,11.5-1.6,47.4v28.7l.9,38.9c.4,18.6,1.5,24.1,2.1,25.8.9,2.3,3.1,4.2,6.6,5.6,2.9,1.2,10.1,2.8,28.4,3.7l39.1,2.5v30h-4.1Z"/>
          <path class="cls-6" d="M1988.4,175.6c10.6,0,20.2,1.1,28.8,3.4l-2.6,40.8c-.9,22.2-1.6,34.9-2.2,38.2l-18.1,3.7c-7.2-6.3-14.1-10.7-20.7-13.2-10.6-4-22.2-6-34.9-6s-31.5,3.5-43.7,10.5c-12.2,7-19.4,14.1-21.7,21.4-1.1,4.2-1.7,20.4-1.7,48.5v28.7l.9,39c.3,14.7,1.1,23.8,2.4,27.1,1.3,3.3,4.2,6,8.8,7.9,4.6,1.9,14.5,3.3,29.7,4l35.3,2.3v22.1c-32.4-1-68.6-1.4-108.5-1.4s-90.7.5-138.6,1.4v-22.1c22.4,0,37.9-1,46.5-3.2,4-1,7-2.6,9-4.9,2.9-3.6,4.4-10.5,4.7-20.7l1.7-25.5c.3-5.4.4-14.1.4-26.1v-37.6c0-17-.9-37.7-2.6-62-.9-12.2-2.1-19.2-3.7-20.8-1.6-1.6-4.1-2.8-7.5-3.6-5.5-1.3-21.7-2.3-48.6-2.9v-22.1c52.2-5.9,86.5-10.3,102.9-13.2,16.4-2.9,34.9-7.5,55.5-13.8l11.6,3.4-.9,58c18.7-12.8,33-23.4,43-31.9,14.9-11.9,26.1-19.4,33.6-22.7,10.3-4.6,24-6.9,40.9-6.9M1860.1,167.2l-2.3.7c-20.3,6.2-38.6,10.7-54.6,13.5-16.2,2.8-50.6,7.3-102.4,13.1l-7.1.8v37.1l7.8.2c34.4.7,44.2,2,46.9,2.6h0s0,0,0,0c1.5.3,2.4.7,2.9,1,.4,1.6,1.3,5.8,2,16.2,1.7,24,2.6,44.7,2.6,61.4v37.6c0,11.7-.1,20.4-.4,25.6l-1.7,25.5v.2s0,.2,0,.2c-.3,11-2.2,14.7-2.9,15.8-.9.9-2.5,1.7-4.7,2.2h0s0,0,0,0c-7.9,1.9-22.9,2.9-44.6,2.9h-8v38.3l8.2-.2c47.7-1,94.3-1.4,138.5-1.4s76,.5,108.2,1.4l8.2.2v-37.8l-7.5-.5-35.3-2.3h0s0,0,0,0c-19.3-1-25.3-2.7-27-3.4-1.7-.7-3.9-1.9-4.4-3.4-.2-.6-1.5-4.8-1.8-24.4l-.9-39v-28.6c0-37,1-44.7,1.4-46.3,1.2-3.6,5.4-9.4,18-16.7,10.9-6.2,24.3-9.4,39.7-9.4s22.4,1.9,32,5.5c5.7,2.1,11.8,6.1,18.2,11.7l3,2.6,3.9-.8,18.1-3.7,5.3-1.1.9-5.4c.4-2.3,1.1-8.9,2.3-39.1l2.6-40.7.4-6.5-6.3-1.7c-9.2-2.5-19.6-3.7-30.9-3.7-18,0-32.8,2.5-44.1,7.6-8.2,3.6-19.7,11.3-35.3,23.7h0c0,0,0,.1,0,.1-7.4,6.2-17.4,13.7-29.7,22.5l.6-42.4v-6.1c0,0-5.7-1.7-5.7-1.7l-11.6-3.4-2.3-.7h0Z"/>
        </g>
        <g>
          <path class="cls-7" d="M2274.4,465.7c-48.3,0-88.9-12-120.8-35.7-32.2-23.9-48.5-57.1-48.5-98.6s4.8-43.7,14.2-61.8c7.1-13.8,15.6-24.7,25.2-32.3,6.9-5.6,26.1-15.7,58.7-30.9,32.1-15,55.5-24.4,69.6-27.9,14.2-3.6,32.7-5.4,55-5.4s25.6.7,34.8,2.1c8.5,1.3,22.8,4.5,42.5,9.5.6-9.6.9-19.7.9-30.2s-.7-32-2.1-52.5c-.7-12.4-2.9-15.4-3.5-16.1-1.4-1.3-3.6-2.2-6.4-2.7-2.4-.4-13.5-1-52.4-1.7h-3.9v-29l3.7-.2c60.6-4,117.6-12.4,169.4-24.9l1.2-.3,15.1,5.8-.2,2.9c-3.5,51.8-5.3,81.4-5.6,90.3-.9,49.6-1.3,120.2-1.3,209.7v26.7c0,12.9.7,26.9,2.1,41.8,1.1,14.1,3,17,3.4,17.5,1.4,1.7,4.1,3.1,7.8,4,3,.7,13.3,2,45.7,3.6l3.8.2v28.5l-94.4-.9-78.5.9-7-4.2,2.4-25.1.6-16.3c-18.2,10.2-37.9,21.6-58.7,33.8-9.3,5.8-18.5,10.8-27.5,14.9h-.3c0,.1-.3.2-.3.2-11.2,2.9-26.2,4.4-44.5,4.4ZM2307.6,218.3c-19.1,0-34.7,3.1-46.6,9.2-11.6,5.9-20.4,15.8-26.1,29.2-5.9,13.8-8.9,29.9-8.9,48.1,0,33.4,10.8,59.5,32.2,77.6,15.8,13.3,37.5,20,64.6,20s38.7-3.9,53.9-11.6c18.6-9.4,24.7-16.7,26.5-21.2,1.9-4.8,4.2-20.2,4.2-66.7l-2.5-50.9c-14.7-11.7-26.9-19.4-36.3-22.9-18.4-7.1-38.9-10.6-61-10.6Z"/>
          <path class="cls-6" d="M2511.6,31.2l11.2,4.3c-3.4,51.3-5.3,81.4-5.6,90.4-.9,49.9-1.3,119.9-1.3,209.8v26.7c0,13,.7,27.1,2.2,42.2.9,10.7,2.3,17.3,4.3,19.7,2,2.4,5.3,4.2,9.9,5.3,4.6,1.1,20.1,2.4,46.5,3.7v20.7l-90.4-.9-77.5.9-3.9-2.3,2.2-22.7.9-23.5c-19.8,11.1-41.5,23.5-65,37.3-9.2,5.7-18.2,10.6-27.1,14.6-10.9,2.9-25.4,4.3-43.5,4.3-47.6,0-87.1-11.6-118.4-34.9-31.3-23.2-46.9-55.1-46.9-95.4s4.6-42.4,13.8-60c6.9-13.4,14.9-23.7,24.1-31,6.6-5.4,25.9-15.5,57.9-30.4,32-14.9,55-24.2,68.9-27.7,13.9-3.5,31.9-5.3,54-5.3s25.2.7,34.2,2c9,1.3,24.6,4.9,46.7,10.6.9-11.1,1.3-22.9,1.3-35.3s-.7-32.1-2.2-52.8c-.6-9.9-2.2-16.2-4.7-18.7-2-1.9-4.9-3.2-8.6-3.7-3.7-.6-21.4-1.1-52.9-1.7v-21.2c61.1-4,117.8-12.3,170-25M2322.6,406.3c21.2,0,39.8-4,55.7-12.1,15.9-8,25.4-15.8,28.4-23.2,3-7.5,4.5-30.2,4.5-68.3l-2.6-52.8c-15.8-12.6-28.7-20.9-38.7-24.7-18.9-7.3-39.8-10.9-62.4-10.9s-35.9,3.2-48.4,9.6c-12.5,6.4-21.8,16.8-28,31.1-6.2,14.3-9.3,30.9-9.3,49.6,0,34.8,11.2,61.7,33.6,80.6,16.6,14,39,21,67.2,21M2512.2,22.9l-2.4.6c-51.6,12.5-108.3,20.8-168.7,24.8l-7.5.5v36.6h7.9c40.7.9,50,1.5,51.9,1.8,1.9.3,3.4.8,4.2,1.5.3.5,1.8,3.4,2.4,13.4h0s0,0,0,0c1.4,20.4,2.1,38,2.1,52.3s-.2,17.1-.6,25.2c-17.6-4.4-30.1-7.2-38.2-8.4-9.4-1.4-21.3-2.1-35.4-2.1-22.7,0-41.5,1.9-56,5.6-14.6,3.7-37.5,12.9-70.3,28.2-32.8,15.3-52.3,25.6-59.5,31.4-10,7.9-18.8,19.2-26.2,33.6-9.7,18.6-14.7,40.1-14.7,63.6,0,42.9,16.9,77.1,50.2,101.8,32.5,24.2,74,36.4,123.2,36.4s33.8-1.5,45.5-4.6l.6-.2.6-.3c9.1-4.1,18.6-9.2,28-15.1,18.4-10.8,36-20.9,52.3-30.2l-.3,9-2.1,22.4-.5,5.1,4.4,2.6,3.9,2.3,1.9,1.1h2.2s77.4-.9,77.4-.9l90.3.9h8.1c0,0,0-8,0-8v-28.3l-7.6-.4c-33.8-1.7-42.7-2.9-45-3.5-3.6-.9-5.1-2-5.6-2.6-.3-.6-1.7-3.9-2.6-15.3h0c0,0,0-.1,0-.1-1.4-14.7-2.1-28.7-2.1-41.4v-26.7c0-89.4.4-159.9,1.3-209.6.3-8.9,2.1-38.4,5.6-90.1l.4-5.9-5.5-2.1-11.2-4.3-2.3-.9h0ZM2322.6,398.3c-26.1,0-46.9-6.4-62-19.1-10.1-8.6-17.9-19.1-22.9-31.3-5.2-12.4-7.8-26.9-7.8-43.2s2.9-33.2,8.6-46.5c5.5-12.7,13.4-21.6,24.3-27.2,11.3-5.8,26.4-8.7,44.8-8.7s41.6,3.5,59.6,10.4c8.7,3.3,20,10.4,33.8,21.2l2.4,49c0,48.2-2.5,61.5-3.9,65.1-1.3,3.1-6.1,9.8-24.6,19.1-14.7,7.4-32.3,11.2-52.1,11.2h0Z"/>
        </g>
        <g>
          <path class="cls-7" d="M2670.5,428.9l3.8-.2c41.4-2,51.5-3.8,53.8-4.7,3.4-1.3,5.3-3.7,6.2-7.4v-.2c2.8-10.1,4.2-37.1,4.2-80.2,0-73.7-2-95.6-3.7-101-.8-2.7-2-4.4-3.4-5-2.9-1.3-14.2-3.4-56.9-3.7h-4v-29.5l3.7-.3c43-3,75.9-6.3,97.8-9.7,21.9-3.4,46-8.7,71.9-15.7l1.2-.3,14.5,5.2-.4,3.1c-3.4,29.6-5.1,57.7-5.1,83.6v97.6c0,40.7,1.7,53.8,3.2,57.7h0c.7,2.4,2.1,3.7,4.4,4.5,7.3,2.3,25.9,3.9,55.2,4.7h3.9v30.5h-4.1c-40.7-.8-85.4-1.2-132.9-1.2s-77.7.4-109.2,1.1h-4.1c0,0,0-29.1,0-29.1ZM2792.5,130.5c-18.8,0-35.2-4.6-48.7-13.6-14-9.4-21.2-21-21.2-34.6s7-25,20.9-34.3c13.4-9,29.8-13.6,48.9-13.6s35.6,4.6,48.9,13.6c13.9,9.4,20.9,20.9,20.9,34.3s-7,25.2-20.9,34.6c-13.4,9-29.9,13.6-48.9,13.6Z"/>
          <path class="cls-6" d="M2792.5,38.4c18.4,0,33.9,4.3,46.7,12.9,12.8,8.6,19.2,18.9,19.2,31s-6.4,22.7-19.2,31.3c-12.8,8.6-28.3,12.9-46.7,12.9s-33.6-4.3-46.5-12.9c-12.9-8.6-19.4-19-19.4-31.3s6.4-22.4,19.2-31c12.8-8.6,28.3-12.9,46.7-12.9M2845,175.3l10.3,3.7c-3.4,29.8-5.2,57.9-5.2,84.1v97.6c0,33.3,1.1,53,3.4,59.1,1.1,3.4,3.4,5.7,6.9,6.9,7.7,2.5,26.5,4.1,56.4,4.9v22.4c-40.8-.8-85.1-1.1-133-1.1s-77.8.4-109.3,1.1v-21.2c32.1-1.5,50.5-3.2,55.1-5,4.6-1.8,7.5-5.2,8.6-10.2,2.9-10.5,4.3-37.6,4.3-81.2s-1.3-93.9-3.9-102.2c-1.1-3.8-3-6.3-5.6-7.5-5.7-2.5-25.3-3.8-58.5-4v-21.8c43.3-3.1,76-6.3,98.2-9.8,22.1-3.4,46.2-8.7,72.3-15.8M2792.5,30.4c-19.9,0-37.1,4.8-51.2,14.3-15.1,10.1-22.7,22.8-22.7,37.6s7.7,27.8,22.9,37.9c14.2,9.5,31.3,14.3,50.9,14.3s37.1-4.8,51.2-14.3c15.1-10.2,22.7-22.9,22.7-37.9s-7.6-27.5-22.7-37.6c-14.1-9.5-31.3-14.3-51.2-14.3h0ZM2845.3,166.9l-2.4.7c-25.7,7-49.7,12.2-71.5,15.6-21.8,3.4-54.6,6.7-97.5,9.7l-7.4.5v37.2h8c44.2.3,53.5,2.6,55.3,3.4.1.1.7.8,1.2,2.5h0s0,0,0,0c1.3,4.2,3.5,22.7,3.5,99.8s-2.2,72.4-4,79.1v.2s0,.2,0,.2c-.6,2.4-1.6,3.7-3.8,4.6-1.4.5-9.3,2.4-52.5,4.5l-7.6.4v37.1l8.2-.2c31.5-.8,68.2-1.1,109.2-1.1s92.2.4,132.9,1.1l8.1.2v-38.3l-7.8-.2c-35.9-.9-49.3-2.9-54.1-4.5-1-.3-1.4-.8-1.8-1.8h0c0-.1,0-.3,0-.3-.9-2.3-2.9-12.5-2.9-56.3v-97.6c0-25.8,1.7-53.8,5.1-83.2l.7-6.3-6-2.2-10.3-3.7-2.4-.9h0Z"/>
        </g>
        <g>
          <path class="cls-7" d="M3250.1,458c-35.7-1.5-73.4-2.3-112.2-2.3s-83,.8-131.6,2.3h-4.1c0,.1,0-30.6,0-30.6h3.9c27-.6,43.4-1.4,48.9-2.3,4.6-.8,7-1.9,8.1-2.7,1.3-.9,2.3-2.4,2.9-4.5h0c0-.1,0-.2,0-.2,1.3-3.7,3-15.9,4.1-53,.9-30.2,1.3-57.4,1.3-80.8v-94.7c0-29.7-1-57.3-3-82-1.4-16.8-3-20.8-3.5-21.7-.7-.7-1.7-1.4-3-1.8h-.2c-3-1.4-8.1-2.5-15.1-3.2-4.2-.4-17.1-.8-38.4-1.4h-3.9v-29l3.7-.3c35.3-2.5,63.9-5.2,85-8.2,21-2.9,49.8-8.2,85.4-15.6l1.1-.2,12.9,4.9-3.6,60.9c-1.4,32.2-2.3,72.5-2.6,119.5v73.4c0,27.7.3,48.6.9,62.1,1.1,34,2,54.9,2.6,62,.7,9.2,2,11.2,2.2,11.5h0c0,.1,0,.2,0,.2.4.7,1.4,1.4,2.7,2h.1c1.5.8,4.8,1.9,12,2.8h.1c1.7.3,10.5.8,43.5,2h3.9v31.1l-4.2-.2Z"/>
          <path class="cls-6" d="M3179.2,29.8l9,3.4-3.4,58c-1.4,32.5-2.3,72.4-2.6,119.7v73.5c0,27.7.3,48.5.9,62.3,1.1,34.3,2,55,2.6,62.1.6,7.2,1.6,11.7,3,13.6.9,1.3,2.3,2.5,4.3,3.4,2.6,1.3,7,2.4,13.3,3.2,2.6.4,17.2,1.1,43.9,2v23c-35.9-1.5-73.3-2.3-112.4-2.3s-82.9.8-131.7,2.3v-22.7c27.3-.6,43.8-1.3,49.5-2.3,4.3-.8,7.5-1.9,9.7-3.3,2.2-1.4,3.7-3.7,4.5-6.7,2-5.7,3.4-23.8,4.3-54.2.9-30.4,1.3-57.4,1.3-80.9v-94.7c0-30-1-57.5-3-82.4-1.1-13.4-2.6-21.3-4.3-23.8-1.1-1.3-2.7-2.4-4.7-3.2-3.4-1.5-8.9-2.7-16.4-3.4-4.3-.4-17.2-.9-38.7-1.4v-21.2c35.6-2.5,64-5.2,85.2-8.2,21.2-3,49.8-8.2,85.7-15.6M3179.9,21.5l-2.3.5c-35.6,7.4-64.2,12.6-85.1,15.6-21,2.9-49.5,5.7-84.7,8.1l-7.4.5v36.5l7.8.2c26.3.7,35.3,1.1,38.2,1.4,8.2.8,12.1,2,13.9,2.8h.2c0,0,.2.2.2.2.4.2.8.3,1.1.5.5,1.5,1.7,6.2,2.9,19.7,2,24.6,3,52.1,3,81.7v94.7c0,23.3-.4,50.5-1.3,80.7-1.1,40-3.1,49.6-3.9,51.8v.2c0,0-.1.2-.1.2-.2.8-.6,1.8-1.3,2.3-.6.4-2.3,1.3-6.6,2.1-3.7.6-15.1,1.5-48.3,2.2l-7.8.2v38.8l8.3-.3c48.5-1.5,92.8-2.3,131.5-2.3s76.4.8,112,2.3l8.3.4v-39l-7.7-.3c-34.3-1.2-41.7-1.7-43-1.9h-.1s-.1,0-.1,0c-7.4-.9-10-2-10.6-2.3h-.1c0,0-.1-.1-.1-.1-.7-.3-1-.6-1.1-.6v-.2c0,0-.1,0-.1,0-.2-.5-1-2.8-1.6-9.7-.6-7-1.4-27.8-2.6-61.8h0s0,0,0,0c-.6-13.5-.9-34.3-.9-61.9v-73.5c.3-46.9,1.1-87,2.6-119.3l3.4-57.9.3-5.9-5.5-2.1-9-3.4-2.2-.8h0Z"/>
        </g>
        <g>
          <path class="cls-7" d="M3587.7,458c-35.7-1.5-73.4-2.3-112.2-2.3s-83,.8-131.6,2.3h-4.1c0,.1,0-30.6,0-30.6h3.9c27-.6,43.4-1.4,48.9-2.3,4.6-.8,7-1.9,8.1-2.7,1.3-.9,2.3-2.4,2.9-4.5h0c0-.1,0-.2,0-.2,1.3-3.7,3-15.9,4.1-53,.9-30.2,1.3-57.4,1.3-80.8v-94.7c0-29.7-1-57.3-3-82-1.4-16.8-3-20.8-3.5-21.7-.7-.7-1.7-1.4-3-1.8h-.2c-3-1.4-8.1-2.5-15.1-3.2-4.2-.4-17.1-.8-38.4-1.4h-3.9v-29l3.7-.3c35.3-2.5,63.9-5.2,85-8.2,21-2.9,49.8-8.2,85.4-15.6l1.1-.2,12.9,4.9-3.6,60.9c-1.4,32.3-2.3,72.5-2.6,119.5v73.4c0,27.7.3,48.6.9,62.1,1.1,34,2,54.9,2.6,62,.7,9.2,2,11.2,2.2,11.5h0c0,.1,0,.2,0,.2.4.7,1.4,1.4,2.7,2h.1c1.5.8,4.8,1.9,12,2.8h.1c1.7.3,10.5.8,43.5,2h3.9v31.1l-4.2-.2Z"/>
          <path class="cls-6" d="M3516.9,29.8l9,3.4-3.4,58c-1.4,32.5-2.3,72.4-2.6,119.7v73.5c0,27.7.3,48.5.9,62.3,1.1,34.3,2,55,2.6,62.1.6,7.2,1.6,11.7,3,13.6.9,1.3,2.3,2.5,4.3,3.4,2.6,1.3,7,2.4,13.3,3.2,2.6.4,17.2,1.1,43.9,2v23c-35.9-1.5-73.3-2.3-112.4-2.3s-82.9.8-131.7,2.3v-22.7c27.3-.6,43.8-1.3,49.5-2.3,4.3-.8,7.5-1.9,9.7-3.3,2.2-1.4,3.7-3.7,4.5-6.7,2-5.7,3.4-23.8,4.3-54.2.9-30.4,1.3-57.4,1.3-80.9v-94.7c0-30-1-57.5-3-82.4-1.1-13.4-2.6-21.3-4.3-23.8-1.1-1.3-2.7-2.4-4.7-3.2-3.4-1.5-8.9-2.7-16.4-3.4-4.3-.4-17.2-.9-38.7-1.4v-21.2c35.6-2.5,64-5.2,85.2-8.2,21.2-3,49.8-8.2,85.7-15.6M3517.5,21.5l-2.3.5c-35.6,7.4-64.2,12.6-85.1,15.6-21,2.9-49.5,5.7-84.7,8.1l-7.4.5v36.5l7.8.2c26.3.7,35.3,1.1,38.2,1.4,8.2.8,12.1,2,13.9,2.8h.2c0,0,.2.2.2.2.4.2.8.3,1.1.5.5,1.5,1.7,6.2,2.9,19.7,2,24.6,3,52.1,3,81.7v94.7c0,23.4-.4,50.5-1.3,80.7-1.1,40-3.1,49.6-3.9,51.8v.2c0,0-.1.2-.1.2-.2.8-.6,1.8-1.3,2.3-.6.4-2.3,1.3-6.6,2.1-3.7.6-15.1,1.5-48.3,2.2l-7.8.2v38.8l8.3-.3c48.5-1.5,92.8-2.3,131.5-2.3s76.4.8,112,2.3l8.3.4v-39l-7.7-.3c-34.3-1.2-41.7-1.7-43-1.9h-.1s-.1,0-.1,0c-7.4-.9-10-2-10.6-2.3h-.1c0,0-.1-.1-.1-.1-.7-.3-1-.6-1.1-.6v-.2c0,0-.1,0-.1,0-.2-.5-1-2.8-1.6-9.7-.6-7-1.4-27.8-2.6-61.8h0s0,0,0,0c-.6-13.5-.9-34.3-.9-61.9v-73.5c.3-46.8,1.1-87,2.6-119.3l3.4-57.9.3-5.9-5.5-2.1-9-3.4-2.2-.8h0Z"/>
        </g>
        <g>
          <path class="cls-7" d="M3897.6,468c-65.4,0-116.6-12.7-152.3-37.6-36.1-25.3-54.4-62.9-54.4-111.9s8.7-61.3,25.8-83.2c17.1-21.9,42.9-38.5,76.8-49.6,33.5-10.9,73.1-16.4,117.5-16.4,66.8,0,118.4,11.9,153.5,35.4,35.6,23.8,53.6,59.2,53.6,105.2s-5.2,49.6-15.5,69c-10.3,19.4-24.4,35.3-41.7,47.2-17.2,11.7-35.5,20.8-54.4,26.8-32.1,10-68.7,15.1-108.8,15.1ZM3900.2,206.9c-16.5,0-31.2,2.9-43.5,8.7-12,5.6-21.5,15.2-28.3,28.6-6.9,13.6-10.3,34-10.3,60.6,0,49.5,10.9,85.2,32.4,105.9,14.1,13.5,34.6,20.4,60.9,20.4s40.5-5.2,53.5-15.5c17.3-13.7,26-41,26-81.2s-3.6-53.6-10.8-74c-7-19.9-17.2-33.9-30.5-41.6-13.5-7.8-30.2-11.8-49.4-11.8Z"/>
          <path class="cls-6" d="M3911,173.3c66.3,0,116.7,11.6,151.3,34.7,34.6,23.2,51.9,57.1,51.9,101.9s-5,48.2-15.1,67.2c-10,18.9-23.5,34.2-40.5,45.8-16.9,11.6-34.7,20.3-53.4,26.3-31.9,9.9-67.7,14.9-107.6,14.9-64.9,0-114.9-12.3-150-36.9-35.2-24.6-52.7-60.8-52.7-108.6s8.3-59.5,25-80.8c16.6-21.3,41.6-37.4,74.9-48.2,33.3-10.8,72-16.2,116.2-16.2M3911.4,435c23.5,0,42.2-5.5,56-16.4,18.4-14.5,27.6-42.7,27.6-84.4s-3.7-54.4-11-75.3c-7.3-21-18.1-35.5-32.3-43.8-14.2-8.2-31.4-12.3-51.4-12.3s-32.3,3-45.2,9c-12.9,6-23,16.2-30.1,30.4-7.2,14.3-10.8,35.1-10.8,62.4,0,50.9,11.2,87.2,33.6,108.8,14.9,14.3,36.2,21.5,63.7,21.5M3911,165.3c-44.8,0-84.8,5.6-118.7,16.6-34.7,11.3-61.2,28.4-78.7,50.9-17.7,22.7-26.7,51.5-26.7,85.7,0,50.4,18.9,89.1,56.2,115.2,18.3,12.8,40.7,22.5,66.5,28.9,25.5,6.3,55.1,9.5,88.1,9.5s77.5-5.1,110-15.3c19.3-6.1,38-15.3,55.5-27.3,17.9-12.3,32.4-28.6,43-48.6,10.6-20,16-43.9,16-70.9,0-47.4-18.6-83.9-55.4-108.5-18-12.1-40.4-21.2-66.4-27.2-25.7-5.9-55.7-8.9-89.3-8.9h0ZM3911.4,427c-25.3,0-44.9-6.5-58.2-19.3-20.6-19.9-31.1-54.6-31.1-103s3.3-45.8,9.9-58.8c6.4-12.7,15-21.5,26.4-26.8,11.8-5.5,25.9-8.3,41.8-8.3s34.5,3.8,47.4,11.3c12.4,7.2,22.1,20.5,28.7,39.5,7,20,10.5,44.5,10.5,72.7s-8.2,65.2-24.5,78.1c-12.3,9.7-29.4,14.6-51,14.6h0Z"/>
        </g>
        <g>
          <path class="cls-7" d="M4211.2,208.2l1.5-3.1c.8-1.6,2.9-5.2,12.1-18.3,8.7-12.4,10.3-15.1,10.6-15.7v-.2c0,0,.2-.1.2-.1,8-14.7,15.3-29,21.6-42.7,6.4-13.6,11.1-25.4,14-34.8,2.9-9.4,5.1-19.3,6.5-29.6l.4-3,3-.4c4-.6,14.9-2,32.3-4.3,22.5-3,36.8-5.1,42.5-6,11-1.9,24.9-4.7,41.1-8.3l1.6-.4,17.2,10.7-2,3.4c-3.6,6.2-9.5,14.3-18,24.9-31.2,38.4-51.7,63.1-60.8,73.6-15.5,18.4-30.8,34.8-45.5,48.8l-.7.7-60.9,16.5-16.9-11.6Z"/>
          <path class="cls-6" d="M4398,45.6l12.5,7.7c-3.4,5.9-9.3,14.1-17.6,24.4-31.3,38.5-51.5,62.9-60.7,73.5-15.5,18.4-30.6,34.5-45.2,48.5l-58.1,15.8-12.5-8.6c1.1-2.3,5.1-8.2,11.8-17.8,6.7-9.6,10.4-15,11-16.4,8-14.7,15.3-29,21.7-42.9,6.5-13.9,11.2-25.6,14.2-35.3,3-9.7,5.2-19.8,6.7-30.3,4-.6,14.8-2,32.3-4.3,22.7-3.1,36.9-5.1,42.6-6,11.2-1.9,25-4.7,41.3-8.3M4399.5,37.1l-3.2.7c-16.2,3.6-30,6.4-40.9,8.2-5.6.9-19.9,3-42.3,6-17.4,2.3-28.3,3.7-32.3,4.3l-6,.9-.8,6c-1.4,10.1-3.5,19.8-6.4,29-2.9,9.3-7.5,20.8-13.8,34.3-6.3,13.6-13.6,27.9-21.5,42.5l-.2.3v.2c-.4.7-2.2,3.5-10.3,15.1-9.3,13.2-11.5,17-12.5,18.8l-3.1,6.2,5.7,3.9,12.5,8.6,3.1,2.1,3.6-1,58.1-15.8,2-.5,1.5-1.4c14.7-14.1,30.1-30.6,45.8-49.1,9.3-10.7,29.2-34.8,60.8-73.6,8.7-10.8,14.7-19.1,18.4-25.4l3.9-6.7-6.6-4.1-12.5-7.7-2.8-1.7h0Z"/>
        </g>
        <g>
          <path class="cls-7" d="M4604.8,468c-20.2,0-40-1.2-59-3.6-19-2.4-42.5-6.8-69.7-13.1l-1-.2-7.1-6.5.3-2.1c2.3-14.5,3.7-24.9,4.3-31l2.8-51.9h42l.2,3.7c1.3,19.6,2.6,32.5,3.9,38.5,12.2,9.7,25.7,17.1,40.3,21.8,15,4.9,32.6,7.4,52.1,7.4s46.3-4.2,59.9-12.3c13.2-7.9,19.6-17,19.6-27.9s-2-12.7-6.1-17.3c-4.2-4.7-13.2-9.1-26.7-13.3-11.1-2.6-32.6-6.3-63.9-10.8-31.8-4.6-56.3-9.8-72.8-15.4-17-5.8-30.5-14.5-40.1-26-9.8-11.7-14.7-25.5-14.7-41.2,0-27.8,15.7-51.1,46.7-69.3,30.3-17.8,74.3-26.8,130.7-26.8s45.1,1.4,64.7,4.1c19.7,2.7,37.7,6.8,53.7,12.2l1.6.6,2.6,5.7-.3,1.4c-1.7,6.5-2.9,13.2-3.8,19.9-.8,6.8-2.1,23.1-3.9,48.6l-.3,3.8-40.4-.4-.5-3.4c-.3-2.1-.7-5.7-1.3-10.7-.8-8-2.4-15.7-4.7-23.1-8.3-6.9-18.6-12.2-30.6-15.7-12.6-3.7-27.7-5.6-44.7-5.6s-42,3.5-54.7,10.4c-12.1,6.6-17.9,14-17.9,22.6s2.5,15.7,7.6,19.9c5.5,4.5,13.9,8,25,10.4,11.6,2.5,33.5,5.7,64.9,9.6,31.7,3.9,53.4,7.3,64.4,10,16.2,4.1,29.3,9.4,39.1,15.7,10,6.5,17.7,14.6,23.1,24.2,5.3,9.7,8,20.4,8,31.9,0,29.9-17.4,55.3-51.7,75.5-33.6,19.8-81.3,29.8-141.7,29.8Z"/>
          <path class="cls-6" d="M4646.6,174.7c23.2,0,44.6,1.3,64.1,4,19.5,2.7,37.2,6.7,52.9,12.1l1.3,2.9c-1.7,6.7-3,13.5-3.9,20.4-.9,6.9-2.2,23.2-3.9,48.8l-33.1-.3c-.3-2.1-.7-5.6-1.3-10.6-.9-8.6-2.6-16.9-5.2-25-8.9-7.7-19.9-13.4-32.9-17.2-13.1-3.8-28.3-5.7-45.8-5.7s-43.3,3.6-56.6,10.9c-13.3,7.3-20,16-20,26.1s3,18,9,23c6,5,14.9,8.7,26.7,11.2,11.8,2.5,33.5,5.7,65.2,9.6,31.7,3.9,53,7.2,63.9,9.9,15.8,4,28.4,9.1,37.9,15.2,9.5,6.1,16.7,13.7,21.7,22.8,5,9.1,7.5,19.1,7.5,30,0,28.5-16.6,52.5-49.7,72-33.1,19.5-79.7,29.3-139.7,29.3s-39.6-1.2-58.5-3.6c-18.9-2.4-42-6.7-69.3-13.1l-4.7-4.3c2.3-14.7,3.7-25.2,4.3-31.3l2.6-48.2h34.4c1.4,21.4,2.9,34.9,4.3,40.5,12.9,10.5,27.1,18.3,42.6,23.4,15.5,5.1,33.3,7.6,53.4,7.6s47.6-4.3,62-12.9c14.3-8.6,21.5-19,21.5-31.3s-2.4-14.7-7.1-19.9c-4.7-5.3-14.3-10.1-28.6-14.5-11.2-2.7-32.6-6.3-64.4-10.9-31.7-4.6-55.7-9.7-72.1-15.2-16.4-5.5-29.1-13.8-38.3-24.8-9.2-11-13.8-23.9-13.8-38.6,0-26.4,14.9-48.4,44.8-65.9,29.8-17.5,72.8-26.3,128.7-26.3M4646.6,166.7c-28.4,0-53.9,2.3-75.8,6.7-22.2,4.5-41.4,11.5-57,20.6-32.3,19-48.7,43.4-48.7,72.8s5.3,31.3,15.6,43.7c10.1,12.1,24.2,21.3,41.9,27.3,16.7,5.7,41.5,10.9,73.5,15.6,31.1,4.5,52.4,8.1,63.4,10.7,15.9,4.9,22.2,9.3,24.8,12.1,3.4,3.8,5,8.6,5,14.6,0,9.3-5.8,17.3-17.6,24.4-13,7.8-32.5,11.8-57.9,11.8s-36.3-2.4-50.9-7.2c-13.6-4.5-26.4-11.3-37.9-20.3-.9-4.9-2.1-15.2-3.5-36.5l-.5-7.5h-49.5l-.4,7.6-2.6,48c-.6,6-2,16.3-4.2,30.6l-.7,4.3,3.2,2.9,4.7,4.3,1.5,1.4,2,.5c27.4,6.3,51,10.8,70.1,13.2,19.2,2.4,39.2,3.7,59.5,3.7,30.4,0,57.8-2.5,81.5-7.5,24-5,45-12.7,62.2-22.9,35.6-21,53.7-47.5,53.7-78.9s-2.9-23.6-8.5-33.9c-5.6-10.2-13.9-18.8-24.4-25.7-10.2-6.6-23.7-12-40.3-16.2h0s0,0,0,0c-11.3-2.8-32.5-6.1-64.9-10.1-31.3-3.9-53-7.1-64.5-9.5-10.4-2.2-18.3-5.4-23.3-9.5-4.1-3.4-6.1-8.9-6.1-16.8s11.9-17,15.8-19.1c12.1-6.6,29.9-9.9,52.8-9.9s31.3,1.8,43.6,5.4c11.1,3.2,20.5,8,28.2,14.2,2,6.8,3.4,13.9,4.1,21.1h0c0,0,0,.1,0,.1.6,5.1,1,8.6,1.3,10.8l.9,6.9h6.9c0,0,33.1.3,33.1.3h7.5c0,0,.5-7.5.5-7.5,1.7-25.4,3-41.6,3.8-48.3.8-6.5,2.1-13,3.7-19.4l.7-2.7-1.2-2.6-1.3-2.9-1.4-3.2-3.3-1.1c-16.2-5.5-34.5-9.7-54.4-12.4-19.8-2.7-41.7-4.1-65.2-4.1h0Z"/>
        </g>
      </g>
      <g>
        <g>
          <path class="cls-4" d="M1471.5,964.2c-32.3-1-68.7-1.4-108.4-1.4s-90.8.5-138.5,1.4h-4.1c0,0,0-30.1,0-30.1h4c22,0,37.3-1,45.5-3,3.1-.7,5.5-1.9,6.9-3.6,1.6-2.1,3.5-6.9,3.8-18.2v-.2s1.7-25.5,1.7-25.5c.3-5.3.4-14,.4-25.8v-37.6c0-16.8-.9-37.6-2.6-61.7-1-14.4-2.3-17.8-2.7-18.4-.7-.7-2.3-1.7-5.4-2.3-3.6-.9-14.8-2.1-47.9-2.8h-3.9v-29.7l3.5-.4c51.9-5.9,86.4-10.3,102.6-13.2,16.1-2.8,34.6-7.4,55.1-13.7l1.2-.4,15.7,4.6-.8,53.2c15.4-10.7,27.6-19.9,36.4-27.2h0c15.3-12.3,26.6-19.8,34.5-23.3,10.8-4.8,25.1-7.2,42.5-7.2s21,1.2,29.9,3.6l3.2.8-2.8,44c-1.3,33.5-2,37.3-2.2,38.6l-.5,2.7-22.7,4.7-1.5-1.3c-6.8-6-13.3-10.2-19.4-12.5-10.1-3.8-21.4-5.8-33.5-5.8s-30.2,3.3-41.7,9.9c-11.2,6.4-17.9,12.8-19.9,19-.6,2.3-1.6,11.5-1.6,47.4v28.7l.9,38.9c.4,18.6,1.5,24.1,2.1,25.8.9,2.3,3.1,4.2,6.6,5.6,2.9,1.2,10.1,2.8,28.4,3.7l39.1,2.5v30h-4.1Z"/>
          <path class="cls-6" d="M1511.3,681.8c10.6,0,20.2,1.1,28.8,3.4l-2.6,40.8c-.9,22.2-1.6,34.9-2.2,38.2l-18.1,3.7c-7.2-6.3-14.1-10.7-20.7-13.2-10.6-4-22.2-6-34.9-6s-31.5,3.5-43.7,10.5c-12.2,7-19.4,14.1-21.7,21.4-1.1,4.2-1.7,20.4-1.7,48.5v28.7l.9,39c.3,14.7,1.1,23.8,2.4,27.1,1.3,3.3,4.2,6,8.8,7.9,4.6,1.9,14.5,3.3,29.7,4l35.3,2.3v22.1c-32.4-1-68.6-1.4-108.5-1.4s-90.7.5-138.6,1.4v-22.1c22.4,0,37.9-1,46.5-3.2,4-1,7-2.6,9-4.9,2.9-3.6,4.4-10.5,4.7-20.7l1.7-25.5c.3-5.4.4-14.1.4-26.1v-37.6c0-17-.9-37.7-2.6-62-.9-12.2-2.1-19.2-3.7-20.8-1.6-1.6-4.1-2.8-7.5-3.6-5.5-1.3-21.7-2.3-48.6-2.9v-22.1c52.2-5.9,86.5-10.3,102.9-13.2,16.4-2.9,34.9-7.5,55.5-13.8l11.6,3.4-.9,58c18.7-12.8,33-23.4,43-31.9,14.9-11.9,26.1-19.4,33.6-22.7,10.3-4.6,24-6.9,40.9-6.9M1382.9,673.4l-2.3.7c-20.3,6.2-38.6,10.7-54.6,13.5-16.2,2.8-50.6,7.3-102.4,13.1l-7.1.8v37.1l7.8.2c34.4.7,44.2,2,46.9,2.6h0s0,0,0,0c1.5.3,2.4.7,2.9,1,.4,1.6,1.3,5.8,2,16.2,1.7,24,2.6,44.7,2.6,61.4v37.6c0,11.7-.1,20.4-.4,25.6l-1.7,25.5v.2s0,.2,0,.2c-.3,11-2.2,14.7-2.9,15.8-.9.9-2.5,1.7-4.7,2.2h0s0,0,0,0c-7.9,1.9-22.9,2.9-44.6,2.9h-8v38.3l8.2-.2c47.7-1,94.3-1.4,138.5-1.4s76,.5,108.2,1.4l8.2.2v-37.8l-7.5-.5-35.3-2.3h0s0,0,0,0c-19.3-1-25.3-2.7-27-3.4-1.7-.7-3.9-1.9-4.4-3.4-.2-.6-1.5-4.8-1.8-24.4l-.9-39v-28.6c0-37,1-44.7,1.4-46.3,1.2-3.6,5.4-9.4,18-16.7,10.9-6.2,24.3-9.4,39.7-9.4s22.4,1.9,32,5.5c5.7,2.1,11.8,6.1,18.2,11.7l3,2.6,3.9-.8,18.1-3.7,5.3-1.1.9-5.4c.4-2.3,1.1-8.9,2.3-39.1l2.6-40.7.4-6.5-6.3-1.7c-9.2-2.5-19.6-3.7-30.9-3.7-18,0-32.8,2.5-44.1,7.6-8.2,3.6-19.7,11.3-35.3,23.7h0c0,0,0,.1,0,.1-7.4,6.2-17.4,13.7-29.7,22.5l.6-42.4v-6.1c0,0-5.7-1.7-5.7-1.7l-11.6-3.4-2.3-.7h0Z"/>
        </g>
        <g>
          <path class="cls-4" d="M1829.1,974.2c-28.5,0-54.1-2.2-75.9-6.7-21.9-4.4-40.9-10.6-56.5-18.4-15.6-7.8-29.6-17.5-41.4-28.8-12-11.5-20.8-24.9-26.2-40-5.3-14.9-8-31.4-8-49,0-25.6,5.2-48.8,15.5-69,7.2-14.3,15.7-24.9,25.5-31.4,6-4,20.8-11.1,45.4-21.9,24.2-10.5,42-17.5,53-20.8,20.4-6,44.7-9.1,72.2-9.1s71.2,5.5,96.3,16.4c25.3,11,43.5,25.3,54.1,42.6,10.5,17.2,15.9,38.3,15.9,62.6s-.3,10.8-.9,16l-.3,2.9-2.8.6c-7.2,1.5-18.4,3.3-33,5.2-19.8,2.5-32.9,3.9-40,4-21.5,1.1-50.3,1.8-85.4,2-35,.2-54.7.4-58.4.6-3.8.2-8,.3-12.7.3h-24c3.2,26.8,16.6,48.4,40,64.3,25,17,56.4,25.6,93.3,25.6s31-1.2,44.5-3.5c13.5-2.3,31.6-7.3,53.7-14.6l2-.7,15,11.6-21.7,32.2-1.1.5c-23.7,9.6-48.4,16.8-73.5,21.5-18.8,3.3-40.5,4.9-64.4,4.9ZM1737.9,793.5c17.1,1.5,44.2,2.2,80.9,2.2s43.2-.7,59.4-2.2c.5-27.2-5.3-46.5-17.3-57.4-12.9-11.3-30-17-50.7-17s-39.1,6-52.9,18c-13.3,11.4-19.8,30.4-19.4,56.5Z"/>
          <path class="cls-6" d="M1832.6,683.2c38.5,0,70,5.4,94.7,16.1,24.7,10.7,42.1,24.4,52.3,41,10.2,16.6,15.3,36.8,15.3,60.6s-.3,10.5-.9,15.5c-7.2,1.5-18.1,3.3-32.7,5.2-19.5,2.5-32.7,3.8-39.6,4-21.5,1.1-49.9,1.8-85.2,2-35.3.2-54.8.4-58.5.6-3.7.2-7.9.3-12.5.3h-28.4c2.3,30.2,16.4,54.1,42.2,71.6,25.8,17.5,57.7,26.3,95.6,26.3s31.4-1.2,45.2-3.6c13.8-2.4,31.9-7.3,54.2-14.8l10.3,8-18.9,28.1c-23.5,9.6-47.8,16.6-72.8,21.2-18.7,3.3-39.9,4.9-63.7,4.9s-53.5-2.2-75.1-6.6c-21.7-4.4-40.2-10.4-55.5-18.1-15.4-7.7-28.8-17-40.5-28.1-11.6-11.1-20-23.9-25.2-38.5-5.2-14.5-7.7-30.4-7.7-47.6,0-25.1,5-47.4,15.1-67.2,6.9-13.8,14.9-23.7,24.1-29.8,5.7-3.8,20.7-11,44.8-21.5,24.1-10.5,41.6-17.4,52.5-20.7,20.1-5.9,43.8-8.9,71-8.9M1818.8,799.7c25.3,0,46.3-.9,63.3-2.6,1.1-30.4-5-51.8-18.5-64-13.8-12.1-31.6-18.1-53.4-18.1s-40.9,6.3-55.5,18.9c-14.9,12.8-21.8,33.9-20.7,63.1,16.9,1.7,45.2,2.6,84.8,2.6M1832.6,675.2c-27.9,0-52.6,3.1-73.3,9.2-11.3,3.4-28.8,10.2-53.5,21-24.8,10.8-39.8,18.1-46,22.2-10.3,6.9-19.3,17.9-26.8,32.9-10.6,20.7-15.9,44.5-15.9,70.8s2.8,35,8.2,50.3c5.6,15.7,14.7,29.7,27.2,41.6,12.2,11.6,26.4,21.5,42.4,29.5,15.9,7.9,35.3,14.2,57.5,18.8,22.1,4.5,47.9,6.8,76.7,6.8s46-1.7,65.1-5h0s0,0,0,0c25.4-4.7,50.4-12,74.3-21.7l2.3-.9,1.4-2,18.9-28.1,4.2-6.2-5.9-4.6-10.3-8-3.4-2.6-4.1,1.4c-21.9,7.3-39.8,12.2-53.1,14.5-13.2,2.3-28,3.5-43.8,3.5-36.1,0-66.7-8.4-91.1-24.9-21.4-14.5-33.8-33.2-37.7-57h19.4c4.7,0,9.1-.1,12.9-.3,2.5-.1,14.6-.3,58.2-.6,35.1-.2,63.9-.9,85.5-2,7.2-.2,20.4-1.5,40.3-4.1,14.8-1.9,26-3.7,33.4-5.3l5.6-1.2.7-5.7c.6-5.3.9-10.8.9-16.4,0-25.1-5.5-46.9-16.5-64.7-11-18-29.8-32.9-55.9-44.2-25.6-11.1-58.5-16.7-97.9-16.7h0ZM1741.9,789.8c.2-22.9,6.3-39.6,18-49.7,13.3-11.4,29.7-17,50.3-17s35.7,5.3,48.1,16.1c10.6,9.6,15.9,26.7,16,50.7-15.4,1.3-34,1.9-55.4,1.9-34.1,0-59.9-.6-76.9-1.9h0Z"/>
        </g>
        <g>
          <path class="cls-4" d="M2204.3,971.6c-32,0-57.4-6.4-75.7-19.1-18.7-13-28.2-31.8-28.2-56.1s4.3-30,12.7-40.7c8.2-10.3,17.2-18.1,26.7-23,9.4-4.9,23.5-9.5,42.9-14,44.3-10.5,93.3-18.8,145.9-24.9-.2-19.9-6.6-34.7-19.6-45.3-14.1-11.2-36.1-16.9-65.5-16.9s-23.7,1-34.6,3.1c-4.3.8-9.4,2.5-15.2,5l-18.8,30.1-35.5-5.2,3-43.1,2.2-1c21.2-9.6,41.7-18,61-25.1,19.6-7.2,33-11.5,41.1-13.1,10.8-2.1,26.1-3.2,45.5-3.2,31.5,0,57.9,3.1,78.4,9.2,20.7,6.2,36.2,13.6,46.2,22.2,10.1,8.6,17.1,18,20.9,28,3.7,9.8,5.6,22.3,5.6,37s-.7,22-2.2,48.1c-.9,17-1.3,31.2-1.3,42,0,41.6,2.2,55.9,4,60.5h0c0,.1,0,.2,0,.2.7,2.3,2.1,3.6,4.4,4.4,2.9,1,12.6,2.4,42.4,3.8l3.8.2v29.5h-4.1c-32.9-1.1-62.4-1.6-87.7-1.6s-47.5.5-70,1.4h-1.5c0,0-6.7-5.4-6.7-5.4l3.4-32.8c-14,6.5-42.4,20.7-84.8,42.4l-.6.3h-.7c-13.1,2-25.7,3-37.6,3ZM2328.5,826.2c-22.4,3.3-43.3,7.2-62,11.8-19.5,4.7-33,10.5-40.2,17.1-7,6.4-10.3,14.4-10.3,24.2s4,19.2,12.3,25.2c8.6,6.2,20.2,9.3,34.5,9.3s25-2.4,37.5-7.2c11.8-4.5,21.3-10.2,28.2-16.9v-63.5Z"/>
          <path class="cls-6" d="M2292.1,683.2c31.3,0,57,3,77.3,9,20.2,6,35.2,13.2,44.8,21.4,9.6,8.2,16.2,17,19.8,26.4,3.6,9.4,5.4,21.2,5.4,35.6s-.7,22.1-2.2,47.9c-.9,17.2-1.3,31.3-1.3,42.2,0,34.1,1.4,54.7,4.3,62,1.1,3.4,3.4,5.7,6.9,6.9,4.6,1.5,19.1,2.9,43.5,4v21.5c-33-1-62.3-1.4-87.8-1.4s-47.5.5-70.2,1.4l-3.9-3.2,3.9-37.6c-10.3,4.4-40.8,19.5-91.3,45.3-12.9,1.9-25.3,2.9-37,2.9-31.3,0-55.7-6.1-73.4-18.4-17.6-12.2-26.5-29.8-26.5-52.8s3.9-28.2,11.8-38.2c7.9-9.9,16.4-17.3,25.4-22,9-4.7,23-9.2,42-13.6,45.3-10.7,95-19.1,148.9-25.3.6-22.8-6.5-40.1-21.1-51.9-14.9-11.9-37.6-17.8-68-17.8s-24.1,1.1-35.3,3.2c-4.9,1-10.6,2.9-17.2,5.7l-18.1,29-29.3-4.3,2.6-37c21.2-9.6,41.5-17.9,60.7-25,19.2-7.1,32.7-11.4,40.5-12.9,10.6-2.1,25.5-3.2,44.8-3.2M2262.8,917.7c12.9,0,25.9-2.5,39-7.5,13.1-5,23.3-11.3,30.8-18.9v-69.7c-24.4,3.4-46.7,7.6-66.9,12.5-20.2,4.9-34.2,10.9-42,18.1-7.7,7.2-11.6,16.2-11.6,27.1s4.7,21.7,14,28.4c9.3,6.7,21.6,10,36.8,10M2292.1,675.2c-19.9,0-35.1,1.1-46.3,3.3-8.2,1.6-21.9,6-41.7,13.3-19.3,7.1-39.9,15.6-61.2,25.2l-4.4,2-.3,4.8-2.6,37-.5,7.4,7.3,1.1,29.3,4.3,5.2.8,2.8-4.4,16.7-26.8c5.1-2.1,9.5-3.5,13.3-4.3,10.6-2,22-3,33.8-3,28.4,0,49.6,5.4,63,16,11.2,9.1,17.1,21.8,18,38.6-51.3,6.1-99.3,14.3-142.7,24.6-19.8,4.6-34.1,9.3-43.8,14.3-10,5.2-19.4,13.3-28,24.1-9,11.3-13.6,25.9-13.6,43.1,0,25.6,10.1,45.6,29.9,59.4,18.9,13.1,45.2,19.8,78,19.8s24.9-1,38.2-3l1.3-.2,1.2-.6c36.7-18.7,62.8-31.9,78.2-39.3l-2.4,23.6-.4,4.3,3.3,2.7,3.9,3.2,2.4,1.9h3c22.5-1.1,46-1.6,69.8-1.6s54.8.5,87.6,1.4l8.2.2v-37.4l-7.6-.4c-32-1.5-39.6-3-41.3-3.6-1.1-.4-1.5-.8-1.8-1.8v-.2c0,0-.2-.2-.2-.2-1.4-3.5-3.7-15.9-3.7-59.1s.4-24.8,1.3-41.8c1.5-26.2,2.2-42,2.2-48.3,0-15.3-2-28.2-5.9-38.4-4.1-10.6-11.5-20.6-22.1-29.6-10.6-9.1-26.2-16.6-47.7-23-20.9-6.2-47.6-9.4-79.6-9.4h0ZM2262.8,909.7c-13.4,0-24.3-2.9-32.1-8.5-7.3-5.2-10.7-12.2-10.7-21.9s3-15.6,9.1-21.3c6.7-6.2,19.6-11.6,38.4-16.2,17.4-4.2,36.5-7.9,57.1-11v57.1c-6.4,5.8-15,10.8-25.6,14.9-12.1,4.6-24.2,6.9-36.1,6.9h0Z"/>
        </g>
        <g>
          <path class="cls-4" d="M2736.9,970.2c-33.9,0-61-5.9-80.6-17.6-20.3-12.1-30.6-27.6-30.6-46.1l1.7-94.8v-66.8h-7.6c-15.7,0-30.8.3-45,.9l-4.2.2v-19.7l41.2-17.4c5.4-2.3,10.6-4.8,15.6-7.3v-36c0-13.5-1.2-30.6-3.4-50.6l-.4-3.6,3.5-.8c27.7-6.1,45.9-10.2,54.1-12.3,1.3-.3,19.6-6,54.5-16.9l1.6-.5,15.2,7.8-4.7,32.6-3,32.9-3.5,45.9h9.9c37.9,0,66.8-1,86.1-2.9l5.3-.5-8.9,46.9-2.9.3c-3.5.4-6.9.6-9.9.6l-42.2-.6h-37.7v91.9c0,29.1.4,46.5,1.2,51.6h0c1,7.9,5.1,13.9,12.5,18.3,7.8,4.7,19.5,7,34.8,7,2.8,0,5.5,0,7.9,0,6,0,11.2-.2,15.2-.5,5.7-.5,13.3-1.4,22.3-2.7l2.7-.4,10.2,17.3-18.6,12.4c-11.3,7.7-22.5,15.3-33.1,22.6l-.5.4-.6.2c-11.3,3.3-21.6,5.5-30.6,6.6-8.9,1.1-18.1,1.6-27.4,1.6Z"/>
          <path class="cls-6" d="M2736.9,585.1l11.2,5.7-4.3,29.8-3,33-3.9,50.2h14.2c38.2,0,67-1,86.5-2.9l-7.3,38.7c-3.4.4-6.6.6-9.5.6l-42.2-.6h-41.8v95.9c0,29.5.4,46.9,1.3,52.2,1.1,9,6,16,14.4,21.1,8.5,5.1,20.7,7.6,36.8,7.6,2.8,0,5.4,0,7.9,0,6.2,0,11.4-.2,15.6-.5,5.9-.5,13.4-1.4,22.6-2.7l6.9,11.8-15.5,10.3c-12.6,8.6-23.7,16.2-33.1,22.7-11.2,3.3-21.2,5.4-29.9,6.5-8.8,1-17.7,1.6-26.9,1.6-33.3,0-59.5-5.7-78.6-17.1-19.1-11.4-28.6-25.6-28.6-42.6l1.7-94.7v-70.9h-11.6c-15.8,0-30.9.3-45.2.9v-12.9l38.7-16.4c6.3-2.7,12.3-5.5,18.1-8.6v-38.5c0-13.8-1.1-30.8-3.4-51.1,27.8-6.1,45.9-10.2,54.2-12.3,1.4-.4,19.7-6,54.7-16.9M2737.7,576.5l-3.1,1c-34.2,10.7-52.5,16.3-54.3,16.8-8.2,2.1-26.3,6.2-53.9,12.3l-7,1.5.8,7.2c2.3,19.9,3.4,36.8,3.4,50.2v33.6c-4.2,2.1-8.7,4.2-13.2,6.1l-38.7,16.4-4.9,2.1v26.5l8.3-.3c14.2-.6,29.3-.9,44.9-.9h3.6v62.8l-1.7,94.6h0c0,20.1,10.9,36.8,32.5,49.6,20.3,12.1,48.1,18.2,82.7,18.2s18.8-.6,27.9-1.6c9.1-1.1,19.6-3.4,31.2-6.7l1.2-.4,1.1-.7c10.6-7.3,21.7-14.9,33.1-22.6l15.5-10.3,6.3-4.2-3.8-6.5-6.9-11.8-2.7-4.7-5.3.8c-9,1.3-16.4,2.2-22.1,2.7-4,.3-9,.5-14.9.5s-5,0-7.7,0h0s0,0,0,0c-14.5,0-25.5-2.2-32.7-6.5-6.4-3.8-9.8-8.7-10.6-15.2h0c0-.1,0-.3,0-.3-.5-3.4-1.2-15-1.2-51v-87.9h33.7l42.1.6h0s0,0,0,0c3.2,0,6.7-.2,10.4-.6l5.9-.7,1.1-5.8,7.3-38.7,2-10.5-10.6,1c-19.2,1.9-48,2.8-85.7,2.8h-5.6l3.2-41.6,3-32.7,4.3-29.6.8-5.7-5.1-2.6-11.2-5.7-2.9-1.5h0Z"/>
        </g>
        <g>
          <path class="cls-4" d="M2918.2,935.1l3.8-.2c41.4-2,51.5-3.8,53.8-4.7,3.4-1.3,5.3-3.7,6.2-7.4v-.2c2.8-10.1,4.2-37.1,4.2-80.2,0-73.7-2-95.6-3.7-101-.8-2.7-1.9-4.4-3.4-5-2.9-1.3-14.2-3.4-56.9-3.7h-4v-29.5l3.7-.3c43-3,75.9-6.3,97.8-9.7,21.9-3.4,46-8.7,71.9-15.7l1.2-.3,14.5,5.2-.4,3.1c-3.4,29.6-5.1,57.7-5.1,83.6v97.6c0,40.7,1.7,53.8,3.2,57.7h0c.7,2.4,2.1,3.7,4.4,4.5,7.3,2.3,25.9,3.9,55.2,4.7h3.9v30.5h-4.1c-40.7-.8-85.4-1.2-132.9-1.2s-77.7.4-109.2,1.1h-4.1c0,0,0-29.1,0-29.1ZM3040.2,636.7c-18.8,0-35.2-4.6-48.7-13.6-14-9.4-21.2-21-21.2-34.6s7-25,20.9-34.3c13.4-9,29.8-13.6,48.9-13.6s35.6,4.6,48.9,13.6c13.9,9.4,20.9,20.9,20.9,34.3s-7,25.2-20.9,34.6c-13.4,9-29.9,13.6-48.9,13.6Z"/>
          <path class="cls-6" d="M3040.2,544.6c18.4,0,33.9,4.3,46.7,12.9,12.8,8.6,19.2,18.9,19.2,31s-6.4,22.7-19.2,31.3c-12.8,8.6-28.3,12.9-46.7,12.9s-33.6-4.3-46.5-12.9-19.4-19-19.4-31.3,6.4-22.4,19.2-31c12.8-8.6,28.3-12.9,46.7-12.9M3092.7,681.5l10.3,3.7c-3.4,29.8-5.2,57.9-5.2,84.1v97.6c0,33.3,1.1,53,3.4,59.1,1.1,3.4,3.4,5.7,6.9,6.9,7.7,2.5,26.5,4.1,56.4,4.9v22.4c-40.8-.8-85.1-1.1-133-1.1s-77.8.4-109.3,1.1v-21.2c32.1-1.5,50.5-3.2,55.1-5,4.6-1.8,7.5-5.2,8.6-10.2,2.9-10.5,4.3-37.6,4.3-81.2s-1.3-93.9-3.9-102.2c-1.1-3.8-3-6.3-5.6-7.5-5.7-2.5-25.3-3.8-58.5-4v-21.8c43.3-3.1,76-6.3,98.2-9.8,22.1-3.4,46.2-8.7,72.3-15.8M3040.2,536.6c-19.9,0-37.1,4.8-51.2,14.3-15.1,10.1-22.7,22.8-22.7,37.6s7.7,27.8,22.9,37.9c14.2,9.5,31.3,14.3,50.9,14.3s37.1-4.8,51.2-14.3c15.1-10.2,22.7-22.9,22.7-37.9s-7.6-27.5-22.7-37.6c-14.1-9.5-31.3-14.3-51.2-14.3h0ZM3093,673.1l-2.4.7c-25.7,7-49.7,12.2-71.5,15.6-21.8,3.4-54.6,6.7-97.5,9.7l-7.4.5v37.2h8c44.2.3,53.5,2.6,55.3,3.4.1.1.7.8,1.2,2.5h0s0,0,0,0c1.3,4.2,3.5,22.7,3.5,99.8s-2.2,72.4-4,79.1h0c0,.1,0,.3,0,.3-.6,2.4-1.6,3.7-3.8,4.6-1.4.5-9.3,2.4-52.5,4.5l-7.6.4v37.1l8.2-.2c31.5-.8,68.2-1.1,109.1-1.1s92.2.4,132.9,1.1l8.1.2v-38.3l-7.8-.2c-35.9-.9-49.3-2.9-54.1-4.5-1-.3-1.4-.8-1.8-1.8h0c0-.1,0-.3,0-.3-.9-2.3-2.9-12.5-2.9-56.3v-97.6c0-25.8,1.7-53.8,5.1-83.2l.7-6.3-6-2.2-10.3-3.7-2.4-.9h0Z"/>
        </g>
        <g>
          <path class="cls-4" d="M3470,974.2c-65.4,0-116.6-12.7-152.3-37.6-36.1-25.3-54.4-62.9-54.4-111.9s8.7-61.3,25.8-83.2c17.1-21.9,42.9-38.5,76.8-49.6,33.5-10.9,73.1-16.4,117.5-16.4,66.8,0,118.4,11.9,153.5,35.4,35.6,23.8,53.6,59.2,53.6,105.2s-5.2,49.6-15.5,69c-10.3,19.4-24.4,35.3-41.7,47.2-17.2,11.7-35.5,20.8-54.4,26.8-32.1,10-68.7,15.1-108.8,15.1ZM3472.5,713c-16.5,0-31.2,2.9-43.5,8.7-12,5.6-21.5,15.2-28.3,28.6-6.9,13.6-10.3,34-10.3,60.6,0,49.5,10.9,85.2,32.4,105.9,14.1,13.5,34.6,20.4,60.9,20.4s40.5-5.2,53.5-15.5c17.3-13.7,26-41,26-81.2s-3.6-53.6-10.8-74c-7-19.9-17.2-33.9-30.5-41.6-13.5-7.8-30.2-11.8-49.4-11.8Z"/>
          <path class="cls-6" d="M3483.3,679.5c66.3,0,116.7,11.6,151.3,34.7,34.6,23.2,51.9,57.1,51.9,101.9s-5,48.2-15.1,67.2c-10,18.9-23.5,34.2-40.5,45.8-16.9,11.6-34.7,20.3-53.4,26.3-31.9,9.9-67.7,14.9-107.6,14.9-64.9,0-114.9-12.3-150-36.9-35.2-24.6-52.7-60.8-52.7-108.6s8.3-59.5,25-80.8c16.6-21.3,41.6-37.4,74.9-48.2,33.3-10.8,72-16.2,116.2-16.2M3483.7,941.2c23.5,0,42.2-5.5,56-16.4,18.4-14.5,27.6-42.7,27.6-84.4s-3.7-54.4-11-75.3c-7.3-21-18.1-35.5-32.3-43.8-14.2-8.2-31.4-12.3-51.4-12.3s-32.3,3-45.2,9c-12.9,6-23,16.2-30.1,30.4-7.2,14.3-10.8,35.1-10.8,62.4,0,50.9,11.2,87.2,33.6,108.8,14.9,14.3,36.2,21.5,63.7,21.5M3483.3,671.5c-44.8,0-84.8,5.6-118.7,16.6-34.7,11.3-61.2,28.4-78.7,50.9-17.7,22.7-26.7,51.5-26.7,85.7,0,50.4,18.9,89.1,56.2,115.2,18.3,12.8,40.7,22.5,66.5,28.9,25.5,6.3,55.1,9.5,88.1,9.5s77.5-5.1,110-15.3c19.3-6.1,38-15.3,55.5-27.3,17.9-12.3,32.4-28.6,43-48.6,10.6-20,16-43.9,16-70.9,0-47.4-18.6-83.9-55.4-108.5-18-12.1-40.4-21.2-66.4-27.2-25.7-5.9-55.7-8.9-89.3-8.9h0ZM3483.7,933.2c-25.3,0-44.9-6.5-58.2-19.3-20.6-19.9-31.1-54.6-31.1-103s3.3-45.8,9.9-58.8c6.4-12.7,15-21.5,26.4-26.8,11.8-5.5,25.9-8.3,41.8-8.3s34.5,3.8,47.4,11.3c12.4,7.2,22.1,20.5,28.7,39.5,7,20,10.5,44.5,10.5,72.7s-8.2,65.2-24.5,78.1c-12.3,9.7-29.4,14.6-51,14.6h0Z"/>
        </g>
        <g>
          <path class="cls-4" d="M4284.9,964.2c-38.9-1.3-71-2-95.4-2s-53,.7-73.8,2h-1.3c0,0-11-7.2-11-7.2l.4-2.5c.6-3.9,2.4-20.1,5.6-49.4l2.1-46.9v-22.6c0-32.9-1.9-54.6-5.6-64.6-3.5-9.5-10.9-17.3-22-23.2-11.4-6.1-27-9.1-46.3-9.1s-35.6,3.1-48.2,9.2c-12.4,6-20.2,11.9-23.2,17.6-.6,1.1-2.5,7.7-2.1,44v48.3c0,13.9.6,31.1,1.7,51.1h0c.3,10.8,1.8,14.5,2.7,15.7,1,1.5,2.3,2.5,3.9,3.2,2.2,1,7.2,2.4,19.2,4,3.2.4,15.3,1.1,35.9,2.3l3.8.2v30h-4.1c-31.2-.9-69.9-1.2-114.8-1.2s-93.2.4-122.2,1.1h-4.1c0,.1,0-30.1,0-30.1h4c22,0,37.3-1,45.5-3,3.1-.7,5.5-1.9,6.9-3.6,1.6-2.1,3.5-6.9,3.8-18.2v-.2s1.7-25.5,1.7-25.5c.3-5.3.4-14,.4-25.8v-37.6c0-16.8-.9-37.6-2.6-61.7-1-14.4-2.3-17.8-2.7-18.4-.7-.7-2.3-1.7-5.4-2.3-3.6-.9-14.8-2.1-47.9-2.8h-3.9v-29.7l3.5-.4c51.9-5.9,86.4-10.3,102.6-13.2,16.1-2.8,34.6-7.4,55.1-13.7l1.2-.4,15.6,4.6v42.5l72.9-39h.5c9.6-2.6,17.8-4.4,24.4-5.2,6.6-.9,15.8-1.3,27.4-1.3,31,0,54.6,2.4,70.2,7.1,15.8,4.7,29.3,11.5,40.3,20.1,11.1,8.7,19,17.9,23.5,27.6,4.6,9.7,6.8,24.2,6.8,44.3s-.3,35.9-.9,42h0c-.3,2.2-.4,4.9-.4,7.9l.4,29.5c.3,32,1.1,51.9,2.3,59.4,1.1,6.3,3.1,10.4,5.8,12,1.9,1.1,7.4,2.9,23.8,3.6,4.9.2,12.8.7,24.2,1.4l3.7.3v30h-4.1Z"/>
          <path class="cls-6" d="M3948.4,681.8l11.6,3.4v46.2l78.3-41.9c9.5-2.5,17.4-4.2,23.9-5,6.5-.9,15.4-1.3,26.9-1.3,30.7,0,53.7,2.3,69.1,6.9,15.3,4.6,28.3,11,39,19.4,10.6,8.3,18.1,17,22.4,26.1,4.3,9.1,6.5,23.3,6.5,42.6s-.3,35.7-.9,41.6c-.3,2.3-.4,5.1-.4,8.3l.4,29.6c.3,32.3,1.1,52.3,2.4,60,1.3,7.7,3.9,12.6,7.7,14.8,3.9,2.2,12.4,3.6,25.6,4.2,4.9.2,12.9.7,24.1,1.4v22.1c-39-1.3-70.9-2-95.6-2s-53.1.7-74,2l-7.7-5.2c.6-4,2.4-20.6,5.6-49.6l2.2-47.1v-22.7c0-33.5-1.9-55.5-5.8-66-3.9-10.5-11.8-19-23.9-25.4-12.1-6.4-28.1-9.6-48.2-9.6s-36.7,3.2-49.9,9.6c-13.2,6.4-21.5,12.9-25,19.4-2,3.8-2.9,19.1-2.6,45.9v48.2c0,14,.6,31.1,1.7,51.4.3,9,1.4,14.9,3.4,17.8,1.4,2.1,3.3,3.6,5.6,4.6,3.4,1.5,10.2,3,20.2,4.3,3.4.4,15.5,1.1,36.2,2.3v22.1c-31.3-.8-69.6-1.1-114.9-1.1s-93.3.4-122.3,1.1v-22.1c22.4,0,37.9-1,46.5-3.2,4-1,7-2.6,9-4.9,2.9-3.6,4.4-10.5,4.7-20.7l1.7-25.5c.3-5.4.4-14.1.4-26.1v-37.6c0-17-.9-37.7-2.6-62-.9-12.2-2.1-19.2-3.7-20.8-1.6-1.6-4.1-2.8-7.5-3.6-5.5-1.3-21.7-2.3-48.6-2.9v-22.1c52.2-5.9,86.5-10.3,102.9-13.2s34.9-7.5,55.5-13.8M3948.4,673.4l-2.3.7c-20.3,6.2-38.6,10.7-54.6,13.5-16.2,2.8-50.6,7.3-102.4,13.1l-7.1.8v37.1l7.8.2c34.4.7,44.2,2,46.9,2.6h0s0,0,0,0c1.5.3,2.4.7,2.9,1,.4,1.6,1.3,5.8,2,16.2,1.7,24,2.6,44.7,2.6,61.4v37.6c0,11.7-.1,20.3-.4,25.6l-1.7,25.5v.2s0,.2,0,.2c-.3,11-2.2,14.7-2.9,15.8-.9.9-2.5,1.7-4.7,2.2h0s0,0,0,0c-7.9,1.9-22.9,2.9-44.6,2.9h-8v38.3l8.2-.2c28.9-.8,69.9-1.1,122-1.1s83.6.4,114.7,1.1l8.2.2v-37.9l-7.6-.4c-20.3-1.1-32.3-1.9-35.6-2.2-12-1.6-16.4-3-17.9-3.7h0s0,0,0,0c-.9-.4-1.5-.9-2-1.7h0s0,0,0,0c0,0-1.7-2.6-2-13.5h0c0-.1,0-.2,0-.2-1.1-20-1.7-37.1-1.7-50.9v-48.2h0s0,0,0,0c-.4-33.4,1.2-40.7,1.7-42.2,1.8-3.4,7.1-8.8,21.3-15.8,12-5.8,27.7-8.8,46.4-8.8s33.6,2.9,44.5,8.7c10.4,5.5,16.9,12.4,20.1,21.1,2.4,6.6,5.3,22.9,5.3,63.2v22.5l-2.1,46.6c-3.1,28.8-5,45.3-5.5,49.1l-.7,5,4.2,2.8,7.7,5.2,2.2,1.5,2.7-.2c20.7-1.3,45.5-2,73.5-2s56.5.7,95.3,2l8.3.3v-37.9l-7.5-.5c-11.4-.8-19.4-1.3-24.3-1.4-16.6-.7-21-2.6-22-3.1-1.2-.7-2.9-3.5-3.8-9.2-.8-5-1.9-19.2-2.3-58.7l-.4-29.5c0-2.9.1-5.3.4-7.3h0c0-.1,0-.2,0-.2.6-6.3.9-20.1.9-42.4s-2.4-35.8-7.2-46c-4.8-10.2-13.1-19.9-24.7-29-11.4-8.9-25.4-15.9-41.6-20.7-16.3-4.9-39.6-7.2-71.4-7.2s-21.1.4-28,1.4c-6.7.9-15.1,2.7-24.9,5.2l-.9.2-.8.4-66.6,35.6v-38.8l-5.7-1.7-11.6-3.4-2.3-.7h0Z"/>
        </g>
        <g>
          <path class="cls-4" d="M4519,974.2c-20.1,0-40-1.2-59-3.6-19-2.4-42.5-6.8-69.7-13.1l-1-.2-7.1-6.5.3-2.1c2.3-14.5,3.7-24.9,4.3-31l2.8-51.9h42l.2,3.7c1.3,19.6,2.6,32.5,3.9,38.5,12.2,9.7,25.7,17.1,40.3,21.8,15,4.9,32.6,7.4,52.1,7.4s46.3-4.2,59.9-12.3c13.2-7.9,19.6-17,19.6-27.9s-2-12.7-6.1-17.3c-4.2-4.7-13.2-9.1-26.7-13.3-11.1-2.6-32.5-6.3-63.9-10.8-31.8-4.6-56.3-9.8-72.8-15.4-17-5.8-30.5-14.5-40.1-26-9.8-11.7-14.7-25.5-14.7-41.2,0-27.8,15.7-51.1,46.7-69.3,30.3-17.8,74.3-26.8,130.7-26.8s45.1,1.4,64.7,4.1c19.7,2.7,37.7,6.8,53.7,12.2l1.6.6,2.6,5.7-.3,1.4c-1.7,6.5-2.9,13.2-3.8,19.9-.8,6.8-2.1,23.1-3.9,48.6l-.3,3.8-40.4-.3-.5-3.4c-.3-2.1-.7-5.7-1.3-10.7-.8-8-2.4-15.7-4.7-23.1-8.3-6.9-18.6-12.2-30.6-15.7-12.6-3.7-27.7-5.6-44.7-5.6s-42,3.5-54.7,10.4c-12.1,6.6-17.9,14-17.9,22.6s2.5,15.7,7.6,19.9c5.5,4.5,13.9,8,25,10.4,11.6,2.5,33.5,5.7,64.9,9.6,31.7,3.9,53.4,7.3,64.4,10,16.2,4.1,29.3,9.4,39.1,15.7,10,6.5,17.7,14.6,23.1,24.2,5.3,9.7,8,20.4,8,31.9,0,29.9-17.4,55.3-51.7,75.5-33.6,19.8-81.3,29.8-141.7,29.8Z"/>
          <path class="cls-6" d="M4560.7,680.9c23.2,0,44.6,1.3,64.1,4,19.5,2.7,37.2,6.7,52.9,12.1l1.3,2.9c-1.7,6.7-3,13.5-3.9,20.4s-2.2,23.2-3.9,48.8l-33.1-.3c-.3-2.1-.7-5.6-1.3-10.6-.9-8.6-2.6-16.9-5.2-25-8.9-7.7-19.9-13.4-32.9-17.2-13.1-3.8-28.3-5.7-45.8-5.7s-43.3,3.6-56.6,10.9c-13.3,7.3-20,16-20,26.1s3,18,9,23c6,5,14.9,8.7,26.7,11.2,11.8,2.5,33.5,5.7,65.2,9.6,31.7,3.9,53,7.2,63.9,9.9,15.8,4,28.4,9.1,37.9,15.2,9.5,6.1,16.7,13.7,21.7,22.8,5,9.1,7.5,19.1,7.5,30,0,28.5-16.6,52.5-49.7,72-33.1,19.5-79.7,29.3-139.7,29.3s-39.6-1.2-58.5-3.6c-18.9-2.4-42-6.7-69.3-13.1l-4.7-4.3c2.3-14.7,3.7-25.2,4.3-31.3l2.6-48.2h34.4c1.4,21.4,2.9,34.9,4.3,40.5,12.9,10.5,27.1,18.3,42.6,23.4,15.5,5.1,33.3,7.6,53.4,7.6s47.6-4.3,62-12.9c14.3-8.6,21.5-19,21.5-31.3s-2.4-14.7-7.1-19.9c-4.7-5.3-14.3-10.1-28.6-14.5-11.2-2.7-32.6-6.3-64.4-10.9-31.7-4.6-55.7-9.7-72.1-15.2-16.4-5.5-29.1-13.8-38.3-24.8-9.2-11-13.8-23.9-13.8-38.6,0-26.4,14.9-48.4,44.8-65.9,29.8-17.5,72.8-26.3,128.7-26.3M4560.7,672.9c-28.4,0-53.9,2.3-75.8,6.7-22.2,4.5-41.4,11.5-57,20.6-32.3,19-48.7,43.4-48.7,72.8s5.3,31.3,15.6,43.7c10.1,12.1,24.2,21.3,41.9,27.3,16.7,5.7,41.5,10.9,73.5,15.6,31.1,4.5,52.4,8.1,63.4,10.7,15.9,4.9,22.2,9.3,24.8,12.1,3.4,3.8,5,8.6,5,14.6,0,9.3-5.8,17.3-17.6,24.4-13,7.8-32.5,11.8-57.9,11.8s-36.3-2.4-50.9-7.2c-13.6-4.5-26.4-11.3-37.9-20.3-.9-4.9-2.1-15.2-3.5-36.5l-.5-7.5h-49.5l-.4,7.6-2.6,48c-.6,6-2,16.3-4.2,30.6l-.7,4.3,3.2,2.9,4.7,4.3,1.5,1.4,2,.5c27.4,6.3,51,10.8,70.1,13.2,19.2,2.4,39.2,3.7,59.5,3.7,30.4,0,57.8-2.5,81.5-7.5,24-5,45-12.7,62.2-22.9,35.6-21,53.7-47.5,53.7-78.9s-2.9-23.6-8.5-33.9c-5.6-10.2-13.9-18.8-24.4-25.7-10.2-6.6-23.7-12-40.3-16.2h0s0,0,0,0c-11.3-2.8-32.5-6.1-64.9-10.1-31.3-3.9-53-7.1-64.5-9.5-10.4-2.2-18.3-5.4-23.3-9.5-4.1-3.4-6.1-8.9-6.1-16.8s11.9-17,15.8-19.1c12.1-6.6,29.9-9.9,52.8-9.9s31.3,1.8,43.6,5.4c11.1,3.2,20.5,8,28.2,14.2,2,6.8,3.4,13.9,4.1,21.1h0c0,0,0,.1,0,.1.6,5,1,8.6,1.3,10.8l.9,6.9h6.9c0,0,33.1.3,33.1.3h7.5c0,0,.5-7.5.5-7.5,1.7-25.4,3-41.6,3.8-48.3.8-6.5,2.1-13,3.7-19.4l.7-2.7-1.2-2.6-1.3-2.9-1.4-3.2-3.3-1.1c-16.2-5.5-34.5-9.7-54.4-12.4-19.8-2.7-41.7-4.1-65.2-4.1h0Z"/>
        </g>
      </g>
      <g>
        <g>
          <g>
            <path class="cls-4" d="M703,984c-50.8,0-97-3.5-137.5-10.5-39.9-6.9-86.8-19.2-139.3-36.5l-1.7-.6-2.5-6,.5-1.5c5.7-16.1,10.3-36.4,13.6-60.3,3.7-25.9,6.6-50.8,8.5-74.1l.3-3.7h45.2l.2,3.8c1,22.3,2.5,41.3,4.6,56.7v.3s.3.2.3.2c25.3,24.5,54.2,43,85.8,55,31.6,12.1,72.5,18.2,121.6,18.2,88.8,0,160.9-26.3,214.2-78.2,26.7-26,47-57.5,60.3-93.7,13.3-36.2,20.1-78.1,20.1-124.5s-9.1-105.9-27-147.8c-17.9-41.9-42.2-77.1-72.1-104.5-29.8-27.4-60.3-47.7-90.6-60.3-41.2-16.8-91.7-25.3-150.3-25.3s-75.5,4.1-109.8,12.1c-33.5,7.8-70.4,21.3-109.7,40.1l-2.3,1.1-13.1-11.1,25.6-52,1.2-.6c46.4-22.5,88.7-38.2,125.7-46.7,37.4-8.5,84.8-12.8,140.9-12.8,79.7,0,151.2,11.8,212.6,35.1,48.1,18.8,89.5,43.9,122.9,74.8,33.4,30.9,59.5,64.9,77.6,101,27.4,54.5,41.3,114.6,41.3,178.5s-10.3,105.1-30.5,149.7c-20.2,44.6-51,84.8-91.5,119.5-40.5,34.6-90,61-147.2,78.3-57.2,17.3-123.7,26.1-197.6,26.1Z"/>
            <path class="cls-6" d="M715.4,225c79.2,0,150.3,11.7,211.1,34.8,47.6,18.6,88.5,43.5,121.6,74,33.1,30.6,58.9,64.2,76.7,99.8,27.2,54,40.9,113.4,40.9,176.7s-10.1,103.9-30.1,148.1c-20,44.1-50.4,83.8-90.5,118.1-40.1,34.3-89.1,60.4-145.7,77.5-56.8,17.2-122.9,26-196.5,26s-96.6-3.5-136.8-10.4c-39.7-6.8-86.4-19.1-138.8-36.4l-1.2-2.9c5.8-16.4,10.5-36.9,13.8-61.1,3.7-25.9,6.6-50.9,8.5-74.4h37.7c1,22.4,2.6,41.5,4.6,57l.2,1.7,1.3,1.2c25.7,24.8,55.1,43.7,87.1,55.9,32,12.2,73.4,18.4,123,18.4,89.9,0,162.9-26.7,217-79.3,27.1-26.4,47.7-58.4,61.2-95.2,13.5-36.6,20.3-79,20.3-125.9s-9.2-107-27.4-149.4c-18.2-42.4-42.7-78.1-73-105.9-30.2-27.7-61-48.2-91.7-61-41.7-17-92.8-25.6-151.8-25.6s-76.1,4.1-110.7,12.2c-33.8,7.9-71,21.5-110.5,40.4l-8.7-7.4,23.6-48c46.2-22.4,88.2-38,124.8-46.4,37.1-8.4,84.2-12.7,140-12.7M715.4,217c-56.3,0-104,4.4-141.8,12.9-37.3,8.5-79.9,24.3-126.6,47l-2.5,1.2-1.2,2.5-23.6,48-2.8,5.6,4.8,4,8.7,7.4,4,3.4,4.7-2.2c39-18.7,75.6-32.1,108.9-39.8,34-8,70.7-12,108.9-12,58,0,108,8.4,148.8,25,29.8,12.4,59.9,32.4,89.4,59.5,29.5,27,53.4,61.7,71.1,103.1,17.7,41.4,26.7,90.6,26.7,146.3s-6.7,87.4-19.8,123.1c-13.1,35.7-33.1,66.7-59.3,92.2-52.5,51.1-123.7,77.1-211.4,77.1s-89-6-120.1-17.9c-30.8-11.7-58.9-29.7-83.7-53.5-1.9-15-3.4-33.6-4.4-55.3l-.3-7.6h-52.7l-.6,7.3c-1.9,23.3-4.8,48.1-8.5,73.9h0s0,0,0,0c-3.2,23.6-7.7,43.6-13.4,59.5l-1,2.9,1.2,2.8,1.2,2.9,1.4,3.4,3.5,1.1c52.7,17.4,99.8,29.7,139.9,36.6,40.7,7,87.2,10.5,138.2,10.5,74.3,0,141.2-8.8,198.8-26.3,57.7-17.5,107.7-44.1,148.6-79.1,40.9-35,72.1-75.7,92.5-120.9,20.5-45.2,30.9-96.1,30.9-151.4s-14.1-125.2-41.8-180.3c-18.2-36.5-44.6-70.9-78.4-102.1-33.8-31.2-75.5-56.7-124.1-75.6h0s0,0,0,0c-61.8-23.5-133.7-35.3-214-35.3h0Z"/>
          </g>
          <g>
            <path class="cls-7" d="M656.1,779c-79.7,0-151.2-11.8-212.6-35.1-48.1-18.8-89.5-43.9-122.9-74.8-33.4-30.9-59.5-64.9-77.6-101-27.4-54.5-41.3-114.6-41.3-178.5s10.3-105.1,30.5-149.7c20.2-44.6,51-84.8,91.5-119.5,40.5-34.6,90-61,147.2-78.3,57.2-17.3,123.7-26.1,197.6-26.1s97,3.5,137.5,10.5c39.9,6.9,86.8,19.2,139.3,36.5l1.7.6,2.5,6-.5,1.5c-5.7,16.1-10.3,36.4-13.6,60.3-3.7,25.9-6.6,50.8-8.5,74.1l-.3,3.7h-45.2l-.2-3.8c-1-22.3-2.5-41.3-4.6-56.7v-.3s-.3-.2-.3-.2c-25.3-24.5-54.2-43-85.8-55-31.6-12.1-72.5-18.2-121.6-18.2-88.8,0-160.9,26.3-214.2,78.2-26.7,26-46.9,57.5-60.3,93.7-13.3,36.2-20.1,78.1-20.1,124.5s9.1,105.9,27,147.8c17.9,41.9,42.2,77.1,72.1,104.5,29.8,27.4,60.3,47.7,90.6,60.3,41.2,16.8,91.7,25.3,150.3,25.3s75.5-4.1,109.8-12.1c33.5-7.8,70.4-21.3,109.7-40.1l2.3-1.1,13.1,11.1-25.6,52-1.2.6c-46.4,22.5-88.7,38.2-125.7,46.7-37.4,8.5-84.8,12.8-140.9,12.8Z"/>
            <path class="cls-6" d="M668.6,20c50.6,0,96.6,3.5,136.8,10.4,39.7,6.8,86.4,19.1,138.8,36.4l1.2,2.9c-5.8,16.4-10.5,36.9-13.8,61.1-3.7,25.9-6.6,50.9-8.5,74.4h-37.7c-1-22.4-2.6-41.5-4.6-57l-.2-1.7-1.3-1.2c-25.7-24.8-55.1-43.7-87.1-55.9-32-12.2-73.4-18.4-123-18.4-89.9,0-162.9,26.7-217,79.3-27.1,26.4-47.7,58.4-61.2,95.2-13.5,36.6-20.3,79-20.3,125.9s9.2,107,27.4,149.4c18.2,42.4,42.7,78.1,73,105.9,30.2,27.7,61,48.2,91.7,61,41.7,17,92.8,25.6,151.8,25.6s76.1-4.1,110.7-12.2c33.8-7.9,71-21.5,110.5-40.4l8.7,7.4-23.6,48c-46.2,22.4-88.2,38-124.8,46.4-37.1,8.4-84.2,12.7-140,12.7-79.2,0-150.3-11.7-211.1-34.8-47.6-18.6-88.5-43.5-121.6-74-33.1-30.6-58.9-64.2-76.7-99.8-27.2-54-40.9-113.4-40.9-176.7s10.1-103.9,30.1-148.1c20-44.1,50.4-83.8,90.5-118.1,40.1-34.3,89.1-60.4,145.7-77.5,56.8-17.2,122.9-26,196.5-26M668.6,12c-74.3,0-141.2,8.8-198.8,26.3-57.7,17.5-107.7,44.1-148.6,79.1-40.9,35-72.1,75.7-92.5,120.9-20.5,45.2-30.9,96.1-30.9,151.4s14.1,125.2,41.8,180.3c18.2,36.5,44.6,70.9,78.4,102.1,33.8,31.2,75.5,56.7,124.1,75.6h0s0,0,0,0c61.8,23.5,133.7,35.3,214,35.3s104-4.3,141.8-12.9c37.3-8.5,79.9-24.3,126.6-47l2.5-1.2,1.2-2.5,23.6-48,2.8-5.6-4.7-4-8.7-7.4-4-3.4-4.7,2.2c-39,18.7-75.6,32.1-108.9,39.8-34,8-70.7,12-108.9,12-58,0-108-8.4-148.8-25-29.8-12.4-59.9-32.4-89.4-59.5-29.5-27-53.4-61.7-71.1-103.1-17.7-41.4-26.7-90.6-26.7-146.3s6.7-87.4,19.8-123.1c13.1-35.7,33.1-66.7,59.3-92.2,52.5-51.1,123.7-77.1,211.4-77.1s89,6,120.1,17.9c30.8,11.7,58.9,29.7,83.7,53.5,1.9,15,3.4,33.6,4.4,55.3l.3,7.6h52.7l.6-7.3c1.9-23.3,4.8-48.1,8.5-73.9h0s0,0,0,0c3.2-23.6,7.7-43.6,13.4-59.5l1-2.9-1.2-2.8-1.2-2.9-1.4-3.4-3.5-1.1c-52.7-17.4-99.8-29.7-139.9-36.6-40.7-7-87.2-10.5-138.2-10.5h0Z"/>
          </g>
        </g>
        <g>
          <path class="cls-5" d="M925.2,473.6c-.3,6.1-5.6,10.4-10,14.5-17.2,15.3-50.1,44.7-68,67.8-10.7,13.5-18.7,28.9-25,43.1-12.7,29.7-28.2,61.6-56.4,80.8-77.8,46.5-207.4-33.9-273-85.8-8.9-7-21.8-14.8-27.4-23.5-19.6-30.4,11.7-39.7,23.5-40.2,24.5-1,29.4,5.9,48,22.5,20.5,18.3,46.6,35.1,64.8,7.3,55.7-84.7,1.8-106.3-8.8-196.1-1.2-10.1-.4-22.8,9.1-28.1,9.3-5,20.4,1.5,25.9,9,4.9,6.9,6.5,13.4,9.6,22.8,7.4,22.8,16.6,51.1,23.8,73.3,4.3,12,4.9,18.9,11.6,26.8,5,5.1,14.9,6,18.8-.8,2.2-3.7,2.8-7.8,3.5-12.1,4.9-32.6,10.9-73.9,16-107.9,2-11.2,1.5-18,6.7-26.5,6-9,20-11.2,29.2-5.2,13.6,8.4,12.2,19.3,10.3,32.6-3.2,29.3-11.3,86.3-14.3,121.6.1,11.9,12.1,15.3,18.9,3,15-28.2,36.7-72.8,51-100.6,1.7-3.3,3.3-6.6,5.5-9.5,4.8-7.1,14.2-7,21.3-2.8,13,7.6,13.6,17.3,7.6,29.5-10.5,23.9-28.9,65.7-41.9,95.3-2.2,5.1-4.4,9.6-5.4,14.8-2.4,11,8.7,19.2,20.1,12.5,5.9-3,12.5-8.2,21-14.4,10.1-7.5,21.5-15.8,31.3-23,11-7.8,20.1-16.4,30.3-18.3,10.4-1.8,22.4,7.3,22.3,17.4h0Z"/>
          <g>
            <path class="cls-7" d="M777.9,626c2.8.8,5.7-.7,6.8-3.4l4.7-12.4c1-2.7-.2-5.8-2.9-7l-16-7.5c-1-.5-1.7-1.5-1.7-2.6l-.5-15.1c0-1.1.5-2.2,1.5-2.7l15.5-8.5c2.5-1.4,3.6-4.5,2.4-7.2l-5.5-12.1c-1.2-2.6-4.2-3.9-7-2.9l-18.6,6c-1,.4-.2.1-1-.6l-11.1-10.3c-.8-.8-1.1-1.9-.8-3l4.9-17c.8-2.8-.7-5.7-3.4-6.8l-12.4-4.7c-2.7-1-5.8.2-7,2.9l-7.5,16c-.5,1-1.5,1.7-2.6,1.7l-15.1.5c-1.1,0-2.2-.6-2.7-1.5l-8.5-15.5c-1.4-2.5-4.5-3.6-7.2-2.4l-12.1,5.5c-2.6,1.2-3.9,4.2-2.9,7l6,16.6c.4,1,.1,2.2-.6,3l-10.3,11.1c-.8.8-1.9,1.1-3,.8l-17-4.9c-2.8-.8-5.7.7-6.8,3.4l-4.7,12.4c-1,2.7.2,5.8,2.9,7l16,7.5c1,.5,1.7,1.5,1.7,2.6l.5,15.1c0,1.1-.6,2.2-1.5,2.7l-15.5,8.5c-2.5,1.4-3.6,4.5-2.4,7.2l5.5,12.1c1.2,2.6,4.2,3.9,7,2.9l16.6-6c1.1-.4,2.2-.1,3,.6l11.1,10.3c.8.8,1.1,1.9.8,3l-4.9,17c-.8,2.8.7,5.7,3.4,6.8l12.4,4.7c2.7,1,5.8-.2,7-2.9l7.5-16c.5-1,1.5-1.7,2.6-1.7l15.1-.5c1.1,0,2.2.6,2.7,1.5l8.5,15.5c1.4,2.5,4.5,3.6,7.2,2.4l12.1-5.5c2.7-1.2,3.9-4.2,2.9-7l-6-16.6c-.4-1-.1-2.2.6-3l10.3-11.1c.8-.8,1.9-1.1,3-.8l17,4.9Z"/>
            <circle class="cls-6" cx="710" cy="587.6" r="17.3" transform="translate(50.3 1231) rotate(-83.9)"/>
          </g>
        </g>
      </g>
    </g>
  </g>
</svg>