<svg xmlns="http://www.w3.org/2000/svg" xml:space="preserve" version="1.1" viewBox="0 0 512000 512000"><path d="M293596 233970c0 26322 627 48264-12651 71650-10724 19022-27791 30698-46749 30698-25905 0-41069-19730-41069-48979 0-57525 51607-67983 100469-67983v14614zm68105 164685c-4480 4005-10934 4283-15971 1567-22446-18640-26462-27263-38718-45009-37070 37767-63335 49094-111356 49094-56871 0-101090-35085-101090-105270 0-54832 29688-92111 72023-110393 36647-16086 87836-19004 127006-23397v-8774c0-16074 1253-35091-8218-48980-8217-12430-24013-17541-37905-17541-25760 0-48670 13196-54288 40552-1178 6094-5612 12110-11745 12425l-65459-7092c-5524-1241-11676-5682-10074-14120C120942 42298 192668 18300 256943 18300c32857 0 75823 8774 101730 33630 32856 30710 29700 71650 29700 116248V273400c0 31650 13137 45543 25486 62615 4317 6128 5292 13440-209 17920-13800 11571-38324 32869-51810 44870l-139-151zm92560 18722c-62721 26602-130884 39460-192884 39460-91933 0-180924-25208-252882-67095-6302-3668-10968 2797-5733 7532 66702 60236 154845 96425 252732 96425 69846 0 150950-21971 206903-63254 9250-6847 1323-17084-8136-13068zm16700 50278c-2042 5106 2346 7172 6965 3296 30014-25112 37767-77712 31615-85313-6093-7532-58565-14021-90599 8460-4921 3482-4062 8240 1394 7590 18036-2170 58182-6985 65343 2184 7145 9168-7966 46910-14720 63787" fill="#010101" fill-rule="evenodd" clip-rule="evenodd" display="inline"/></svg>
