<svg xmlns="http://www.w3.org/2000/svg" xml:space="preserve" x="0" y="0" version="1.1" viewBox="0 0 10000 10000"><path d="M2262 736h1381V3110H2262zm4104 0h1381V3110H6366zM1129 3650h7784v5258H1129" fill="#fff"/><path d="M251 2092v6956c0 380 322 701 716 701h8067c395 0 716-322 716-701V2092c0-380-322-701-716-701h-818v-73c0-248-73-526-248-731-190-190-482-336-906-336-439 0-731 146-906 336-190 205-263 482-263 731v73H4108v-73c0-248-73-526-248-731-190-190-482-336-921-336-423 0-716 146-891 336-190 205-263 482-263 731v73H966c-395-1-716 321-715 701zM1216 8800V7280h1710v1520h-1710zm0-1754v-1520h1710v1520h-1710zm0-1753V3758h1710v1534h-1710zm1271-2748V1316c0-234 146-351 454-351 323 0 468 117 468 351v1228c0 234-146 351-467 351-307 0-453-117-453-351l-2 1zm672 6254v-1520h1725v1520H3159zm0-1754v-1520h1725v1520H3159zm0-1754V3757h1725v1534H3159zm1958 3508v-1520h1725v1520H5117zm0-1754v-1520h1725v1520H5117zm0-1754V3757h1725v1534H5117zm1959 3508v-1520h1710v1520h-1710zm0-1754v-1520h1710v1520h-1710zm0-1754V3757h1710v1534h-1710zm-482-2747V1317c0-234 146-351 468-351 292 0 453 117 453 351v1228c0 234-146 351-453 351-322-1-468-118-468-352"/></svg>
