<svg xmlns="http://www.w3.org/2000/svg" xml:space="preserve" x="0" y="0" version="1.1" viewBox="0 0 81920 81920"><path d="M4973 38846 38846 4973c1171-1171 3064-1171 4235 0l33874 33874c1171 1171 1171 3064 0 4235L43074 76947c-1171 1171-3064 1171-4235 0L4973 43074c-1172-1164-1172-3064 0-4228" fill="#fff" opacity=".6"/><path d="M4973 38846 38846 4973c1171-1171 3064-1171 4235 0l33874 33874c1171 1171 1171 3064 0 4235L43074 76947c-1171 1171-3064 1171-4235 0L4973 43074c-1172-1164-1172-3064 0-4228" fill="none" stroke="#000" stroke-linecap="round" stroke-linejoin="round" stroke-miterlimit="1" stroke-width="4000"/><path d="M25166 42017 40960 57811l15794-15794" fill="none" stroke="#000" stroke-linecap="round" stroke-linejoin="round" stroke-miterlimit="1" stroke-width="4000"/></svg>
