<svg xmlns="http://www.w3.org/2000/svg" viewBox="0 0 100000 100000"><path d="M29292 350C11998 564 423 12195 267 29484c131 11744-1976 42786 2430 53354 9589 20058 24250 16610 47400 17157 23123-619 37848 2737 47334-17338 4392-10489 2161-41703 2223-53362-215-17300-11845-28871-29136-29026-4206-428-37012-327-41226 81m584 90388c-13589-622-19841-6883-20532-20454-425-4147-455-36248-76-40400 691-8039 1233-10206 5429-15041 4826-4215 6984-4756 15022-5489 4159-426 36243-455 40406-76 9888 598 15081 3077 18792 11174 3512 8536 1761 39972 1815 49676-600 9890-3076 15084-11175 18796-8539 3510-39973 1761-49681 1815m40761-67462c148 7887 11880 7866 12000-20-148-7888-11880-7865-12000 20M24327 50050c217 33575 51264 33469 51348-102-642-33746-50841-33642-51348 102m9006-18c329-21909 32921-21970 33334-65-56 21797-33197 21861-33334 65" fill="#000"/></svg>
