<svg xmlns="http://www.w3.org/2000/svg" xml:space="preserve" x="0" y="0" version="1.1" viewBox="0 0 10000 10000"><path d="M677 1000h8647v8000H677" fill="#fff"/><path d="M8990 251H1063C634 230 270 562 250 991v7946c12 444 369 801 813 813H8990c432-19 770-381 760-813V993c7-403-314-736-718-743-14 0-28 0-42 1zm-5771 7920H1835V3938h1383v4233zM2560 3296c-387 13-711-289-725-676-1-18-1-36 0-55-17-387 283-714 669-731 22-1 45-1 67 0 387-13 711 289 725 676 1 18 1 36 0 55 17 387-283 714-669 731-23 2-45 2-67 0zm5610 4875H6781V5855c0-552-196-932-689-932-314 3-592 202-695 499A828.2 828.2 0 00 5350 5760v2411H3985V3938H5350v594c248-455 729-732 1247-718 897 0 1573 594 1573 1858v2499"/></svg>
