<svg xmlns="http://www.w3.org/2000/svg" xml:space="preserve" x="0" y="0" version="1.1" viewBox="0 0 81920 81920"><path d="M27853 15892h26214v26214H27853" fill="#fff"/><path d="M40960 2048c-14705 0-26624 13066-26624 29180 0 6349 1901 12173 5054 16941 57 115 66 246 131 352l17752 29180c1360 2236 4112 2843 6152 1352 483-352 909-811 1229-1352l17752-29180c66-106 74-238 131-352 3154-4768 5054-10592 5054-16941-7-16114-11926-29180-26631-29180zm0 36454c-4899 0-8872-4358-8872-9724s3973-9732 8872-9732 8872 4358 8872 9724-3973 9732-8872 9732"/></svg>
