<svg xmlns="http://www.w3.org/2000/svg" viewBox="0 0 50 50"><path d="M25 2C12.318 2 2 12.318 2 25c0 9.884 6.268 18.33 15.036 21.577-.252-2.252-.213-5.94.204-7.724.39-1.677 2.521-10.688 2.521-10.688s-.643-1.288-.643-3.19c0-2.99 1.733-5.222 3.89-5.222 1.835 0 2.72 1.378 2.72 3.028 0 1.846-1.174 4.603-1.782 7.158-.506 2.141 1.074 3.887 3.184 3.887 3.821 0 6.759-4.03 6.759-9.846 0-5.147-3.698-8.747-8.98-8.747-6.117 0-9.707 4.589-9.707 9.331 0 1.848.711 3.829 1.6 4.907.175.214.2.4.149.616-.163.68-.525 2.14-.597 2.439-.094.394-.312.476-.719.287-2.686-1.25-4.364-5.176-4.364-8.33 0-6.781 4.926-13.01 14.206-13.01 7.459 0 13.255 5.313 13.255 12.417 0 7.41-4.673 13.373-11.157 13.373-2.179 0-4.226-1.132-4.927-2.469 0 0-1.078 4.105-1.34 5.111-.453 1.74-2.39 5.346-3.362 6.984A22.906 22.906 0 0 0 25 48c12.683 0 23-10.317 23-23C48 12.318 37.683 2 25 2z"/></svg>