<svg xmlns="http://www.w3.org/2000/svg" version="1.1" viewBox="0 0 20 20"><ellipse fill="#fff" cx="10" cy="10" rx="8.305" ry="8.771"/><path d="M15.915 8.865c-3.223-1.914-8.54-2.09-11.618-1.156a.935.935 0 0 1-.543-1.793c3.533-1.074 9.405-.867 13.116 1.336a.936.936 0 0 1-.955 1.61ZM15.81 11.7a.78.78 0 0 1-1.073.257c-2.687-1.652-6.785-2.13-9.964-1.165A.78.78 0 0 1 4.32 9.3c3.631-1.102 8.146-.568 11.233 1.329a.779.779 0 0 1 .257 1.067Zm-1.224 2.723a.623.623 0 0 1-.857.207c-2.35-1.435-5.307-1.76-8.788-.964a.623.623 0 1 1-.277-1.215c3.81-.871 7.076-.496 9.712 1.115.294.18.387.563.207.857ZM10 0C4.477 0 0 4.477 0 10s4.477 10 10 10 10-4.477 10-10c0-5.522-4.477-10-10-10Z"/></svg>