<svg xmlns="http://www.w3.org/2000/svg" viewBox="0 0 51200 51200"><path d="M35397 43c3 781 231 12068 12076 12772 0 3255 4 5615 4 8721-897 52-7798-449-12093-4280l-13 16978c163 11784-8509 18955-19844 16478-19546-5847-13051-34837 6575-31734 0 9359 5-3 5 9359-8108-1193-10820 5552-8665 10381 1960 4397 10033 5350 12849-853 319-1214 478-2598 478-4152V0l8628 43Z" fill="#000" fill-rule="evenodd" image-rendering="optimizeQuality" shape-rendering="geometricPrecision" text-rendering="geometricPrecision"/></svg>
