<svg xmlns="http://www.w3.org/2000/svg" xml:space="preserve" x="0" y="0" version="1.1" viewBox="0 0 8192 8192"><path d="M1532.3 2037.8h5127.4v4116.3H1532.3z" fill="#fff" stroke="#000" stroke-miterlimit="10"/><path d="M7829.3 1839.5c-221.3-393.8-461.6-466.1-950.7-493.6-1060.3-63.5-4506.4-63.2-5565.1-.5C23.7 1386.9 79.5 2549.9 16 4102.4c-.5 1184.8 117.3 1875.2 345.3 2262.9 223.4 393.8 463.5 465.1 951.7 498.2 1059.8 59.7 4504.8 59.5 5566.1.5 1289.4-53.1 1233.8-1203.4 1297-2757 .5-1190.4-116.2-1875.7-346.9-2267.5h.1zM3076 5633.9v-3060l2550.1 1529.9-2550.1 1530v.1z" fill-rule="evenodd" clip-rule="evenodd"/></svg>